  0
SECTION
  2
HEADER
  9
$ACADVER
  1
AC1009
  9
$EXTMIN
 10
0.0
 20
0.0
 30
0.0
  9
$EXTMAX
 10
100.0
 20
100.0
 30
0.0
  9
$INSBASE
 10
0.0
 20
0.0
 30
0.0
  0
ENDSEC
  0
SECTION
  2
TABLES
  0
TABLE
  2
LTYPE
 70
19
  0
LTYPE
  2
PHANTOM
 70
0
  3
Phantom ______  __  __  ______  __  __  ______
 72
65
 73
6
 40
2.5
 49
1.25
 49
-0.25
 49
0.25
 49
-0.25
 49
0.25
 49
-0.25
  0
LTYPE
  2
DOT2
 70
0
  3
Dot (.5) . . . . . . . . . . . . . . . . . . . 
 72
65
 73
2
 40
0.1
 49
0.0
 49
-0.1
  0
LTYPE
  2
DIVIDE
 70
0
  3
Divide __ . . __ . . __ . . __ . . __ . . __
 72
65
 73
6
 40
1.6
 49
1.0
 49
-0.2
 49
0.0
 49
-0.2
 49
0.0
 49
-0.2
  0
LTYPE
  2
DIVIDEX2
 70
0
  3
Divide (2x) ____  . .  ____  . .  ____  . .  ____
 72
65
 73
6
 40
2.6
 49
2.0
 49
-0.2
 49
0.0
 49
-0.2
 49
0.0
 49
-0.2
  0
LTYPE
  2
CENTER
 70
0
  3
Center ____ _ ____ _ ____ _ ____ _ ____ _ ____
 72
65
 73
4
 40
2.0
 49
1.25
 49
-0.25
 49
0.25
 49
-0.25
  0
LTYPE
  2
DASHDOT
 70
0
  3
Dash dot __ . __ . __ . __ . __ . __ . __ . __
 72
65
 73
4
 40
1.4
 49
1.0
 49
-0.2
 49
0.0
 49
-0.2
  0
LTYPE
  2
CENTERX2
 70
0
  3
Center (2x) ________  __  ________  __  ________
 72
65
 73
4
 40
3.5
 49
2.5
 49
-0.25
 49
0.5
 49
-0.25
  0
LTYPE
  2
PHANTOMX2
 70
0
  3
Phantom (2x)____________    ____    ____    ____________
 72
65
 73
6
 40
4.25
 49
2.5
 49
-0.25
 49
0.5
 49
-0.25
 49
0.5
 49
-0.25
  0
LTYPE
  2
CONTINUOUS
 70
0
  3
Solid
 72
65
 73
0
 40
0.0
  0
LTYPE
  2
PHANTOM2
 70
0
  3
Phantom (.5x) ___ _ _ ___ _ _ ___ _ _ ___ _ _ ___
 72
65
 73
6
 40
1.25
 49
0.625
 49
-0.125
 49
0.125
 49
-0.125
 49
0.125
 49
-0.125
  0
LTYPE
  2
DASHED
 70
0
  3
Dashed __ __ __ __ __ __ __ __ __ __ __ __ __ _
 72
65
 73
2
 40
0.6
 49
0.5
 49
-0.1
  0
LTYPE
  2
DASHED2
 70
0
  3
Dashed (.5x) _ _ _ _ _ _ _ _ _ _ _ _ _ _
 72
65
 73
2
 40
0.3
 49
0.25
 49
-0.05
  0
LTYPE
  2
DASHDOT2
 70
0
  3
Dash dot (.5x) _ . _ . _ . _ . _ . _ . _ . _
 72
65
 73
4
 40
0.7
 49
0.5
 49
-0.1
 49
0.0
 49
-0.1
  0
LTYPE
  2
DOTX2
 70
0
  3
Dot (2x) .    .    .    .    .    .    .    . 
 72
65
 73
2
 40
0.4
 49
0.0
 49
-0.4
  0
LTYPE
  2
DIVIDE2
 70
0
  3
Divide(.5x) _ . _ . _ . _ . _ . _ . _ . _
 72
65
 73
6
 40
0.8
 49
0.5
 49
-0.1
 49
0.0
 49
-0.1
 49
0.0
 49
-0.1
  0
LTYPE
  2
CENTER2
 70
0
  3
Center (.5x) ____ _ ____ _ ____ _ ____ _ ____
 72
65
 73
4
 40
1.0
 49
0.625
 49
-0.125
 49
0.125
 49
-0.125
  0
LTYPE
  2
DASHDOTX2
 70
0
  3
Dash dot (2x) ____  .  ____  .  ____  .  ____
 72
65
 73
4
 40
2.4
 49
2.0
 49
-0.2
 49
0.0
 49
-0.2
  0
LTYPE
  2
DOT
 70
0
  3
Dot .  .  .  .  .  .  .  .  .  .  .  .  .  .  .  .
 72
65
 73
2
 40
0.2
 49
0.0
 49
-0.2
  0
LTYPE
  2
DASHEDX2
 70
0
  3
Dashed (2x) ____  ____  ____  ____  ____  ____
 72
65
 73
2
 40
1.2
 49
1.0
 49
-0.2
  0
ENDTAB
  0
TABLE
  2
LAYER
 70
5
  0
LAYER
  2
VIEWPORTS
 70
0
 62
7
  6
CONTINUOUS
  0
LAYER
  2
TABLEGRID
 70
0
 62
1
  6
CONTINUOUS
  0
LAYER
  2
TABLECONTENT
 70
0
 62
1
  6
CONTINUOUS
  0
LAYER
  2
DIMENSIONS
 70
0
 62
1
  6
CONTINUOUS
  0
LAYER
  2
TABLEBACKGROUND
 70
0
 62
1
  6
CONTINUOUS
  0
ENDTAB
  0
TABLE
  2
STYLE
 70
12
  0
STYLE
  2
TIMES
 70
0
 40
0.0
 41
1.0
 42
1.0
 50
0.0
 71
0
  3
times.ttf
  4

  0
STYLE
  2
ARIAL
 70
0
 40
0.0
 41
1.0
 42
1.0
 50
0.0
 71
0
  3
arial.ttf
  4

  0
STYLE
  2
TIMES_BOLD
 70
0
 40
0.0
 41
1.0
 42
1.0
 50
0.0
 71
0
  3
timesbd.ttf
  4

  0
STYLE
  2
ARIAL_BLACK
 70
0
 40
0.0
 41
1.0
 42
1.0
 50
0.0
 71
0
  3
ariblk.ttf
  4

  0
STYLE
  2
TIMES_ITALIC
 70
0
 40
0.0
 41
1.0
 42
1.0
 50
0.0
 71
0
  3
timesi.ttf
  4

  0
STYLE
  2
ISOCPEUR
 70
0
 40
0.0
 41
1.0
 42
1.0
 50
0.0
 71
0
  3
isocpeur.ttf
  4

  0
STYLE
  2
ARIAL_BOLD
 70
0
 40
0.0
 41
1.0
 42
1.0
 50
0.0
 71
0
  3
arialbd.ttf
  4

  0
STYLE
  2
ARIAL_ITALIC
 70
0
 40
0.0
 41
1.0
 42
1.0
 50
0.0
 71
0
  3
ariali.ttf
  4

  0
STYLE
  2
ARIAL_BOLD_ITALIC
 70
0
 40
0.0
 41
1.0
 42
1.0
 50
0.0
 71
0
  3
arialbi.ttf
  4

  0
STYLE
  2
TIMES_BOLD_ITALIC
 70
0
 40
0.0
 41
1.0
 42
1.0
 50
0.0
 71
0
  3
timesbi.ttf
  4

  0
STYLE
  2
ISOCPEUR_ITALIC
 70
0
 40
0.0
 41
1.0
 42
1.0
 50
0.0
 71
0
  3
isocpeui.ttf
  4

  0
STYLE
  2
STANDARD
 70
0
 40
0.0
 41
1.0
 42
1.0
 50
0.0
 71
0
  3
arial.ttf
  4

  0
ENDTAB
  0
TABLE
  2
VIEW
 70
0
  0
ENDTAB
  0
TABLE
  2
APPID
 70
1
  0
APPID
  2
DXFWRITE
 70
0
  0
ENDTAB
  0
TABLE
  2
VPORT
 70
0
  0
ENDTAB
  0
TABLE
  2
UCS
 70
0
  0
ENDTAB
  0
ENDSEC
  0
SECTION
  2
BLOCKS
  0
BLOCK
  8
0
  2
symbolRight
  3
symbolRight
 70
0
 10
0.0
 20
0.0
 30
0.0
  0
SOLID
 62
0
  8
0
 10
0.0
 20
0.25
 30
0.0
 11
-1.0
 21
0.25
 31
0.0
 13
-0.5
 23
1.116
 33
0.0
 12
0.0
 22
0.25
 32
0.0
  0
ATTDEF
 62
0
  8
0
 10
0.0
 20
-0.25
 30
0.0
 40
1.0
  1
Attrib
  3
Input:
  2
CS
 70
0
 72
2
 74
3
  0
ENDBLK
  0
BLOCK
  8
0
  2
symbolCenter
  3
symbolCenter
 70
0
 10
0.0
 20
0.0
 30
0.0
  0
ATTDEF
 62
0
  8
0
 10
0.0
 20
0.03
 30
0.0
 40
0.75
  1
Attrib
  3
Input:
  2
MAX
 70
0
 72
1
 74
1
  0
ATTDEF
 62
0
  8
0
 10
0.0
 20
-0.25
 30
0.0
 40
0.75
  1
Attrib
  3
Input:
  2
MIN
 70
0
 72
1
 74
3
  0
ENDBLK
  0
BLOCK
  8
0
  2
symbolLeft
  3
symbolLeft
 70
0
 10
0.0
 20
0.0
 30
0.0
  0
SOLID
 62
0
  8
0
 10
0.0
 20
0.25
 30
0.0
 11
1.0
 21
0.25
 31
0.0
 13
0.5
 23
1.116
 33
0.0
 12
0.0
 22
0.25
 32
0.0
  0
ATTDEF
 62
0
  8
0
 10
0.0
 20
-0.25
 30
0.0
 40
1.0
  1
Attrib
  3
Input:
  2
CS
 70
0
 72
0
 74
3
  0
ENDBLK
  0
ENDSEC
  0
SECTION
  2
ENTITIES
  0
VIEWPORT
  8
VIEWPORTS
 67
1
 10
0.0
 20
0.0
 30
0.0
 40
1.0
 41
1.0
 68
1
 69
1
1001
ACAD
1000
MVIEW
1002
{
1070
16
1010
0.0
1020
0.0
1030
0.0
1010
0.0
1020
0.0
1030
0.0
1040
0.0
1040
1.0
1040
0.0
1040
0.0
1040
50.0
1040
0.0
1040
0.0
1070
0
1070
100
1070
1
1070
3
1070
0
1070
0
1070
0
1070
0
1040
0.0
1040
0.0
1040
0.0
1040
0.1
1040
0.1
1040
0.1
1040
0.1
1070
0
1002
{
1002
}
1002
}
  0
POLYLINE
  8
0
 66
1
 10
0.0
 20
0.0
 30
0.0
 70
8
  0
VERTEX
  8
0
 10
67256.101563
 20
12239.094727
 30
0.0
  0
VERTEX
  8
0
 10
67067.984375
 20
12002.109375
 30
0.0
  0
SEQEND
  0
INSERT
 62
256
  8
0
 66
1
  2
symbolLeft
 10
67256.101563
 20
12239.094727
 30
0.0
 41
5.0
 42
5.0
 50
-128.442281556
  0
ATTRIB
 62
0
  8
0
 10
67255.1225194
 20
12239.8718844
 30
0.0
 40
5.0
  1
A
  2
CS
 70
0
 50
-128.442281556
 72
0
 74
3
 11
67255.1225194
 21
12239.8718844
 31
0.0
  0
SEQEND
  0
INSERT
 62
256
  8
0
 66
1
  2
symbolRight
 10
67067.984375
 20
12002.109375
 30
0.0
 41
5.0
 42
5.0
 50
-128.442281556
  0
ATTRIB
 62
0
  8
0
 10
67067.0053314
 20
12002.8865324
 30
0.0
 40
5.0
  1
A
  2
CS
 70
0
 50
-128.442281556
 72
2
 74
3
 11
67067.0053314
 21
12002.8865324
 31
0.0
  0
SEQEND
  0
INSERT
 62
256
  8
0
 66
1
  2
symbolCenter
 10
67162.042969
 20
12120.602051
 30
0.0
 41
5.0
 42
5.0
 50
-128.442281556
  0
ATTRIB
 62
0
  8
0
 10
67162.1604542
 20
12120.5087921
 30
0.0
 40
3.75
  1
Q = 221.27 m3/s (max)
  2
MAX
 70
0
 50
-128.442281556
 72
1
 74
1
 11
67162.1604542
 21
12120.5087921
 31
0.0
  0
ATTRIB
 62
0
  8
0
 10
67161.0639254
 20
12121.3792084
 30
0.0
 40
3.75
  1
Q = -0.00 m3/s (min)
  2
MIN
 70
0
 50
-128.442281556
 72
1
 74
3
 11
67161.0639254
 21
12121.3792084
 31
0.0
  0
SEQEND
  0
POLYLINE
  8
0
 66
1
 10
0.0
 20
0.0
 30
0.0
 70
8
  0
VERTEX
  8
0
 10
67063.921875
 20
11997.454102
 30
0.0
  0
VERTEX
  8
0
 10
66970.734375
 20
11864.598633
 30
0.0
  0
SEQEND
  0
INSERT
 62
256
  8
0
 66
1
  2
symbolLeft
 10
67063.921875
 20
11997.454102
 30
0.0
 41
5.0
 42
5.0
 50
-125.046592706
  0
ATTRIB
 62
0
  8
0
 10
67062.8985183
 20
11998.171905
 30
0.0
 40
5.0
  1
B
  2
CS
 70
0
 50
-125.046592706
 72
0
 74
3
 11
67062.8985183
 21
11998.171905
 31
0.0
  0
SEQEND
  0
INSERT
 62
256
  8
0
 66
1
  2
symbolRight
 10
66970.734375
 20
11864.598633
 30
0.0
 41
5.0
 42
5.0
 50
-125.046592706
  0
ATTRIB
 62
0
  8
0
 10
66969.7110183
 20
11865.316436
 30
0.0
 40
5.0
  1
B
  2
CS
 70
0
 50
-125.046592706
 72
2
 74
3
 11
66969.7110183
 21
11865.316436
 31
0.0
  0
SEQEND
  0
INSERT
 62
256
  8
0
 66
1
  2
symbolCenter
 10
67017.328125
 20
11931.0263675
 30
0.0
 41
5.0
 42
5.0
 50
-125.046592706
  0
ATTRIB
 62
0
  8
0
 10
67017.4509278
 20
11930.9402311
 30
0.0
 40
3.75
  1
Q = 2.67 m3/s (max)
  2
MAX
 70
0
 50
-125.046592706
 72
1
 74
1
 11
67017.4509278
 21
11930.9402311
 31
0.0
  0
ATTRIB
 62
0
  8
0
 10
67016.3047683
 20
11931.7441705
 30
0.0
 40
3.75
  1
Q = -19.46 m3/s (min)
  2
MIN
 70
0
 50
-125.046592706
 72
1
 74
3
 11
67016.3047683
 21
11931.7441705
 31
0.0
  0
SEQEND
  0
POLYLINE
  8
0
 66
1
 10
0.0
 20
0.0
 30
0.0
 70
8
  0
VERTEX
  8
0
 10
67780.5625
 20
11862.489258
 30
0.0
  0
VERTEX
  8
0
 10
67614.8125
 20
11651.421875
 30
0.0
  0
SEQEND
  0
INSERT
 62
256
  8
0
 66
1
  2
symbolLeft
 10
67780.5625
 20
11862.489258
 30
0.0
 41
5.0
 42
5.0
 50
-128.142343082
  0
ATTRIB
 62
0
  8
0
 10
67779.5794015
 20
11863.2612796
 30
0.0
 40
5.0
  1
C
  2
CS
 70
0
 50
-128.142343082
 72
0
 74
3
 11
67779.5794015
 21
11863.2612796
 31
0.0
  0
SEQEND
  0
INSERT
 62
256
  8
0
 66
1
  2
symbolRight
 10
67614.8125
 20
11651.421875
 30
0.0
 41
5.0
 42
5.0
 50
-128.142343082
  0
ATTRIB
 62
0
  8
0
 10
67613.8294015
 20
11652.1938966
 30
0.0
 40
5.0
  1
C
  2
CS
 70
0
 50
-128.142343082
 72
2
 74
3
 11
67613.8294015
 21
11652.1938966
 31
0.0
  0
SEQEND
  0
INSERT
 62
256
  8
0
 66
1
  2
symbolCenter
 10
67697.6875
 20
11756.9555665
 30
0.0
 41
5.0
 42
5.0
 50
-128.142343082
  0
ATTRIB
 62
0
  8
0
 10
67697.8054718
 20
11756.8629239
 30
0.0
 40
3.75
  1
Q = 205.05 m3/s (max)
  2
MAX
 70
0
 50
-128.142343082
 72
1
 74
1
 11
67697.8054718
 21
11756.8629239
 31
0.0
  0
ATTRIB
 62
0
  8
0
 10
67696.7044015
 20
11757.7275881
 30
0.0
 40
3.75
  1
Q = 0.00 m3/s (min)
  2
MIN
 70
0
 50
-128.142343082
 72
1
 74
3
 11
67696.7044015
 21
11757.7275881
 31
0.0
  0
SEQEND
  0
POLYLINE
  8
0
 66
1
 10
0.0
 20
0.0
 30
0.0
 70
8
  0
VERTEX
  8
0
 10
67606.640625
 20
11647.994141
 30
0.0
  0
VERTEX
  8
0
 10
67520.554688
 20
11562.707031
 30
0.0
  0
SEQEND
  0
INSERT
 62
256
  8
0
 66
1
  2
symbolLeft
 10
67606.640625
 20
11647.994141
 30
0.0
 41
5.0
 42
5.0
 50
-135.267072827
  0
ATTRIB
 62
0
  8
0
 10
67605.7608712
 20
11648.8821349
 30
0.0
 40
5.0
  1
D
  2
CS
 70
0
 50
-135.267072827
 72
0
 74
3
 11
67605.7608712
 21
11648.8821349
 31
0.0
  0
SEQEND
  0
INSERT
 62
256
  8
0
 66
1
  2
symbolRight
 10
67520.554688
 20
11562.707031
 30
0.0
 41
5.0
 42
5.0
 50
-135.267072827
  0
ATTRIB
 62
0
  8
0
 10
67519.6749342
 20
11563.5950249
 30
0.0
 40
5.0
  1
D
  2
CS
 70
0
 50
-135.267072827
 72
2
 74
3
 11
67519.6749342
 21
11563.5950249
 31
0.0
  0
SEQEND
  0
INSERT
 62
256
  8
0
 66
1
  2
symbolCenter
 10
67563.5976565
 20
11605.350586
 30
0.0
 41
5.0
 42
5.0
 50
-135.267072827
  0
ATTRIB
 62
0
  8
0
 10
67563.703227
 20
11605.2440267
 30
0.0
 40
3.75
  1
Q = 12.95 m3/s (max)
  2
MAX
 70
0
 50
-135.267072827
 72
1
 74
1
 11
67563.703227
 21
11605.2440267
 31
0.0
  0
ATTRIB
 62
0
  8
0
 10
67562.7179027
 20
11606.2385799
 30
0.0
 40
3.75
  1
Q = -1.20 m3/s (min)
  2
MIN
 70
0
 50
-135.267072827
 72
1
 74
3
 11
67562.7179027
 21
11606.2385799
 31
0.0
  0
SEQEND
  0
ENDSEC
  0
EOF
