  0
SECTION
  2
HEADER
  9
$ACADVER
  1
AC1009
  9
$EXTMIN
 10
0.0
 20
0.0
 30
0.0
  9
$EXTMAX
 10
100.0
 20
100.0
 30
0.0
  9
$INSBASE
 10
0.0
 20
0.0
 30
0.0
  0
ENDSEC
  0
SECTION
  2
TABLES
  0
TABLE
  2
LTYPE
 70
19
  0
LTYPE
  2
PHANTOM
 70
0
  3
Phantom ______  __  __  ______  __  __  ______
 72
65
 73
6
 40
2.5
 49
1.25
 49
-0.25
 49
0.25
 49
-0.25
 49
0.25
 49
-0.25
  0
LTYPE
  2
DOT2
 70
0
  3
Dot (.5) . . . . . . . . . . . . . . . . . . . 
 72
65
 73
2
 40
0.1
 49
0.0
 49
-0.1
  0
LTYPE
  2
DIVIDE
 70
0
  3
Divide __ . . __ . . __ . . __ . . __ . . __
 72
65
 73
6
 40
1.6
 49
1.0
 49
-0.2
 49
0.0
 49
-0.2
 49
0.0
 49
-0.2
  0
LTYPE
  2
DIVIDEX2
 70
0
  3
Divide (2x) ____  . .  ____  . .  ____  . .  ____
 72
65
 73
6
 40
2.6
 49
2.0
 49
-0.2
 49
0.0
 49
-0.2
 49
0.0
 49
-0.2
  0
LTYPE
  2
CENTER
 70
0
  3
Center ____ _ ____ _ ____ _ ____ _ ____ _ ____
 72
65
 73
4
 40
2.0
 49
1.25
 49
-0.25
 49
0.25
 49
-0.25
  0
LTYPE
  2
DASHDOT
 70
0
  3
Dash dot __ . __ . __ . __ . __ . __ . __ . __
 72
65
 73
4
 40
1.4
 49
1.0
 49
-0.2
 49
0.0
 49
-0.2
  0
LTYPE
  2
CENTERX2
 70
0
  3
Center (2x) ________  __  ________  __  ________
 72
65
 73
4
 40
3.5
 49
2.5
 49
-0.25
 49
0.5
 49
-0.25
  0
LTYPE
  2
PHANTOMX2
 70
0
  3
Phantom (2x)____________    ____    ____    ____________
 72
65
 73
6
 40
4.25
 49
2.5
 49
-0.25
 49
0.5
 49
-0.25
 49
0.5
 49
-0.25
  0
LTYPE
  2
CONTINUOUS
 70
0
  3
Solid
 72
65
 73
0
 40
0.0
  0
LTYPE
  2
PHANTOM2
 70
0
  3
Phantom (.5x) ___ _ _ ___ _ _ ___ _ _ ___ _ _ ___
 72
65
 73
6
 40
1.25
 49
0.625
 49
-0.125
 49
0.125
 49
-0.125
 49
0.125
 49
-0.125
  0
LTYPE
  2
DASHED
 70
0
  3
Dashed __ __ __ __ __ __ __ __ __ __ __ __ __ _
 72
65
 73
2
 40
0.6
 49
0.5
 49
-0.1
  0
LTYPE
  2
DASHED2
 70
0
  3
Dashed (.5x) _ _ _ _ _ _ _ _ _ _ _ _ _ _
 72
65
 73
2
 40
0.3
 49
0.25
 49
-0.05
  0
LTYPE
  2
DASHDOT2
 70
0
  3
Dash dot (.5x) _ . _ . _ . _ . _ . _ . _ . _
 72
65
 73
4
 40
0.7
 49
0.5
 49
-0.1
 49
0.0
 49
-0.1
  0
LTYPE
  2
DOTX2
 70
0
  3
Dot (2x) .    .    .    .    .    .    .    . 
 72
65
 73
2
 40
0.4
 49
0.0
 49
-0.4
  0
LTYPE
  2
DIVIDE2
 70
0
  3
Divide(.5x) _ . _ . _ . _ . _ . _ . _ . _
 72
65
 73
6
 40
0.8
 49
0.5
 49
-0.1
 49
0.0
 49
-0.1
 49
0.0
 49
-0.1
  0
LTYPE
  2
CENTER2
 70
0
  3
Center (.5x) ____ _ ____ _ ____ _ ____ _ ____
 72
65
 73
4
 40
1.0
 49
0.625
 49
-0.125
 49
0.125
 49
-0.125
  0
LTYPE
  2
DASHDOTX2
 70
0
  3
Dash dot (2x) ____  .  ____  .  ____  .  ____
 72
65
 73
4
 40
2.4
 49
2.0
 49
-0.2
 49
0.0
 49
-0.2
  0
LTYPE
  2
DOT
 70
0
  3
Dot .  .  .  .  .  .  .  .  .  .  .  .  .  .  .  .
 72
65
 73
2
 40
0.2
 49
0.0
 49
-0.2
  0
LTYPE
  2
DASHEDX2
 70
0
  3
Dashed (2x) ____  ____  ____  ____  ____  ____
 72
65
 73
2
 40
1.2
 49
1.0
 49
-0.2
  0
ENDTAB
  0
TABLE
  2
LAYER
 70
5
  0
LAYER
  2
VIEWPORTS
 70
0
 62
7
  6
CONTINUOUS
  0
LAYER
  2
TABLEGRID
 70
0
 62
1
  6
CONTINUOUS
  0
LAYER
  2
TABLECONTENT
 70
0
 62
1
  6
CONTINUOUS
  0
LAYER
  2
DIMENSIONS
 70
0
 62
1
  6
CONTINUOUS
  0
LAYER
  2
TABLEBACKGROUND
 70
0
 62
1
  6
CONTINUOUS
  0
ENDTAB
  0
TABLE
  2
STYLE
 70
12
  0
STYLE
  2
TIMES
 70
0
 40
0.0
 41
1.0
 42
1.0
 50
0.0
 71
0
  3
times.ttf
  4

  0
STYLE
  2
ARIAL
 70
0
 40
0.0
 41
1.0
 42
1.0
 50
0.0
 71
0
  3
arial.ttf
  4

  0
STYLE
  2
TIMES_BOLD
 70
0
 40
0.0
 41
1.0
 42
1.0
 50
0.0
 71
0
  3
timesbd.ttf
  4

  0
STYLE
  2
ARIAL_BLACK
 70
0
 40
0.0
 41
1.0
 42
1.0
 50
0.0
 71
0
  3
ariblk.ttf
  4

  0
STYLE
  2
TIMES_ITALIC
 70
0
 40
0.0
 41
1.0
 42
1.0
 50
0.0
 71
0
  3
timesi.ttf
  4

  0
STYLE
  2
ISOCPEUR
 70
0
 40
0.0
 41
1.0
 42
1.0
 50
0.0
 71
0
  3
isocpeur.ttf
  4

  0
STYLE
  2
ARIAL_BOLD
 70
0
 40
0.0
 41
1.0
 42
1.0
 50
0.0
 71
0
  3
arialbd.ttf
  4

  0
STYLE
  2
ARIAL_ITALIC
 70
0
 40
0.0
 41
1.0
 42
1.0
 50
0.0
 71
0
  3
ariali.ttf
  4

  0
STYLE
  2
ARIAL_BOLD_ITALIC
 70
0
 40
0.0
 41
1.0
 42
1.0
 50
0.0
 71
0
  3
arialbi.ttf
  4

  0
STYLE
  2
TIMES_BOLD_ITALIC
 70
0
 40
0.0
 41
1.0
 42
1.0
 50
0.0
 71
0
  3
timesbi.ttf
  4

  0
STYLE
  2
ISOCPEUR_ITALIC
 70
0
 40
0.0
 41
1.0
 42
1.0
 50
0.0
 71
0
  3
isocpeui.ttf
  4

  0
STYLE
  2
STANDARD
 70
0
 40
0.0
 41
1.0
 42
1.0
 50
0.0
 71
0
  3
arial.ttf
  4

  0
ENDTAB
  0
TABLE
  2
VIEW
 70
0
  0
ENDTAB
  0
TABLE
  2
APPID
 70
1
  0
APPID
  2
DXFWRITE
 70
0
  0
ENDTAB
  0
TABLE
  2
VPORT
 70
0
  0
ENDTAB
  0
TABLE
  2
UCS
 70
0
  0
ENDTAB
  0
ENDSEC
  0
SECTION
  2
BLOCKS
  0
ENDSEC
  0
SECTION
  2
ENTITIES
  0
VIEWPORT
  8
VIEWPORTS
 67
1
 10
0.0
 20
0.0
 30
0.0
 40
1.0
 41
1.0
 68
1
 69
1
1001
ACAD
1000
MVIEW
1002
{
1070
16
1010
0.0
1020
0.0
1030
0.0
1010
0.0
1020
0.0
1030
0.0
1040
0.0
1040
1.0
1040
0.0
1040
0.0
1040
50.0
1040
0.0
1040
0.0
1070
0
1070
100
1070
1
1070
3
1070
0
1070
0
1070
0
1070
0
1040
0.0
1040
0.0
1040
0.0
1040
0.1
1040
0.1
1040
0.1
1040
0.1
1070
0
1002
{
1002
}
1002
}
  0
SOLID
 62
255
  8
0
 10
1.25
 20
1.25
 30
0.0
 11
5.0
 21
0.5
 31
0.0
 13
3.375
 23
3.375
 33
0.0
 12
3.375
 22
3.375
 32
0.0
  0
SOLID
 62
255
  8
0
 10
0.0
 20
7.0
 30
0.0
 11
3.375
 21
3.375
 31
0.0
 13
8.25
 23
8.25
 33
0.0
 12
8.25
 22
8.25
 32
0.0
  0
SOLID
 62
255
  8
0
 10
3.375
 20
3.375
 30
0.0
 11
0.0
 21
7.0
 31
0.0
 13
1.25
 23
1.25
 33
0.0
 12
1.25
 22
1.25
 32
0.0
  0
SOLID
 62
255
  8
0
 10
5.0
 20
0.5
 30
0.0
 11
9.0
 21
2.25
 31
0.0
 13
3.375
 23
3.375
 33
0.0
 12
3.375
 22
3.375
 32
0.0
  0
SOLID
 62
255
  8
0
 10
9.0
 20
2.25
 30
0.0
 11
10.0
 21
1.0
 31
0.0
 13
9.0
 23
9.0
 33
0.0
 12
9.0
 22
9.0
 32
0.0
  0
SOLID
 62
255
  8
0
 10
10.0
 20
1.0
 30
0.0
 11
9.0
 21
2.25
 31
0.0
 13
5.0
 23
0.5
 33
0.0
 12
5.0
 22
0.5
 32
0.0
  0
SOLID
 62
255
  8
0
 10
8.25
 20
8.25
 30
0.0
 11
9.0
 21
9.0
 31
0.0
 13
0.0
 23
7.0
 33
0.0
 12
0.0
 22
7.0
 32
0.0
  0
SOLID
 62
255
  8
0
 10
9.0
 20
9.0
 30
0.0
 11
8.25
 21
8.25
 31
0.0
 13
9.0
 23
2.25
 33
0.0
 12
9.0
 22
2.25
 32
0.0
  0
SOLID
 62
255
  8
0
 10
9.0
 20
2.25
 30
0.0
 11
8.25
 21
8.25
 31
0.0
 13
3.375
 23
3.375
 33
0.0
 12
3.375
 22
3.375
 32
0.0
  0
SOLID
 62
68
  8
0
 10
0.0
 20
0.0
 30
0.0
 11
1.25
 21
1.25
 31
0.0
 13
0.0
 23
7.0
 33
0.0
 12
0.0
 22
7.0
 32
0.0
  0
SOLID
 62
68
  8
0
 10
1.25
 20
1.25
 30
0.0
 11
0.0
 21
0.0
 31
0.0
 13
5.0
 23
0.5
 33
0.0
 12
5.0
 22
0.5
 32
0.0
  0
SOLID
 62
68
  8
0
 10
0.0
 20
7.0
 30
0.0
 11
3.375
 21
3.375
 31
0.0
 13
2.0
 23
6.66666666667
 33
0.0
 12
2.0
 22
6.66666666667
 32
0.0
  0
SOLID
 62
68
  8
0
 10
3.375
 20
3.375
 30
0.0
 11
0.0
 21
7.0
 31
0.0
 13
1.25
 23
1.25
 33
0.0
 12
1.25
 22
1.25
 32
0.0
  0
SOLID
 62
68
  8
0
 10
2.0
 20
6.66666666667
 30
0.0
 11
3.375
 21
3.375
 31
0.0
 13
4.25
 23
4.25
 33
0.0
 12
4.25
 22
4.25
 32
0.0
  0
SOLID
 62
68
  8
0
 10
0.0
 20
7.0
 30
0.0
 11
2.0
 21
6.66666666667
 31
0.0
 13
8.25
 23
8.25
 33
0.0
 12
8.25
 22
8.25
 32
0.0
  0
SOLID
 62
68
  8
0
 10
1.25
 20
1.25
 30
0.0
 11
5.0
 21
0.5
 31
0.0
 13
3.375
 23
3.375
 33
0.0
 12
3.375
 22
3.375
 32
0.0
  0
SOLID
 62
68
  8
0
 10
5.0
 20
0.5
 30
0.0
 11
9.0
 21
2.25
 31
0.0
 13
8.0
 23
3.5
 33
0.0
 12
8.0
 22
3.5
 32
0.0
  0
SOLID
 62
68
  8
0
 10
8.0
 20
3.5
 30
0.0
 11
9.0
 21
2.25
 31
0.0
 13
8.25
 23
8.25
 33
0.0
 12
8.25
 22
8.25
 32
0.0
  0
SOLID
 62
68
  8
0
 10
5.0
 20
0.5
 30
0.0
 11
8.0
 21
3.5
 31
0.0
 13
4.25
 23
4.25
 33
0.0
 12
4.25
 22
4.25
 32
0.0
  0
SOLID
 62
68
  8
0
 10
4.25
 20
4.25
 30
0.0
 11
7.5
 21
7.5
 31
0.0
 13
2.0
 23
6.66666666667
 33
0.0
 12
2.0
 22
6.66666666667
 32
0.0
  0
SOLID
 62
68
  8
0
 10
7.5
 20
7.5
 30
0.0
 11
4.25
 21
4.25
 31
0.0
 13
8.0
 23
3.5
 33
0.0
 12
8.0
 22
3.5
 32
0.0
  0
SOLID
 62
68
  8
0
 10
8.25
 20
8.25
 30
0.0
 11
7.5
 21
7.5
 31
0.0
 13
8.0
 23
3.5
 33
0.0
 12
8.0
 22
3.5
 32
0.0
  0
SOLID
 62
68
  8
0
 10
7.5
 20
7.5
 30
0.0
 11
8.25
 21
8.25
 31
0.0
 13
2.0
 23
6.66666666667
 33
0.0
 12
2.0
 22
6.66666666667
 32
0.0
  0
SOLID
 62
68
  8
0
 10
5.0
 20
0.5
 30
0.0
 11
4.25
 21
4.25
 31
0.0
 13
3.375
 23
3.375
 33
0.0
 12
3.375
 22
3.375
 32
0.0
  0
SOLID
 62
34
  8
0
 10
4.25
 20
4.25
 30
0.0
 11
5.125
 21
5.125
 31
0.0
 13
4.0
 23
6.33333333333
 33
0.0
 12
4.0
 22
6.33333333333
 32
0.0
  0
SOLID
 62
34
  8
0
 10
5.125
 20
5.125
 30
0.0
 11
4.25
 21
4.25
 31
0.0
 13
7.0
 23
4.75
 33
0.0
 12
7.0
 22
4.75
 32
0.0
  0
SOLID
 62
34
  8
0
 10
2.0
 20
6.66666666667
 30
0.0
 11
4.0
 21
6.33333333333
 31
0.0
 13
7.5
 23
7.5
 33
0.0
 12
7.5
 22
7.5
 32
0.0
  0
SOLID
 62
34
  8
0
 10
4.0
 20
6.33333333333
 30
0.0
 11
2.0
 21
6.66666666667
 31
0.0
 13
4.25
 23
4.25
 33
0.0
 12
4.25
 22
4.25
 32
0.0
  0
SOLID
 62
34
  8
0
 10
5.125
 20
5.125
 30
0.0
 11
6.75
 21
6.75
 31
0.0
 13
4.0
 23
6.33333333333
 33
0.0
 12
4.0
 22
6.33333333333
 32
0.0
  0
SOLID
 62
34
  8
0
 10
7.0
 20
4.75
 30
0.0
 11
8.0
 21
3.5
 31
0.0
 13
7.5
 23
7.5
 33
0.0
 12
7.5
 22
7.5
 32
0.0
  0
SOLID
 62
34
  8
0
 10
8.0
 20
3.5
 30
0.0
 11
7.0
 21
4.75
 31
0.0
 13
4.25
 23
4.25
 33
0.0
 12
4.25
 22
4.25
 32
0.0
  0
SOLID
 62
34
  8
0
 10
6.75
 20
6.75
 30
0.0
 11
7.5
 21
7.5
 31
0.0
 13
4.0
 23
6.33333333333
 33
0.0
 12
4.0
 22
6.33333333333
 32
0.0
  0
SOLID
 62
34
  8
0
 10
7.5
 20
7.5
 30
0.0
 11
6.75
 21
6.75
 31
0.0
 13
7.0
 23
4.75
 33
0.0
 12
7.0
 22
4.75
 32
0.0
  0
SOLID
 62
34
  8
0
 10
7.0
 20
4.75
 30
0.0
 11
6.75
 21
6.75
 31
0.0
 13
5.125
 23
5.125
 33
0.0
 12
5.125
 22
5.125
 32
0.0
  0
ENDSEC
  0
EOF
