  0
SECTION
  2
HEADER
  9
$ACADVER
  1
AC1018
  9
$ACADMAINTVER
 70
104
  9
$DWGCODEPAGE
  3
ANSI_1252
  9
$LASTSAVEDBY
  1
unknown
  9
$INSBASE
 10
0.0
 20
0.0
 30
0.0
  9
$EXTMIN
 10
1e+20
 20
1e+20
 30
1e+20
  9
$EXTMAX
 10
-1e+20
 20
-1e+20
 30
-1e+20
  9
$LIMMIN
 10
0.0
 20
0.0
  9
$LIMMAX
 10
12.0
 20
9.0
  9
$ORTHOMODE
 70
0
  9
$REGENMODE
 70
1
  9
$FILLMODE
 70
1
  9
$QTEXTMODE
 70
0
  9
$MIRRTEXT
 70
0
  9
$LTSCALE
 40
1.0
  9
$ATTMODE
 70
1
  9
$TEXTSIZE
 40
0.2
  9
$TRACEWID
 40
0.05
  9
$TEXTSTYLE
  7
Notes
  9
$CLAYER
  8
0
  9
$CELTYPE
  6
ByLayer
  9
$CECOLOR
 62
256
  9
$CELTSCALE
 40
1.0
  9
$DISPSILH
 70
0
  9
$DIMSCALE
 40
1.0
  9
$DIMASZ
 40
3.0
  9
$DIMEXO
 40
1.5
  9
$DIMDLI
 40
6.0
  9
$DIMRND
 40
0.0
  9
$DIMDLE
 40
0.0
  9
$DIMEXE
 40
3.0
  9
$DIMTP
 40
0.0
  9
$DIMTM
 40
0.0
  9
$DIMTXT
 40
3.0
  9
$DIMCEN
 40
3.0
  9
$DIMTSZ
 40
0.0
  9
$DIMTOL
 70
0
  9
$DIMLIM
 70
0
  9
$DIMTIH
 70
0
  9
$DIMTOH
 70
0
  9
$DIMSE1
 70
0
  9
$DIMSE2
 70
0
  9
$DIMTAD
 70
1
  9
$DIMZIN
 70
3
  9
$DIMBLK
  1

  9
$DIMASO
 70
1
  9
$DIMSHO
 70
1
  9
$DIMPOST
  1

  9
$DIMAPOST
  1

  9
$DIMALT
 70
0
  9
$DIMALTD
 70
2
  9
$DIMALTF
 40
25.4
  9
$DIMLFAC
 40
1.0
  9
$DIMTOFL
 70
0
  9
$DIMTVP
 40
0.0
  9
$DIMTIX
 70
0
  9
$DIMSOXD
 70
0
  9
$DIMSAH
 70
0
  9
$DIMBLK1
  1

  9
$DIMBLK2
  1

  9
$DIMSTYLE
  2
Civil-Metric
  9
$DIMCLRD
 70
0
  9
$DIMCLRE
 70
0
  9
$DIMCLRT
 70
0
  9
$DIMTFAC
 40
1.0
  9
$DIMGAP
 40
2.0
  9
$DIMJUST
 70
0
  9
$DIMSD1
 70
0
  9
$DIMSD2
 70
0
  9
$DIMTOLJ
 70
1
  9
$DIMTZIN
 70
0
  9
$DIMALTZ
 70
0
  9
$DIMALTTZ
 70
0
  9
$DIMUPT
 70
0
  9
$DIMDEC
 70
2
  9
$DIMTDEC
 70
2
  9
$DIMALTU
 70
2
  9
$DIMALTTD
 70
2
  9
$DIMTXSTY
  7
Standard
  9
$DIMAUNIT
 70
0
  9
$DIMADEC
 70
2
  9
$DIMALTRND
 40
0.0
  9
$DIMAZIN
 70
2
  9
$DIMDSEP
 70
46
  9
$DIMATFIT
 70
3
  9
$DIMFRAC
 70
1
  9
$DIMLDRBLK
  1

  9
$DIMLUNIT
 70
2
  9
$DIMLWD
 70
-2
  9
$DIMLWE
 70
-2
  9
$DIMTMOVE
 70
0
  9
$LUNITS
 70
2
  9
$LUPREC
 70
4
  9
$SKETCHINC
 40
0.1
  9
$FILLETRAD
 40
0.0
  9
$AUNITS
 70
4
  9
$AUPREC
 70
5
  9
$MENU
  1
.
  9
$ELEVATION
 40
0.0
  9
$PELEVATION
 40
0.0
  9
$THICKNESS
 40
0.0
  9
$LIMCHECK
 70
0
  9
$CHAMFERA
 40
0.0
  9
$CHAMFERB
 40
0.0
  9
$CHAMFERC
 40
0.0
  9
$CHAMFERD
 40
0.0
  9
$SKPOLY
 70
0
  9
$TDCREATE
 40
2457546.48568
  9
$TDUPDATE
 40
2457546.48568
  9
$TDINDWG
 40
0.0
  9
$TDUSRTIMER
 40
0.0
  9
$USRTIMER
 70
1
  9
$ANGBASE
 50
0.0
  9
$ANGDIR
 70
0
  9
$PDMODE
 70
0
  9
$PDSIZE
 40
0.0
  9
$PLINEWID
 40
0.0
  9
$SPLFRAME
 70
0
  9
$SPLINETYPE
 70
6
  9
$SPLINESEGS
 70
8
  9
$HANDSEED
  5
637
  9
$SURFTAB1
 70
6
  9
$SURFTAB2
 70
6
  9
$SURFTYPE
 70
6
  9
$SURFU
 70
6
  9
$SURFV
 70
6
  9
$UCSBASE
  2

  9
$UCSNAME
  2

  9
$UCSORG
 10
0.0
 20
0.0
 30
0.0
  9
$UCSXDIR
 10
1.0
 20
0.0
 30
0.0
  9
$UCSYDIR
 10
0.0
 20
1.0
 30
0.0
  9
$UCSORTHOREF
  2

  9
$UCSORTHOVIEW
 70
0
  9
$UCSORGTOP
 10
0.0
 20
0.0
 30
0.0
  9
$UCSORGBOTTOM
 10
0.0
 20
0.0
 30
0.0
  9
$UCSORGLEFT
 10
0.0
 20
0.0
 30
0.0
  9
$UCSORGRIGHT
 10
0.0
 20
0.0
 30
0.0
  9
$UCSORGFRONT
 10
0.0
 20
0.0
 30
0.0
  9
$UCSORGBACK
 10
0.0
 20
0.0
 30
0.0
  9
$PUCSBASE
  2

  9
$PUCSNAME
  2

  9
$PUCSORG
 10
0.0
 20
0.0
 30
0.0
  9
$PUCSXDIR
 10
1.0
 20
0.0
 30
0.0
  9
$PUCSYDIR
 10
0.0
 20
1.0
 30
0.0
  9
$PUCSORTHOREF
  2

  9
$PUCSORTHOVIEW
 70
0
  9
$PUCSORGTOP
 10
0.0
 20
0.0
 30
0.0
  9
$PUCSORGBOTTOM
 10
0.0
 20
0.0
 30
0.0
  9
$PUCSORGLEFT
 10
0.0
 20
0.0
 30
0.0
  9
$PUCSORGRIGHT
 10
0.0
 20
0.0
 30
0.0
  9
$PUCSORGFRONT
 10
0.0
 20
0.0
 30
0.0
  9
$PUCSORGBACK
 10
0.0
 20
0.0
 30
0.0
  9
$USERI1
 70
0
  9
$USERI2
 70
0
  9
$USERI3
 70
0
  9
$USERI4
 70
0
  9
$USERI5
 70
0
  9
$USERR1
 40
0.0
  9
$USERR2
 40
0.0
  9
$USERR3
 40
0.0
  9
$USERR4
 40
0.0
  9
$USERR5
 40
0.0
  9
$WORLDVIEW
 70
1
  9
$SHADEDGE
 70
3
  9
$SHADEDIF
 70
70
  9
$TILEMODE
 70
1
  9
$MAXACTVP
 70
64
  9
$PINSBASE
 10
0.0
 20
0.0
 30
0.0
  9
$PLIMCHECK
 70
0
  9
$PEXTMIN
 10
0.628866766397
 20
0.799999952316
 30
0.0
  9
$PEXTMAX
 10
9.02886638493
 20
7.19999957085
 30
0.0
  9
$PLIMMIN
 10
-0.700541819174
 20
-0.228100386192
  9
$PLIMMAX
 10
10.2994579405
 20
8.27189937351
  9
$UNITMODE
 70
0
  9
$VISRETAIN
 70
1
  9
$PLINEGEN
 70
0
  9
$PSLTSCALE
 70
1
  9
$TREEDEPTH
 70
3020
  9
$CMLSTYLE
  2
Standard
  9
$CMLJUST
 70
0
  9
$CMLSCALE
 40
1.0
  9
$PROXYGRAPHICS
 70
1
  9
$MEASUREMENT
 70
1
  9
$CELWEIGHT
370
-1
  9
$ENDCAPS
280
0
  9
$JOINSTYLE
280
0
  9
$LWDISPLAY
290
0
  9
$INSUNITS
 70
4
  9
$HYPERLINKBASE
  1

  9
$STYLESHEET
  1

  9
$XEDIT
290
1
  9
$CEPSNTYPE
380
0
  9
$PSTYLEMODE
290
1
  9
$FINGERPRINTGUID
  2
{39DB1BDD-BC6C-46D3-A333-DFCC0DC4782D}
  9
$VERSIONGUID
  2
{69EEBB2D-7039-498F-9366-3F994E4A07E7}
  9
$EXTNAMES
290
1
  9
$PSVPSCALE
 40
0.0
  9
$OLESTARTUP
290
0
  9
$SORTENTS
280
127
  9
$INDEXCTL
280
0
  9
$HIDETEXT
280
1
  9
$XCLIPFRAME
290
0
  9
$HALOGAP
280
0
  9
$OBSCOLOR
 70
257
  9
$OBSLTYPE
280
0
  9
$INTERSECTIONDISPLAY
280
0
  9
$INTERSECTIONCOLOR
 70
257
  9
$DIMASSOC
280
2
  9
$PROJECTNAME
  1

  0
ENDSEC
  0
SECTION
  2
CLASSES
  0
CLASS
  1
ACDBDICTIONARYWDFLT
  2
AcDbDictionaryWithDefault
  3
ObjectDBX Classes
 90
0
 91
1
280
0
281
0
  0
CLASS
  1
DICTIONARYVAR
  2
AcDbDictionaryVar
  3
ObjectDBX Classes
 90
0
 91
13
280
0
281
0
  0
CLASS
  1
TABLESTYLE
  2
AcDbTableStyle
  3
ObjectDBX Classes
 90
4095
 91
1
280
0
281
0
  0
CLASS
  1
MATERIAL
  2
AcDbMaterial
  3
ObjectDBX Classes
 90
1153
 91
3
280
0
281
0
  0
CLASS
  1
VISUALSTYLE
  2
AcDbVisualStyle
  3
ObjectDBX Classes
 90
4095
 91
19
280
0
281
0
  0
CLASS
  1
SCALE
  2
AcDbScale
  3
ObjectDBX Classes
 90
1153
 91
17
280
0
281
0
  0
CLASS
  1
MLEADERSTYLE
  2
AcDbMLeaderStyle
  3
ACDB_MLEADERSTYLE_CLASS
 90
4095
 91
3
280
0
281
0
  0
CLASS
  1
CELLSTYLEMAP
  2
AcDbCellStyleMap
  3
ObjectDBX Classes
 90
1152
 91
3
280
0
281
0
  0
CLASS
  1
EXACXREFPANELOBJECT
  2
ExAcXREFPanelObject
  3
EXAC_ESW
 90
1025
 91
0
280
0
281
0
  0
CLASS
  1
NPOCOLLECTION
  2
AcDbImpNonPersistentObjectsCollection
  3
ObjectDBX Classes
 90
1153
 91
0
280
0
281
0
  0
CLASS
  1
LAYER_INDEX
  2
AcDbLayerIndex
  3
ObjectDBX Classes
 90
0
 91
0
280
0
281
0
  0
CLASS
  1
SPATIAL_INDEX
  2
AcDbSpatialIndex
  3
ObjectDBX Classes
 90
0
 91
0
280
0
281
0
  0
CLASS
  1
IDBUFFER
  2
AcDbIdBuffer
  3
ObjectDBX Classes
 90
0
 91
0
280
0
281
0
  0
CLASS
  1
DIMASSOC
  2
AcDbDimAssoc
  3
"AcDbDimAssoc|Product Desc:     AcDim ARX App For Dimension|Company:          Autodesk, Inc.|WEB Address:      www.autodesk.com"
 90
0
 91
0
280
0
281
0
  0
ENDSEC
  0
SECTION
  2
TABLES
  0
TABLE
  2
VPORT
  5
8
330
0
100
AcDbSymbolTable
 70
1
  0
VPORT
  5
94
330
8
100
AcDbSymbolTableRecord
100
AcDbViewportTableRecord
  2
*Active
 70
0
 10
0.0
 20
0.0
 11
1.0
 21
1.0
 12
68.739728658
 22
49.8327539172
 13
0.0
 23
0.0
 14
0.5
 24
0.5
 15
0.5
 25
0.5
 16
0.0
 26
0.0
 36
1.0
 17
0.0
 27
0.0
 37
0.0
 40
69.0394603599
 41
1.34117647059
 42
50.0
 43
0.0
 44
0.0
 50
0.0
 51
0.0
 71
0
 72
1000
 73
1
 74
3
 75
0
 76
0
 77
0
 78
0
281
0
 65
1
110
0.0
120
0.0
130
0.0
111
1.0
121
0.0
131
0.0
112
0.0
122
1.0
132
0.0
 79
0
146
0.0
  0
ENDTAB
  0
TABLE
  2
LTYPE
  5
5
330
0
100
AcDbSymbolTable
 70
7
  0
LTYPE
  5
14
330
5
100
AcDbSymbolTableRecord
100
AcDbLinetypeTableRecord
  2
ByBlock
 70
0
  3

 72
65
 73
0
 40
0.0
  0
LTYPE
  5
15
330
5
100
AcDbSymbolTableRecord
100
AcDbLinetypeTableRecord
  2
ByLayer
 70
0
  3

 72
65
 73
0
 40
0.0
  0
LTYPE
  5
16
330
5
100
AcDbSymbolTableRecord
100
AcDbLinetypeTableRecord
  2
Continuous
 70
0
  3
Solid line
 72
65
 73
0
 40
0.0
  0
LTYPE
  5
1B1
330
5
100
AcDbSymbolTableRecord
100
AcDbLinetypeTableRecord
  2
CENTER
 70
0
  3
Center ____ _ ____ _ ____ _ ____ _ ____ _ ____
 72
65
 73
4
 40
2.0
 49
1.25
 74
0
 49
-0.25
 74
0
 49
0.25
 74
0
 49
-0.25
 74
0
  0
LTYPE
  5
1B2
330
5
100
AcDbSymbolTableRecord
100
AcDbLinetypeTableRecord
  2
DASHED
 70
0
  3
Dashed __ __ __ __ __ __ __ __ __ __ __ __ __ _
 72
65
 73
2
 40
0.75
 49
0.5
 74
0
 49
-0.25
 74
0
  0
LTYPE
  5
1B3
330
5
100
AcDbSymbolTableRecord
100
AcDbLinetypeTableRecord
  2
PHANTOM
 70
0
  3
Phantom ______  __  __  ______  __  __  ______
 72
65
 73
6
 40
2.5
 49
1.25
 74
0
 49
-0.25
 74
0
 49
0.25
 74
0
 49
-0.25
 74
0
 49
0.25
 74
0
 49
-0.25
 74
0
  0
LTYPE
  5
39E
330
5
100
AcDbSymbolTableRecord
100
AcDbLinetypeTableRecord
  2
HIDDEN
 70
0
  3
Hidden __ __ __ __ __ __ __ __ __ __ __ __ __ __
 72
65
 73
2
 40
9.525
 49
6.35
 74
0
 49
-3.175
 74
0
  0
ENDTAB
  0
TABLE
  2
LAYER
  5
2
102
{ACAD_XDICTIONARY
360
2A2
102
}
330
0
100
AcDbSymbolTable
 70
3
  0
LAYER
  5
10
102
{ACAD_XDICTIONARY
360
E6
102
}
330
2
100
AcDbSymbolTableRecord
100
AcDbLayerTableRecord
  2
0
 70
0
 62
7
  6
Continuous
370
-3
390
F
  0
LAYER
  5
1B4
330
2
100
AcDbSymbolTableRecord
100
AcDbLayerTableRecord
  2
View Port
 70
0
 62
7
  6
Continuous
290
0
370
-3
390
F
1001
AcAecLayerStandard
1000

1000
View Ports, set to Not Plot
  0
LAYER
  5
21D
330
2
100
AcDbSymbolTableRecord
100
AcDbLayerTableRecord
  2
Defpoints
 70
0
 62
7
  6
Continuous
290
0
370
-3
390
F
  0
ENDTAB
  0
TABLE
  2
STYLE
  5
3
330
0
100
AcDbSymbolTable
 70
3
  0
STYLE
  5
11
330
3
100
AcDbSymbolTableRecord
100
AcDbTextStyleTableRecord
  2
Standard
 70
0
 40
0.0
 41
1.0
 50
0.0
 71
0
 42
0.2
  3
arial.ttf
  4

1001
ACAD
1000
Arial
1071
34
  0
STYLE
  5
DC
330
3
100
AcDbSymbolTableRecord
100
AcDbTextStyleTableRecord
  2
Annotative
 70
0
 40
0.0
 41
1.0
 50
0.0
 71
0
 42
0.2
  3
arial.ttf
  4

1001
AcadAnnotative
1000
AnnotativeData
1002
{
1070
1
1070
1
1002
}
1001
ACAD
1000
Arial
1071
34
  0
STYLE
  5
178
330
3
100
AcDbSymbolTableRecord
100
AcDbTextStyleTableRecord
  2
Notes
 70
0
 40
3.0
 41
1.0
 50
0.0
 71
0
 42
0.2
  3
arial.ttf
  4

1001
AcadAnnotative
1000
AnnotativeData
1002
{
1070
1
1070
1
1002
}
1001
AcadAnnoPO
1070
1
1001
ACAD
1000
Arial
1071
34
  0
ENDTAB
  0
TABLE
  2
VIEW
  5
6
330
0
100
AcDbSymbolTable
 70
0
  0
ENDTAB
  0
TABLE
  2
UCS
  5
7
330
0
100
AcDbSymbolTable
 70
0
  0
ENDTAB
  0
TABLE
  2
APPID
  5
9
330
0
100
AcDbSymbolTable
 70
11
  0
APPID
  5
12
330
9
100
AcDbSymbolTableRecord
100
AcDbRegAppTableRecord
  2
ACAD
 70
0
  0
APPID
  5
DD
330
9
100
AcDbSymbolTableRecord
100
AcDbRegAppTableRecord
  2
AcadAnnoPO
 70
0
  0
APPID
  5
DE
330
9
100
AcDbSymbolTableRecord
100
AcDbRegAppTableRecord
  2
AcadAnnotative
 70
0
  0
APPID
  5
DF
330
9
100
AcDbSymbolTableRecord
100
AcDbRegAppTableRecord
  2
ACAD_DSTYLE_DIMJAG
 70
0
  0
APPID
  5
E0
330
9
100
AcDbSymbolTableRecord
100
AcDbRegAppTableRecord
  2
ACAD_DSTYLE_DIMTALN
 70
0
  0
APPID
  5
107
330
9
100
AcDbSymbolTableRecord
100
AcDbRegAppTableRecord
  2
ACAD_MLEADERVER
 70
0
  0
APPID
  5
1B5
330
9
100
AcDbSymbolTableRecord
100
AcDbRegAppTableRecord
  2
AcAecLayerStandard
 70
0
  0
APPID
  5
1BA
330
9
100
AcDbSymbolTableRecord
100
AcDbRegAppTableRecord
  2
ACAD_EXEMPT_FROM_CAD_STANDARDS
 70
0
  0
APPID
  5
237
330
9
100
AcDbSymbolTableRecord
100
AcDbRegAppTableRecord
  2
ACAD_DSTYLE_DIMBREAK
 70
0
  0
APPID
  5
28E
330
9
100
AcDbSymbolTableRecord
100
AcDbRegAppTableRecord
  2
ACAD_PSEXT
 70
0
  0
APPID
  5
636
330
9
100
AcDbSymbolTableRecord
100
AcDbRegAppTableRecord
  2
HATCHBACKGROUNDCOLOR
 70
0
  0
ENDTAB
  0
TABLE
  2
DIMSTYLE
  5
A
330
0
100
AcDbSymbolTable
 70
3
100
AcDbDimStyleTable
 71
3
340
242
340
27
340
E1
  0
DIMSTYLE
105
27
330
A
100
AcDbSymbolTableRecord
100
AcDbDimStyleTableRecord
  2
Standard
 70
0
 41
3.0
 42
2.0
 43
9.0
 44
5.0
140
3.0
141
2.0
147
2.0
340
11
1001
ACAD_DSTYLE_DIMJAG
1070
388
1040
38.0
1001
ACAD_DSTYLE_DIMBREAK
1070
391
1040
90.0
1001
ACAD_DSTYLE_DIMTALN
1070
392
1070
0
  0
DIMSTYLE
105
E1
330
A
100
AcDbSymbolTableRecord
100
AcDbDimStyleTableRecord
  2
Annotative
 70
0
 40
0.0
 41
3.0
 42
2.5
 43
10.0
 44
5.0
140
3.0
141
2.0
147
2.0
340
11
1001
AcadAnnotative
1000
AnnotativeData
1002
{
1070
1
1070
1
1002
}
1001
ACAD_DSTYLE_DIMJAG
1070
388
1040
38.0
1001
ACAD_DSTYLE_DIMBREAK
1070
391
1040
90.0
1001
ACAD_DSTYLE_DIMTALN
1070
392
1070
0
  0
DIMSTYLE
105
242
330
A
100
AcDbSymbolTableRecord
100
AcDbDimStyleTableRecord
  2
Civil-Metric
 70
0
 41
3.0
 42
1.5
 43
6.0
 44
3.0
 73
0
 74
0
 77
1
 78
3
 79
2
140
3.0
141
3.0
147
2.0
179
2
271
2
272
2
276
1
340
11
1001
ACAD_DSTYLE_DIMBREAK
1070
391
1040
3.0
1001
ACAD_DSTYLE_DIMJAG
1070
388
1040
38.0
1001
ACAD_DSTYLE_DIMTALN
1070
392
1070
0
  0
ENDTAB
  0
TABLE
  2
BLOCK_RECORD
  5
1
330
0
100
AcDbSymbolTable
 70
4
  0
BLOCK_RECORD
  5
1F
102
{ACAD_XDICTIONARY
360
15D
102
}
330
1
100
AcDbSymbolTableRecord
100
AcDbBlockTableRecord
  2
*Model_Space
340
22
  0
BLOCK_RECORD
  5
58
330
1
100
AcDbSymbolTableRecord
100
AcDbBlockTableRecord
  2
*Paper_Space
340
59
  0
BLOCK_RECORD
  5
238
330
1
100
AcDbSymbolTableRecord
100
AcDbBlockTableRecord
  2
_ArchTick
340
0
  0
BLOCK_RECORD
  5
23C
330
1
100
AcDbSymbolTableRecord
100
AcDbBlockTableRecord
  2
_Open30
340
0
  0
ENDTAB
  0
ENDSEC
  0
SECTION
  2
BLOCKS
  0
BLOCK
  5
240
330
23C
100
AcDbEntity
  8
0
100
AcDbBlockBegin
  2
_Open30
 70
0
 10
0.0
 20
0.0
 30
0.0
  3
_Open30
  1

  0
LINE
  5
23D
330
23C
100
AcDbEntity
  8
0
  6
ByBlock
 62
0
370
-2
100
AcDbLine
 10
-1.0
 20
0.26794919
 30
0.0
 11
0.0
 21
0.0
 31
0.0
  0
LINE
  5
23E
330
23C
100
AcDbEntity
  8
0
  6
ByBlock
 62
0
370
-2
100
AcDbLine
 10
0.0
 20
0.0
 30
0.0
 11
-1.0
 21
-0.26794919
 31
0.0
  0
LINE
  5
23F
330
23C
100
AcDbEntity
  8
0
  6
ByBlock
 62
0
370
-2
100
AcDbLine
 10
0.0
 20
0.0
 30
0.0
 11
-1.0
 21
0.0
 31
0.0
  0
ENDBLK
  5
241
330
23C
100
AcDbEntity
  8
0
100
AcDbBlockEnd
  0
BLOCK
  5
20
330
1F
100
AcDbEntity
  8
0
100
AcDbBlockBegin
  2
*Model_Space
 70
0
 10
0.0
 20
0.0
 30
0.0
  3
*Model_Space
  1

  0
ENDBLK
  5
21
330
1F
100
AcDbEntity
  8
0
100
AcDbBlockEnd
  0
BLOCK
  5
5A
330
58
100
AcDbEntity
 67
1
  8
0
100
AcDbBlockBegin
  2
*Paper_Space
 70
0
 10
0.0
 20
0.0
 30
0.0
  3
*Paper_Space
  1

  0
ENDBLK
  5
5B
330
58
100
AcDbEntity
 67
1
  8
0
100
AcDbBlockEnd
  0
BLOCK
  5
23A
330
238
100
AcDbEntity
  8
0
100
AcDbBlockBegin
  2
_ArchTick
 70
0
 10
0.0
 20
0.0
 30
0.0
  3
_ArchTick
  1

  0
LWPOLYLINE
  5
239
330
238
100
AcDbEntity
  8
0
  6
ByBlock
 62
0
100
AcDbPolyline
 90
2
 70
0
 43
0.15
 10
-0.5
 20
-0.5
 10
0.5
 20
0.5
  0
ENDBLK
  5
23B
330
238
100
AcDbEntity
  8
0
100
AcDbBlockEnd
  0
ENDSEC
  0
SECTION
  2
ENTITIES
  0
LINE
  5
49A
330
1F
100
AcDbEntity
  8
frame
 67
0
100
AcDbLine
 10
0.0
 20
306.0
 11
8.43614248338
 21
306.0
  0
LINE
  5
49B
330
1F
100
AcDbEntity
  8
frame
 67
0
100
AcDbLine
 10
8.43614248338
 20
306.0
 11
8.43614248338
 21
310.0
  0
LINE
  5
49C
330
1F
100
AcDbEntity
  8
frame
 67
0
100
AcDbLine
 10
0.0
 20
306.0
 11
0.0
 21
310.0
  0
LINE
  5
49D
330
1F
100
AcDbEntity
  8
frame
 67
0
100
AcDbLine
 10
0.0
 20
310.0
 11
8.43614248338
 21
310.0
  0
LINE
  5
49E
330
1F
100
AcDbEntity
  8
profile
 67
0
100
AcDbLine
 10
0.0
 20
308.88
 11
0.834741709715
 21
308.69
  0
LINE
  5
49F
330
1F
100
AcDbEntity
  8
profile
 67
0
100
AcDbLine
 10
0.834741709715
 20
308.69
 11
2.7326589191
 21
307.11
  0
LINE
  5
4A0
330
1F
100
AcDbEntity
  8
profile
 67
0
100
AcDbLine
 10
2.7326589191
 20
307.11
 11
2.90006955763
 21
306.95
  0
LINE
  5
4A1
330
1F
100
AcDbEntity
  8
profile
 67
0
100
AcDbLine
 10
2.90006955763
 20
306.95
 11
2.90458583983
 21
306.8
  0
LINE
  5
4A2
330
1F
100
AcDbEntity
  8
profile
 67
0
100
AcDbLine
 10
2.90458583983
 20
306.8
 11
3.91190642701
 21
306.75
  0
LINE
  5
4A3
330
1F
100
AcDbEntity
  8
profile
 67
0
100
AcDbLine
 10
3.91190642701
 20
306.75
 11
5.22564668472
 21
306.79
  0
LINE
  5
4A4
330
1F
100
AcDbEntity
  8
profile
 67
0
100
AcDbLine
 10
5.22564668472
 20
306.79
 11
5.78618724093
 21
307.27
  0
LINE
  5
4A5
330
1F
100
AcDbEntity
  8
profile
 67
0
100
AcDbLine
 10
5.78618724093
 20
307.27
 11
7.41441957899
 21
309.41
  0
LINE
  5
4A6
330
1F
100
AcDbEntity
  8
profile
 67
0
100
AcDbLine
 10
7.41441957899
 20
309.41
 11
8.43614248338
 21
309.54
  0
LINE
  5
4A7
330
1F
100
AcDbEntity
  8
frame
 67
0
100
AcDbLine
 10
0.0
 20
280.0
 11
22.4676144706
 21
280.0
  0
LINE
  5
4A8
330
1F
100
AcDbEntity
  8
frame
 67
0
100
AcDbLine
 10
22.4676144706
 20
280.0
 11
22.4676144706
 21
284.0
  0
LINE
  5
4A9
330
1F
100
AcDbEntity
  8
frame
 67
0
100
AcDbLine
 10
0.0
 20
280.0
 11
0.0
 21
284.0
  0
LINE
  5
4AA
330
1F
100
AcDbEntity
  8
frame
 67
0
100
AcDbLine
 10
0.0
 20
284.0
 11
22.4676144706
 21
284.0
  0
LINE
  5
4AB
330
1F
100
AcDbEntity
  8
profile
 67
0
100
AcDbLine
 10
0.0
 20
282.93
 11
4.45473194897
 21
283.14
  0
LINE
  5
4AC
330
1F
100
AcDbEntity
  8
profile
 67
0
100
AcDbLine
 10
4.45473194897
 20
283.14
 11
5.15765926782
 21
283.2
  0
LINE
  5
4AD
330
1F
100
AcDbEntity
  8
profile
 67
0
100
AcDbLine
 10
5.15765926782
 20
283.2
 11
6.49686241461
 21
283.19
  0
LINE
  5
4AE
330
1F
100
AcDbEntity
  8
profile
 67
0
100
AcDbLine
 10
6.49686241461
 20
283.19
 11
7.60997569295
 21
282.72
  0
LINE
  5
4AF
330
1F
100
AcDbEntity
  8
profile
 67
0
100
AcDbLine
 10
7.60997569295
 20
282.72
 11
9.08500100297
 21
281.93
  0
LINE
  5
4B0
330
1F
100
AcDbEntity
  8
profile
 67
0
100
AcDbLine
 10
9.08500100297
 20
281.93
 11
9.86265810683
 21
281.09
  0
LINE
  5
4B1
330
1F
100
AcDbEntity
  8
profile
 67
0
100
AcDbLine
 10
9.86265810683
 20
281.09
 11
10.2685044868
 21
281.07
  0
LINE
  5
4B2
330
1F
100
AcDbEntity
  8
profile
 67
0
100
AcDbLine
 10
10.2685044868
 20
281.07
 11
10.35337331
 21
280.99
  0
LINE
  5
4B3
330
1F
100
AcDbEntity
  8
profile
 67
0
100
AcDbLine
 10
10.35337331
 20
280.99
 11
10.9119194795
 21
280.95
  0
LINE
  5
4B4
330
1F
100
AcDbEntity
  8
profile
 67
0
100
AcDbLine
 10
10.9119194795
 20
280.95
 11
11.6189860896
 21
280.97
  0
LINE
  5
4B5
330
1F
100
AcDbEntity
  8
profile
 67
0
100
AcDbLine
 10
11.6189860896
 20
280.97
 11
12.8876788579
 21
282.48
  0
LINE
  5
4B6
330
1F
100
AcDbEntity
  8
profile
 67
0
100
AcDbLine
 10
12.8876788579
 20
282.48
 11
13.4632228266
 21
282.64
  0
LINE
  5
4B7
330
1F
100
AcDbEntity
  8
profile
 67
0
100
AcDbLine
 10
13.4632228266
 20
282.64
 11
15.8237716098
 21
283.08
  0
LINE
  5
4B8
330
1F
100
AcDbEntity
  8
profile
 67
0
100
AcDbLine
 10
15.8237716098
 20
283.08
 11
17.1472766058
 21
283.1
  0
LINE
  5
4B9
330
1F
100
AcDbEntity
  8
profile
 67
0
100
AcDbLine
 10
17.1472766058
 20
283.1
 11
18.3592566331
 21
282.84
  0
LINE
  5
4BA
330
1F
100
AcDbEntity
  8
profile
 67
0
100
AcDbLine
 10
18.3592566331
 20
282.84
 11
22.4676144706
 21
282.92
  0
LINE
  5
4BB
330
1F
100
AcDbEntity
  8
frame
 67
0
100
AcDbLine
 10
0.0
 20
255.0
 11
62.7834829053
 21
255.0
  0
LINE
  5
4BC
330
1F
100
AcDbEntity
  8
frame
 67
0
100
AcDbLine
 10
62.7834829053
 20
255.0
 11
62.7834829053
 21
258.0
  0
LINE
  5
4BD
330
1F
100
AcDbEntity
  8
frame
 67
0
100
AcDbLine
 10
0.0
 20
255.0
 11
0.0
 21
258.0
  0
LINE
  5
4BE
330
1F
100
AcDbEntity
  8
frame
 67
0
100
AcDbLine
 10
0.0
 20
258.0
 11
62.7834829053
 21
258.0
  0
LINE
  5
4BF
330
1F
100
AcDbEntity
  8
profile
 67
0
100
AcDbLine
 10
0.0
 20
257.09
 11
8.13746727119
 21
257.22
  0
LINE
  5
4C0
330
1F
100
AcDbEntity
  8
profile
 67
0
100
AcDbLine
 10
8.13746727119
 20
257.22
 11
15.1641566835
 21
257.23
  0
LINE
  5
4C1
330
1F
100
AcDbEntity
  8
profile
 67
0
100
AcDbLine
 10
15.1641566835
 20
257.23
 11
22.2130565336
 21
257.38
  0
LINE
  5
4C2
330
1F
100
AcDbEntity
  8
profile
 67
0
100
AcDbLine
 10
22.2130565336
 20
257.38
 11
30.4721594246
 21
257.87
  0
LINE
  5
4C3
330
1F
100
AcDbEntity
  8
profile
 67
0
100
AcDbLine
 10
30.4721594246
 20
257.87
 11
31.6820482037
 21
256.75
  0
LINE
  5
4C4
330
1F
100
AcDbEntity
  8
profile
 67
0
100
AcDbLine
 10
31.6820482037
 20
256.75
 11
32.6508728922
 21
255.56
  0
LINE
  5
4C5
330
1F
100
AcDbEntity
  8
profile
 67
0
100
AcDbLine
 10
32.6508728922
 20
255.56
 11
33.8815373727
 21
255.52
  0
LINE
  5
4C6
330
1F
100
AcDbEntity
  8
profile
 67
0
100
AcDbLine
 10
33.8815373727
 20
255.52
 11
34.9507973496
 21
256.23
  0
LINE
  5
4C7
330
1F
100
AcDbEntity
  8
profile
 67
0
100
AcDbLine
 10
34.9507973496
 20
256.23
 11
36.4619434978
 21
256.68
  0
LINE
  5
4C8
330
1F
100
AcDbEntity
  8
profile
 67
0
100
AcDbLine
 10
36.4619434978
 20
256.68
 11
38.4230358581
 21
257.51
  0
LINE
  5
4C9
330
1F
100
AcDbEntity
  8
profile
 67
0
100
AcDbLine
 10
38.4230358581
 20
257.51
 11
40.7822806654
 21
257.51
  0
LINE
  5
4CA
330
1F
100
AcDbEntity
  8
profile
 67
0
100
AcDbLine
 10
40.7822806654
 20
257.51
 11
52.9605697007
 21
257.24
  0
LINE
  5
4CB
330
1F
100
AcDbEntity
  8
profile
 67
0
100
AcDbLine
 10
52.9605697007
 20
257.24
 11
62.7834829053
 21
257.1
  0
LINE
  5
4CC
330
1F
100
AcDbEntity
  8
frame
 67
0
100
AcDbLine
 10
0.0
 20
230.0
 11
57.4717456439
 21
230.0
  0
LINE
  5
4CD
330
1F
100
AcDbEntity
  8
frame
 67
0
100
AcDbLine
 10
57.4717456439
 20
230.0
 11
57.4717456439
 21
233.0
  0
LINE
  5
4CE
330
1F
100
AcDbEntity
  8
frame
 67
0
100
AcDbLine
 10
0.0
 20
230.0
 11
0.0
 21
233.0
  0
LINE
  5
4CF
330
1F
100
AcDbEntity
  8
frame
 67
0
100
AcDbLine
 10
0.0
 20
233.0
 11
57.4717456439
 21
233.0
  0
LINE
  5
4D0
330
1F
100
AcDbEntity
  8
profile
 67
0
100
AcDbLine
 10
0.0
 20
231.38
 11
9.70660257992
 21
231.52
  0
LINE
  5
4D1
330
1F
100
AcDbEntity
  8
profile
 67
0
100
AcDbLine
 10
9.70660257992
 20
231.52
 11
19.631376801
 21
231.58
  0
LINE
  5
4D2
330
1F
100
AcDbEntity
  8
profile
 67
0
100
AcDbLine
 10
19.631376801
 20
231.58
 11
24.8593262178
 21
232.0
  0
LINE
  5
4D3
330
1F
100
AcDbEntity
  8
profile
 67
0
100
AcDbLine
 10
24.8593262178
 20
232.0
 11
26.0476656199
 21
232.12
  0
LINE
  5
4D4
330
1F
100
AcDbEntity
  8
profile
 67
0
100
AcDbLine
 10
26.0476656199
 20
232.12
 11
26.8153288667
 21
231.94
  0
LINE
  5
4D5
330
1F
100
AcDbEntity
  8
profile
 67
0
100
AcDbLine
 10
26.8153288667
 20
231.94
 11
27.2774628091
 21
231.77
  0
LINE
  5
4D6
330
1F
100
AcDbEntity
  8
profile
 67
0
100
AcDbLine
 10
27.2774628091
 20
231.77
 11
27.401229857
 21
231.6
  0
LINE
  5
4D7
330
1F
100
AcDbEntity
  8
profile
 67
0
100
AcDbLine
 10
27.401229857
 20
231.6
 11
27.8283909311
 21
230.79
  0
LINE
  5
4D8
330
1F
100
AcDbEntity
  8
profile
 67
0
100
AcDbLine
 10
27.8283909311
 20
230.79
 11
28.3354711603
 21
230.15
  0
LINE
  5
4D9
330
1F
100
AcDbEntity
  8
profile
 67
0
100
AcDbLine
 10
28.3354711603
 20
230.15
 11
28.9595786911
 21
230.13
  0
LINE
  5
4DA
330
1F
100
AcDbEntity
  8
profile
 67
0
100
AcDbLine
 10
28.9595786911
 20
230.13
 11
29.4615447974
 21
230.23
  0
LINE
  5
4DB
330
1F
100
AcDbEntity
  8
profile
 67
0
100
AcDbLine
 10
29.4615447974
 20
230.23
 11
30.6295858764
 21
230.3
  0
LINE
  5
4DC
330
1F
100
AcDbEntity
  8
profile
 67
0
100
AcDbLine
 10
30.6295858764
 20
230.3
 11
32.559060111
 21
231.11
  0
LINE
  5
4DD
330
1F
100
AcDbEntity
  8
profile
 67
0
100
AcDbLine
 10
32.559060111
 20
231.11
 11
33.7884267297
 21
231.76
  0
LINE
  5
4DE
330
1F
100
AcDbEntity
  8
profile
 67
0
100
AcDbLine
 10
33.7884267297
 20
231.76
 11
36.2395766544
 21
231.84
  0
LINE
  5
4DF
330
1F
100
AcDbEntity
  8
profile
 67
0
100
AcDbLine
 10
36.2395766544
 20
231.84
 11
46.5004689875
 21
231.61
  0
LINE
  5
4E0
330
1F
100
AcDbEntity
  8
profile
 67
0
100
AcDbLine
 10
46.5004689875
 20
231.61
 11
57.4717456439
 21
231.38
  0
LINE
  5
4E1
330
1F
100
AcDbEntity
  8
frame
 67
0
100
AcDbLine
 10
0.0
 20
204.0
 11
69.8805036549
 21
204.0
  0
LINE
  5
4E2
330
1F
100
AcDbEntity
  8
frame
 67
0
100
AcDbLine
 10
69.8805036549
 20
204.0
 11
69.8805036549
 21
207.0
  0
LINE
  5
4E3
330
1F
100
AcDbEntity
  8
frame
 67
0
100
AcDbLine
 10
0.0
 20
204.0
 11
0.0
 21
207.0
  0
LINE
  5
4E4
330
1F
100
AcDbEntity
  8
frame
 67
0
100
AcDbLine
 10
0.0
 20
207.0
 11
69.8805036549
 21
207.0
  0
LINE
  5
4E5
330
1F
100
AcDbEntity
  8
profile
 67
0
100
AcDbLine
 10
0.0
 20
205.75
 11
9.6859277828
 21
205.8
  0
LINE
  5
4E6
330
1F
100
AcDbEntity
  8
profile
 67
0
100
AcDbLine
 10
9.6859277828
 20
205.8
 11
24.496352956
 21
205.95
  0
LINE
  5
4E7
330
1F
100
AcDbEntity
  8
profile
 67
0
100
AcDbLine
 10
24.496352956
 20
205.95
 11
32.8228198526
 21
205.89
  0
LINE
  5
4E8
330
1F
100
AcDbEntity
  8
profile
 67
0
100
AcDbLine
 10
32.8228198526
 20
205.89
 11
39.1180802187
 21
206.17
  0
LINE
  5
4E9
330
1F
100
AcDbEntity
  8
profile
 67
0
100
AcDbLine
 10
39.1180802187
 20
206.17
 11
41.098277403
 21
205.96
  0
LINE
  5
4EA
330
1F
100
AcDbEntity
  8
profile
 67
0
100
AcDbLine
 10
41.098277403
 20
205.96
 11
42.1545635446
 21
205.01
  0
LINE
  5
4EB
330
1F
100
AcDbEntity
  8
profile
 67
0
100
AcDbLine
 10
42.1545635446
 20
205.01
 11
42.4522600641
 21
204.83
  0
LINE
  5
4EC
330
1F
100
AcDbEntity
  8
profile
 67
0
100
AcDbLine
 10
42.4522600641
 20
204.83
 11
43.0836467893
 21
204.87
  0
LINE
  5
4ED
330
1F
100
AcDbEntity
  8
profile
 67
0
100
AcDbLine
 10
43.0836467893
 20
204.87
 11
44.0530490119
 21
204.9
  0
LINE
  5
4EE
330
1F
100
AcDbEntity
  8
profile
 67
0
100
AcDbLine
 10
44.0530490119
 20
204.9
 11
44.1549958349
 21
204.97
  0
LINE
  5
4EF
330
1F
100
AcDbEntity
  8
profile
 67
0
100
AcDbLine
 10
44.1549958349
 20
204.97
 11
44.8951651588
 21
205.3
  0
LINE
  5
4F0
330
1F
100
AcDbEntity
  8
profile
 67
0
100
AcDbLine
 10
44.8951651588
 20
205.3
 11
52.3426217987
 21
206.17
  0
LINE
  5
4F1
330
1F
100
AcDbEntity
  8
profile
 67
0
100
AcDbLine
 10
52.3426217987
 20
206.17
 11
60.831600184
 21
205.88
  0
LINE
  5
4F2
330
1F
100
AcDbEntity
  8
profile
 67
0
100
AcDbLine
 10
60.831600184
 20
205.88
 11
69.8805036549
 21
205.78
  0
LINE
  5
4F3
330
1F
100
AcDbEntity
  8
frame
 67
0
100
AcDbLine
 10
0.0
 20
179.0
 11
43.1648943008
 21
179.0
  0
LINE
  5
4F4
330
1F
100
AcDbEntity
  8
frame
 67
0
100
AcDbLine
 10
43.1648943008
 20
179.0
 11
43.1648943008
 21
182.0
  0
LINE
  5
4F5
330
1F
100
AcDbEntity
  8
frame
 67
0
100
AcDbLine
 10
0.0
 20
179.0
 11
0.0
 21
182.0
  0
LINE
  5
4F6
330
1F
100
AcDbEntity
  8
frame
 67
0
100
AcDbLine
 10
0.0
 20
182.0
 11
43.1648943008
 21
182.0
  0
LINE
  5
4F7
330
1F
100
AcDbEntity
  8
profile
 67
0
100
AcDbLine
 10
0.0
 20
181.56
 11
7.77077542834
 21
181.61
  0
LINE
  5
4F8
330
1F
100
AcDbEntity
  8
profile
 67
0
100
AcDbLine
 10
7.77077542834
 20
181.61
 11
16.2843280723
 21
181.66
  0
LINE
  5
4F9
330
1F
100
AcDbEntity
  8
profile
 67
0
100
AcDbLine
 10
16.2843280723
 20
181.66
 11
17.2412862826
 21
181.65
  0
LINE
  5
4FA
330
1F
100
AcDbEntity
  8
profile
 67
0
100
AcDbLine
 10
17.2412862826
 20
181.65
 11
18.9470335384
 21
181.37
  0
LINE
  5
4FB
330
1F
100
AcDbEntity
  8
profile
 67
0
100
AcDbLine
 10
18.9470335384
 20
181.37
 11
20.3533407004
 21
180.91
  0
LINE
  5
4FC
330
1F
100
AcDbEntity
  8
profile
 67
0
100
AcDbLine
 10
20.3533407004
 20
180.91
 11
21.7716020211
 21
180.25
  0
LINE
  5
4FD
330
1F
100
AcDbEntity
  8
profile
 67
0
100
AcDbLine
 10
21.7716020211
 20
180.25
 11
22.0539008706
 21
180.17
  0
LINE
  5
4FE
330
1F
100
AcDbEntity
  8
profile
 67
0
100
AcDbLine
 10
22.0539008706
 20
180.17
 11
23.0024425191
 21
180.0
  0
LINE
  5
4FF
330
1F
100
AcDbEntity
  8
profile
 67
0
100
AcDbLine
 10
23.0024425191
 20
180.0
 11
23.7791246017
 21
179.8
  0
LINE
  5
500
330
1F
100
AcDbEntity
  8
profile
 67
0
100
AcDbLine
 10
23.7791246017
 20
179.8
 11
23.9063275079
 21
179.74
  0
LINE
  5
501
330
1F
100
AcDbEntity
  8
profile
 67
0
100
AcDbLine
 10
23.9063275079
 20
179.74
 11
24.6116622595
 21
180.1
  0
LINE
  5
502
330
1F
100
AcDbEntity
  8
profile
 67
0
100
AcDbLine
 10
24.6116622595
 20
180.1
 11
24.9167365615
 21
180.07
  0
LINE
  5
503
330
1F
100
AcDbEntity
  8
profile
 67
0
100
AcDbLine
 10
24.9167365615
 20
180.07
 11
25.1296456894
 21
180.2
  0
LINE
  5
504
330
1F
100
AcDbEntity
  8
profile
 67
0
100
AcDbLine
 10
25.1296456894
 20
180.2
 11
25.1962530574
 21
180.3
  0
LINE
  5
505
330
1F
100
AcDbEntity
  8
profile
 67
0
100
AcDbLine
 10
25.1962530574
 20
180.3
 11
25.93429031
 21
180.72
  0
LINE
  5
506
330
1F
100
AcDbEntity
  8
profile
 67
0
100
AcDbLine
 10
25.93429031
 20
180.72
 11
26.5670753647
 21
180.82
  0
LINE
  5
507
330
1F
100
AcDbEntity
  8
profile
 67
0
100
AcDbLine
 10
26.5670753647
 20
180.82
 11
26.9562063998
 21
180.89
  0
LINE
  5
508
330
1F
100
AcDbEntity
  8
profile
 67
0
100
AcDbLine
 10
26.9562063998
 20
180.89
 11
29.6619885382
 21
181.11
  0
LINE
  5
509
330
1F
100
AcDbEntity
  8
profile
 67
0
100
AcDbLine
 10
29.6619885382
 20
181.11
 11
31.0890440423
 21
181.69
  0
LINE
  5
50A
330
1F
100
AcDbEntity
  8
profile
 67
0
100
AcDbLine
 10
31.0890440423
 20
181.69
 11
35.809562957
 21
181.7
  0
LINE
  5
50B
330
1F
100
AcDbEntity
  8
profile
 67
0
100
AcDbLine
 10
35.809562957
 20
181.7
 11
43.1648943008
 21
181.67
  0
LINE
  5
50C
330
1F
100
AcDbEntity
  8
frame
 67
0
100
AcDbLine
 10
0.0
 20
154.0
 11
51.5398185872
 21
154.0
  0
LINE
  5
50D
330
1F
100
AcDbEntity
  8
frame
 67
0
100
AcDbLine
 10
51.5398185872
 20
154.0
 11
51.5398185872
 21
157.0
  0
LINE
  5
50E
330
1F
100
AcDbEntity
  8
frame
 67
0
100
AcDbLine
 10
0.0
 20
154.0
 11
0.0
 21
157.0
  0
LINE
  5
50F
330
1F
100
AcDbEntity
  8
frame
 67
0
100
AcDbLine
 10
0.0
 20
157.0
 11
51.5398185872
 21
157.0
  0
LINE
  5
510
330
1F
100
AcDbEntity
  8
profile
 67
0
100
AcDbLine
 10
0.0
 20
156.33
 11
8.45830489805
 21
156.47
  0
LINE
  5
511
330
1F
100
AcDbEntity
  8
profile
 67
0
100
AcDbLine
 10
8.45830489805
 20
156.47
 11
13.4662193043
 21
156.34
  0
LINE
  5
512
330
1F
100
AcDbEntity
  8
profile
 67
0
100
AcDbLine
 10
13.4662193043
 20
156.34
 11
14.7637461842
 21
155.95
  0
LINE
  5
513
330
1F
100
AcDbEntity
  8
profile
 67
0
100
AcDbLine
 10
14.7637461842
 20
155.95
 11
17.9555715438
 21
155.36
  0
LINE
  5
514
330
1F
100
AcDbEntity
  8
profile
 67
0
100
AcDbLine
 10
17.9555715438
 20
155.36
 11
18.9757031904
 21
154.88
  0
LINE
  5
515
330
1F
100
AcDbEntity
  8
profile
 67
0
100
AcDbLine
 10
18.9757031904
 20
154.88
 11
21.2264173602
 21
154.74
  0
LINE
  5
516
330
1F
100
AcDbEntity
  8
profile
 67
0
100
AcDbLine
 10
21.2264173602
 20
154.74
 11
21.3156765024
 21
154.71
  0
LINE
  5
517
330
1F
100
AcDbEntity
  8
profile
 67
0
100
AcDbLine
 10
21.3156765024
 20
154.71
 11
21.4563192171
 21
154.53
  0
LINE
  5
518
330
1F
100
AcDbEntity
  8
profile
 67
0
100
AcDbLine
 10
21.4563192171
 20
154.53
 11
22.0758111144
 21
154.49
  0
LINE
  5
519
330
1F
100
AcDbEntity
  8
profile
 67
0
100
AcDbLine
 10
22.0758111144
 20
154.49
 11
22.8650145131
 21
154.65
  0
LINE
  5
51A
330
1F
100
AcDbEntity
  8
profile
 67
0
100
AcDbLine
 10
22.8650145131
 20
154.65
 11
23.3970846824
 21
155.24
  0
LINE
  5
51B
330
1F
100
AcDbEntity
  8
profile
 67
0
100
AcDbLine
 10
23.3970846824
 20
155.24
 11
24.192231059
 21
155.81
  0
LINE
  5
51C
330
1F
100
AcDbEntity
  8
profile
 67
0
100
AcDbLine
 10
24.192231059
 20
155.81
 11
25.9647169253
 21
156.34
  0
LINE
  5
51D
330
1F
100
AcDbEntity
  8
profile
 67
0
100
AcDbLine
 10
25.9647169253
 20
156.34
 11
27.3670637318
 21
156.51
  0
LINE
  5
51E
330
1F
100
AcDbEntity
  8
profile
 67
0
100
AcDbLine
 10
27.3670637318
 20
156.51
 11
32.5766222316
 21
156.56
  0
LINE
  5
51F
330
1F
100
AcDbEntity
  8
profile
 67
0
100
AcDbLine
 10
32.5766222316
 20
156.56
 11
42.013698522
 21
156.55
  0
LINE
  5
520
330
1F
100
AcDbEntity
  8
profile
 67
0
100
AcDbLine
 10
42.013698522
 20
156.55
 11
51.5398185872
 21
156.51
  0
LINE
  5
521
330
1F
100
AcDbEntity
  8
frame
 67
0
100
AcDbLine
 10
0.0
 20
129.0
 11
33.1199064008
 21
129.0
  0
LINE
  5
522
330
1F
100
AcDbEntity
  8
frame
 67
0
100
AcDbLine
 10
33.1199064008
 20
129.0
 11
33.1199064008
 21
132.0
  0
LINE
  5
523
330
1F
100
AcDbEntity
  8
frame
 67
0
100
AcDbLine
 10
0.0
 20
129.0
 11
0.0
 21
132.0
  0
LINE
  5
524
330
1F
100
AcDbEntity
  8
frame
 67
0
100
AcDbLine
 10
0.0
 20
132.0
 11
33.1199064008
 21
132.0
  0
LINE
  5
525
330
1F
100
AcDbEntity
  8
profile
 67
0
100
AcDbLine
 10
0.0
 20
131.31
 11
6.61801991067
 21
131.42
  0
LINE
  5
526
330
1F
100
AcDbEntity
  8
profile
 67
0
100
AcDbLine
 10
6.61801991067
 20
131.42
 11
9.71320981727
 21
131.06
  0
LINE
  5
527
330
1F
100
AcDbEntity
  8
profile
 67
0
100
AcDbLine
 10
9.71320981727
 20
131.06
 11
10.1813572756
 21
130.84
  0
LINE
  5
528
330
1F
100
AcDbEntity
  8
profile
 67
0
100
AcDbLine
 10
10.1813572756
 20
130.84
 11
11.6823760103
 21
130.11
  0
LINE
  5
529
330
1F
100
AcDbEntity
  8
profile
 67
0
100
AcDbLine
 10
11.6823760103
 20
130.11
 11
12.1622324388
 21
129.83
  0
LINE
  5
52A
330
1F
100
AcDbEntity
  8
profile
 67
0
100
AcDbLine
 10
12.1622324388
 20
129.83
 11
12.5411405145
 21
129.61
  0
LINE
  5
52B
330
1F
100
AcDbEntity
  8
profile
 67
0
100
AcDbLine
 10
12.5411405145
 20
129.61
 11
12.591370125
 21
129.43
  0
LINE
  5
52C
330
1F
100
AcDbEntity
  8
profile
 67
0
100
AcDbLine
 10
12.591370125
 20
129.43
 11
12.7103559685
 21
129.26
  0
LINE
  5
52D
330
1F
100
AcDbEntity
  8
profile
 67
0
100
AcDbLine
 10
12.7103559685
 20
129.26
 11
13.2177577648
 21
129.27
  0
LINE
  5
52E
330
1F
100
AcDbEntity
  8
profile
 67
0
100
AcDbLine
 10
13.2177577648
 20
129.27
 11
13.7578408129
 21
129.39
  0
LINE
  5
52F
330
1F
100
AcDbEntity
  8
profile
 67
0
100
AcDbLine
 10
13.7578408129
 20
129.39
 11
13.9804652343
 21
129.46
  0
LINE
  5
530
330
1F
100
AcDbEntity
  8
profile
 67
0
100
AcDbLine
 10
13.9804652343
 20
129.46
 11
14.7855762052
 21
129.44
  0
LINE
  5
531
330
1F
100
AcDbEntity
  8
profile
 67
0
100
AcDbLine
 10
14.7855762052
 20
129.44
 11
15.8452591516
 21
129.93
  0
LINE
  5
532
330
1F
100
AcDbEntity
  8
profile
 67
0
100
AcDbLine
 10
15.8452591516
 20
129.93
 11
16.890817662
 21
130.01
  0
LINE
  5
533
330
1F
100
AcDbEntity
  8
profile
 67
0
100
AcDbLine
 10
16.890817662
 20
130.01
 11
18.1204497602
 21
130.63
  0
LINE
  5
534
330
1F
100
AcDbEntity
  8
profile
 67
0
100
AcDbLine
 10
18.1204497602
 20
130.63
 11
18.9014392862
 21
131.12
  0
LINE
  5
535
330
1F
100
AcDbEntity
  8
profile
 67
0
100
AcDbLine
 10
18.9014392862
 20
131.12
 11
19.6392614196
 21
131.34
  0
LINE
  5
536
330
1F
100
AcDbEntity
  8
profile
 67
0
100
AcDbLine
 10
19.6392614196
 20
131.34
 11
20.8164265821
 21
131.23
  0
LINE
  5
537
330
1F
100
AcDbEntity
  8
profile
 67
0
100
AcDbLine
 10
20.8164265821
 20
131.23
 11
25.8869028681
 21
131.37
  0
LINE
  5
538
330
1F
100
AcDbEntity
  8
profile
 67
0
100
AcDbLine
 10
25.8869028681
 20
131.37
 11
33.1199064008
 21
131.08
  0
LINE
  5
539
330
1F
100
AcDbEntity
  8
frame
 67
0
100
AcDbLine
 10
0.0
 20
104.0
 11
20.494448391
 21
104.0
  0
LINE
  5
53A
330
1F
100
AcDbEntity
  8
frame
 67
0
100
AcDbLine
 10
20.494448391
 20
104.0
 11
20.494448391
 21
107.0
  0
LINE
  5
53B
330
1F
100
AcDbEntity
  8
frame
 67
0
100
AcDbLine
 10
0.0
 20
104.0
 11
0.0
 21
107.0
  0
LINE
  5
53C
330
1F
100
AcDbEntity
  8
frame
 67
0
100
AcDbLine
 10
0.0
 20
107.0
 11
20.494448391
 21
107.0
  0
LINE
  5
53D
330
1F
100
AcDbEntity
  8
profile
 67
0
100
AcDbLine
 10
0.0
 20
106.02
 11
9.53301356654
 21
106.25
  0
LINE
  5
53E
330
1F
100
AcDbEntity
  8
profile
 67
0
100
AcDbLine
 10
9.53301356654
 20
106.25
 11
12.081392154
 21
106.15
  0
LINE
  5
53F
330
1F
100
AcDbEntity
  8
profile
 67
0
100
AcDbLine
 10
12.081392154
 20
106.15
 11
12.311097156
 21
105.91
  0
LINE
  5
540
330
1F
100
AcDbEntity
  8
profile
 67
0
100
AcDbLine
 10
12.311097156
 20
105.91
 11
12.4808184067
 21
105.8
  0
LINE
  5
541
330
1F
100
AcDbEntity
  8
profile
 67
0
100
AcDbLine
 10
12.4808184067
 20
105.8
 11
13.0488023518
 21
105.45
  0
LINE
  5
542
330
1F
100
AcDbEntity
  8
profile
 67
0
100
AcDbLine
 10
13.0488023518
 20
105.45
 11
13.8504473967
 21
105.09
  0
LINE
  5
543
330
1F
100
AcDbEntity
  8
profile
 67
0
100
AcDbLine
 10
13.8504473967
 20
105.09
 11
14.3398492764
 21
104.6
  0
LINE
  5
544
330
1F
100
AcDbEntity
  8
profile
 67
0
100
AcDbLine
 10
14.3398492764
 20
104.6
 11
14.5093378154
 21
104.09
  0
LINE
  5
545
330
1F
100
AcDbEntity
  8
profile
 67
0
100
AcDbLine
 10
14.5093378154
 20
104.09
 11
14.6590644822
 21
104.23
  0
LINE
  5
546
330
1F
100
AcDbEntity
  8
profile
 67
0
100
AcDbLine
 10
14.6590644822
 20
104.23
 11
15.4188586665
 21
104.48
  0
LINE
  5
547
330
1F
100
AcDbEntity
  8
profile
 67
0
100
AcDbLine
 10
15.4188586665
 20
104.48
 11
17.2204563044
 21
104.49
  0
LINE
  5
548
330
1F
100
AcDbEntity
  8
profile
 67
0
100
AcDbLine
 10
17.2204563044
 20
104.49
 11
18.8781450664
 21
104.37
  0
LINE
  5
549
330
1F
100
AcDbEntity
  8
profile
 67
0
100
AcDbLine
 10
18.8781450664
 20
104.37
 11
19.9797088682
 21
104.92
  0
LINE
  5
54A
330
1F
100
AcDbEntity
  8
profile
 67
0
100
AcDbLine
 10
19.9797088682
 20
104.92
 11
20.494448391
 21
105.64
  0
LINE
  5
54B
330
1F
100
AcDbEntity
  8
frame
 67
0
100
AcDbLine
 10
0.0
 20
78.0
 11
65.0152904856
 21
78.0
  0
LINE
  5
54C
330
1F
100
AcDbEntity
  8
frame
 67
0
100
AcDbLine
 10
65.0152904856
 20
78.0
 11
65.0152904856
 21
81.0
  0
LINE
  5
54D
330
1F
100
AcDbEntity
  8
frame
 67
0
100
AcDbLine
 10
0.0
 20
78.0
 11
0.0
 21
81.0
  0
LINE
  5
54E
330
1F
100
AcDbEntity
  8
frame
 67
0
100
AcDbLine
 10
0.0
 20
81.0
 11
65.0152904856
 21
81.0
  0
LINE
  5
54F
330
1F
100
AcDbEntity
  8
profile
 67
0
100
AcDbLine
 10
0.0
 20
79.66
 11
10.1721320439
 21
79.57
  0
LINE
  5
550
330
1F
100
AcDbEntity
  8
profile
 67
0
100
AcDbLine
 10
10.1721320439
 20
79.57
 11
16.5229311956
 21
79.63
  0
LINE
  5
551
330
1F
100
AcDbEntity
  8
profile
 67
0
100
AcDbLine
 10
16.5229311956
 20
79.63
 11
19.0452784671
 21
79.77
  0
LINE
  5
552
330
1F
100
AcDbEntity
  8
profile
 67
0
100
AcDbLine
 10
19.0452784671
 20
79.77
 11
22.1919007242
 21
79.9
  0
LINE
  5
553
330
1F
100
AcDbEntity
  8
profile
 67
0
100
AcDbLine
 10
22.1919007242
 20
79.9
 11
23.725281874
 21
79.84
  0
LINE
  5
554
330
1F
100
AcDbEntity
  8
profile
 67
0
100
AcDbLine
 10
23.725281874
 20
79.84
 11
24.2953791867
 21
79.92
  0
LINE
  5
555
330
1F
100
AcDbEntity
  8
profile
 67
0
100
AcDbLine
 10
24.2953791867
 20
79.92
 11
25.1471147598
 21
79.49
  0
LINE
  5
556
330
1F
100
AcDbEntity
  8
profile
 67
0
100
AcDbLine
 10
25.1471147598
 20
79.49
 11
25.5252370044
 21
79.2
  0
LINE
  5
557
330
1F
100
AcDbEntity
  8
profile
 67
0
100
AcDbLine
 10
25.5252370044
 20
79.2
 11
25.7063333414
 21
79.03
  0
LINE
  5
558
330
1F
100
AcDbEntity
  8
profile
 67
0
100
AcDbLine
 10
25.7063333414
 20
79.03
 11
25.8327122512
 21
79.11
  0
LINE
  5
559
330
1F
100
AcDbEntity
  8
profile
 67
0
100
AcDbLine
 10
25.8327122512
 20
79.11
 11
25.9391899903
 21
78.99
  0
LINE
  5
55A
330
1F
100
AcDbEntity
  8
profile
 67
0
100
AcDbLine
 10
25.9391899903
 20
78.99
 11
26.2944107791
 21
78.8
  0
LINE
  5
55B
330
1F
100
AcDbEntity
  8
profile
 67
0
100
AcDbLine
 10
26.2944107791
 20
78.8
 11
26.5899064708
 21
78.95
  0
LINE
  5
55C
330
1F
100
AcDbEntity
  8
profile
 67
0
100
AcDbLine
 10
26.5899064708
 20
78.95
 11
26.7073061105
 21
79.07
  0
LINE
  5
55D
330
1F
100
AcDbEntity
  8
profile
 67
0
100
AcDbLine
 10
26.7073061105
 20
79.07
 11
26.922225804
 21
79.15
  0
LINE
  5
55E
330
1F
100
AcDbEntity
  8
profile
 67
0
100
AcDbLine
 10
26.922225804
 20
79.15
 11
27.382909847
 21
79.29
  0
LINE
  5
55F
330
1F
100
AcDbEntity
  8
profile
 67
0
100
AcDbLine
 10
27.382909847
 20
79.29
 11
27.8892888776
 21
79.94
  0
LINE
  5
560
330
1F
100
AcDbEntity
  8
profile
 67
0
100
AcDbLine
 10
27.8892888776
 20
79.94
 11
29.2753773612
 21
80.01
  0
LINE
  5
561
330
1F
100
AcDbEntity
  8
profile
 67
0
100
AcDbLine
 10
29.2753773612
 20
80.01
 11
30.8715073772
 21
79.74
  0
LINE
  5
562
330
1F
100
AcDbEntity
  8
profile
 67
0
100
AcDbLine
 10
30.8715073772
 20
79.74
 11
31.3561289455
 21
79.7
  0
LINE
  5
563
330
1F
100
AcDbEntity
  8
profile
 67
0
100
AcDbLine
 10
31.3561289455
 20
79.7
 11
32.9910684029
 21
79.39
  0
LINE
  5
564
330
1F
100
AcDbEntity
  8
profile
 67
0
100
AcDbLine
 10
32.9910684029
 20
79.39
 11
40.2540082926
 21
79.35
  0
LINE
  5
565
330
1F
100
AcDbEntity
  8
profile
 67
0
100
AcDbLine
 10
40.2540082926
 20
79.35
 11
54.6343857085
 21
79.15
  0
LINE
  5
566
330
1F
100
AcDbEntity
  8
profile
 67
0
100
AcDbLine
 10
54.6343857085
 20
79.15
 11
65.0152904856
 21
79.01
  0
LINE
  5
567
330
1F
100
AcDbEntity
  8
frame
 67
0
100
AcDbLine
 10
0.0
 20
52.0
 11
54.0164388218
 21
52.0
  0
LINE
  5
568
330
1F
100
AcDbEntity
  8
frame
 67
0
100
AcDbLine
 10
54.0164388218
 20
52.0
 11
54.0164388218
 21
55.0
  0
LINE
  5
569
330
1F
100
AcDbEntity
  8
frame
 67
0
100
AcDbLine
 10
0.0
 20
52.0
 11
0.0
 21
55.0
  0
LINE
  5
56A
330
1F
100
AcDbEntity
  8
frame
 67
0
100
AcDbLine
 10
0.0
 20
55.0
 11
54.0164388218
 21
55.0
  0
LINE
  5
56B
330
1F
100
AcDbEntity
  8
profile
 67
0
100
AcDbLine
 10
0.0
 20
54.19
 11
8.38252506016
 21
54.14
  0
LINE
  5
56C
330
1F
100
AcDbEntity
  8
profile
 67
0
100
AcDbLine
 10
8.38252506016
 20
54.14
 11
16.9403358087
 21
54.22
  0
LINE
  5
56D
330
1F
100
AcDbEntity
  8
profile
 67
0
100
AcDbLine
 10
16.9403358087
 20
54.22
 11
20.790060125
 21
54.28
  0
LINE
  5
56E
330
1F
100
AcDbEntity
  8
profile
 67
0
100
AcDbLine
 10
20.790060125
 20
54.28
 11
22.4644913874
 21
53.49
  0
LINE
  5
56F
330
1F
100
AcDbEntity
  8
profile
 67
0
100
AcDbLine
 10
22.4644913874
 20
53.49
 11
23.5761272775
 21
52.84
  0
LINE
  5
570
330
1F
100
AcDbEntity
  8
profile
 67
0
100
AcDbLine
 10
23.5761272775
 20
52.84
 11
23.9863268836
 21
52.7
  0
LINE
  5
571
330
1F
100
AcDbEntity
  8
profile
 67
0
100
AcDbLine
 10
23.9863268836
 20
52.7
 11
24.3652383698
 21
52.83
  0
LINE
  5
572
330
1F
100
AcDbEntity
  8
profile
 67
0
100
AcDbLine
 10
24.3652383698
 20
52.83
 11
25.3607224723
 21
53.57
  0
LINE
  5
573
330
1F
100
AcDbEntity
  8
profile
 67
0
100
AcDbLine
 10
25.3607224723
 20
53.57
 11
25.8585338565
 21
54.17
  0
LINE
  5
574
330
1F
100
AcDbEntity
  8
profile
 67
0
100
AcDbLine
 10
25.8585338565
 20
54.17
 11
26.8970674874
 21
54.58
  0
LINE
  5
575
330
1F
100
AcDbEntity
  8
profile
 67
0
100
AcDbLine
 10
26.8970674874
 20
54.58
 11
27.3069897613
 21
54.54
  0
LINE
  5
576
330
1F
100
AcDbEntity
  8
profile
 67
0
100
AcDbLine
 10
27.3069897613
 20
54.54
 11
27.6469108546
 21
54.5
  0
LINE
  5
577
330
1F
100
AcDbEntity
  8
profile
 67
0
100
AcDbLine
 10
27.6469108546
 20
54.5
 11
28.2288925761
 21
54.28
  0
LINE
  5
578
330
1F
100
AcDbEntity
  8
profile
 67
0
100
AcDbLine
 10
28.2288925761
 20
54.28
 11
28.7227834909
 21
54.11
  0
LINE
  5
579
330
1F
100
AcDbEntity
  8
profile
 67
0
100
AcDbLine
 10
28.7227834909
 20
54.11
 11
30.6921587887
 21
53.88
  0
LINE
  5
57A
330
1F
100
AcDbEntity
  8
profile
 67
0
100
AcDbLine
 10
30.6921587887
 20
53.88
 11
40.8938831589
 21
53.7
  0
LINE
  5
57B
330
1F
100
AcDbEntity
  8
profile
 67
0
100
AcDbLine
 10
40.8938831589
 20
53.7
 11
54.0164388218
 21
53.62
  0
LINE
  5
57C
330
1F
100
AcDbEntity
  8
frame
 67
0
100
AcDbLine
 10
0.0
 20
27.0
 11
63.0178249984
 21
27.0
  0
LINE
  5
57D
330
1F
100
AcDbEntity
  8
frame
 67
0
100
AcDbLine
 10
63.0178249984
 20
27.0
 11
63.0178249984
 21
30.0
  0
LINE
  5
57E
330
1F
100
AcDbEntity
  8
frame
 67
0
100
AcDbLine
 10
0.0
 20
27.0
 11
0.0
 21
30.0
  0
LINE
  5
57F
330
1F
100
AcDbEntity
  8
frame
 67
0
100
AcDbLine
 10
0.0
 20
30.0
 11
63.0178249984
 21
30.0
  0
LINE
  5
580
330
1F
100
AcDbEntity
  8
profile
 67
0
100
AcDbLine
 10
0.0
 20
28.47
 11
15.1112828794
 21
28.41
  0
LINE
  5
581
330
1F
100
AcDbEntity
  8
profile
 67
0
100
AcDbLine
 10
15.1112828794
 20
28.41
 11
28.6658123904
 21
28.45
  0
LINE
  5
582
330
1F
100
AcDbEntity
  8
profile
 67
0
100
AcDbLine
 10
28.6658123904
 20
28.45
 11
29.8690686797
 21
28.76
  0
LINE
  5
583
330
1F
100
AcDbEntity
  8
profile
 67
0
100
AcDbLine
 10
29.8690686797
 20
28.76
 11
30.7199250824
 21
28.61
  0
LINE
  5
584
330
1F
100
AcDbEntity
  8
profile
 67
0
100
AcDbLine
 10
30.7199250824
 20
28.61
 11
31.4766753236
 21
27.53
  0
LINE
  5
585
330
1F
100
AcDbEntity
  8
profile
 67
0
100
AcDbLine
 10
31.4766753236
 20
27.53
 11
32.2513444907
 21
27.41
  0
LINE
  5
586
330
1F
100
AcDbEntity
  8
profile
 67
0
100
AcDbLine
 10
32.2513444907
 20
27.41
 11
32.8895397948
 21
27.51
  0
LINE
  5
587
330
1F
100
AcDbEntity
  8
profile
 67
0
100
AcDbLine
 10
32.8895397948
 20
27.51
 11
34.8599262425
 21
28.41
  0
LINE
  5
588
330
1F
100
AcDbEntity
  8
profile
 67
0
100
AcDbLine
 10
34.8599262425
 20
28.41
 11
36.0825346325
 21
28.66
  0
LINE
  5
589
330
1F
100
AcDbEntity
  8
profile
 67
0
100
AcDbLine
 10
36.0825346325
 20
28.66
 11
38.1360367411
 21
29.06
  0
LINE
  5
58A
330
1F
100
AcDbEntity
  8
profile
 67
0
100
AcDbLine
 10
38.1360367411
 20
29.06
 11
39.3256481882
 21
28.84
  0
LINE
  5
58B
330
1F
100
AcDbEntity
  8
profile
 67
0
100
AcDbLine
 10
39.3256481882
 20
28.84
 11
40.4578139168
 21
28.32
  0
LINE
  5
58C
330
1F
100
AcDbEntity
  8
profile
 67
0
100
AcDbLine
 10
40.4578139168
 20
28.32
 11
52.5318461066
 21
28.18
  0
LINE
  5
58D
330
1F
100
AcDbEntity
  8
profile
 67
0
100
AcDbLine
 10
52.5318461066
 20
28.18
 11
63.0178249984
 21
28.03
  0
LINE
  5
58E
330
1F
100
AcDbEntity
  8
frame
 67
0
100
AcDbLine
 10
0.0
 20
1.0
 11
43.409290946
 21
1.0
  0
LINE
  5
58F
330
1F
100
AcDbEntity
  8
frame
 67
0
100
AcDbLine
 10
43.409290946
 20
1.0
 11
43.409290946
 21
4.0
  0
LINE
  5
590
330
1F
100
AcDbEntity
  8
frame
 67
0
100
AcDbLine
 10
0.0
 20
1.0
 11
0.0
 21
4.0
  0
LINE
  5
591
330
1F
100
AcDbEntity
  8
frame
 67
0
100
AcDbLine
 10
0.0
 20
4.0
 11
43.409290946
 21
4.0
  0
LINE
  5
592
330
1F
100
AcDbEntity
  8
profile
 67
0
100
AcDbLine
 10
0.0
 20
2.79
 11
3.57854798364
 21
2.89
  0
LINE
  5
593
330
1F
100
AcDbEntity
  8
profile
 67
0
100
AcDbLine
 10
3.57854798364
 20
2.89
 11
5.73539885274
 21
2.93
  0
LINE
  5
594
330
1F
100
AcDbEntity
  8
profile
 67
0
100
AcDbLine
 10
5.73539885274
 20
2.93
 11
7.64634057549
 21
3.05
  0
LINE
  5
595
330
1F
100
AcDbEntity
  8
profile
 67
0
100
AcDbLine
 10
7.64634057549
 20
3.05
 11
9.12533542923
 21
3.01
  0
LINE
  5
596
330
1F
100
AcDbEntity
  8
profile
 67
0
100
AcDbLine
 10
9.12533542923
 20
3.01
 11
10.1200891438
 21
1.58
  0
LINE
  5
597
330
1F
100
AcDbEntity
  8
profile
 67
0
100
AcDbLine
 10
10.1200891438
 20
1.58
 11
10.2203490756
 21
1.52
  0
LINE
  5
598
330
1F
100
AcDbEntity
  8
profile
 67
0
100
AcDbLine
 10
10.2203490756
 20
1.52
 11
10.6086296441
 21
1.41
  0
LINE
  5
599
330
1F
100
AcDbEntity
  8
profile
 67
0
100
AcDbLine
 10
10.6086296441
 20
1.41
 11
11.155606359
 21
1.51
  0
LINE
  5
59A
330
1F
100
AcDbEntity
  8
profile
 67
0
100
AcDbLine
 10
11.155606359
 20
1.51
 11
11.3851907812
 21
1.79
  0
LINE
  5
59B
330
1F
100
AcDbEntity
  8
profile
 67
0
100
AcDbLine
 10
11.3851907812
 20
1.79
 11
11.6813641181
 21
2.12
  0
LINE
  5
59C
330
1F
100
AcDbEntity
  8
profile
 67
0
100
AcDbLine
 10
11.6813641181
 20
2.12
 11
12.9495367276
 21
2.67
  0
LINE
  5
59D
330
1F
100
AcDbEntity
  8
profile
 67
0
100
AcDbLine
 10
12.9495367276
 20
2.67
 11
14.0136432319
 21
2.85
  0
LINE
  5
59E
330
1F
100
AcDbEntity
  8
profile
 67
0
100
AcDbLine
 10
14.0136432319
 20
2.85
 11
15.751901261
 21
3.4
  0
LINE
  5
59F
330
1F
100
AcDbEntity
  8
profile
 67
0
100
AcDbLine
 10
15.751901261
 20
3.4
 11
16.04299287
 21
3.49
  0
LINE
  5
5A0
330
1F
100
AcDbEntity
  8
profile
 67
0
100
AcDbLine
 10
16.04299287
 20
3.49
 11
16.8722942993
 21
3.43
  0
LINE
  5
5A1
330
1F
100
AcDbEntity
  8
profile
 67
0
100
AcDbLine
 10
16.8722942993
 20
3.43
 11
17.6434666113
 21
3.14
  0
LINE
  5
5A2
330
1F
100
AcDbEntity
  8
profile
 67
0
100
AcDbLine
 10
17.6434666113
 20
3.14
 11
18.7212535657
 21
2.79
  0
LINE
  5
5A3
330
1F
100
AcDbEntity
  8
profile
 67
0
100
AcDbLine
 10
18.7212535657
 20
2.79
 11
19.4118494156
 21
2.69
  0
LINE
  5
5A4
330
1F
100
AcDbEntity
  8
profile
 67
0
100
AcDbLine
 10
19.4118494156
 20
2.69
 11
34.1873495269
 21
2.62
  0
LINE
  5
5A5
330
1F
100
AcDbEntity
  8
profile
 67
0
100
AcDbLine
 10
34.1873495269
 20
2.62
 11
43.409290946
 21
2.49
  0
LINE
  5
5A6
330
1F
100
AcDbEntity
  8
frame
 67
0
100
AcDbLine
 10
0.0
 20
-25.0
 11
44.1823747255
 21
-25.0
  0
LINE
  5
5A7
330
1F
100
AcDbEntity
  8
frame
 67
0
100
AcDbLine
 10
44.1823747255
 20
-25.0
 11
44.1823747255
 21
-22.0
  0
LINE
  5
5A8
330
1F
100
AcDbEntity
  8
frame
 67
0
100
AcDbLine
 10
0.0
 20
-25.0
 11
0.0
 21
-22.0
  0
LINE
  5
5A9
330
1F
100
AcDbEntity
  8
frame
 67
0
100
AcDbLine
 10
0.0
 20
-22.0
 11
44.1823747255
 21
-22.0
  0
LINE
  5
5AA
330
1F
100
AcDbEntity
  8
profile
 67
0
100
AcDbLine
 10
0.0
 20
-22.54
 11
2.66243888212
 21
-22.54
  0
LINE
  5
5AB
330
1F
100
AcDbEntity
  8
profile
 67
0
100
AcDbLine
 10
2.66243888212
 20
-22.54
 11
6.56428213897
 21
-22.66
  0
LINE
  5
5AC
330
1F
100
AcDbEntity
  8
profile
 67
0
100
AcDbLine
 10
6.56428213897
 20
-22.66
 11
7.88642472349
 21
-22.57
  0
LINE
  5
5AD
330
1F
100
AcDbEntity
  8
profile
 67
0
100
AcDbLine
 10
7.88642472349
 20
-22.57
 11
9.7239663018
 21
-22.36
  0
LINE
  5
5AE
330
1F
100
AcDbEntity
  8
profile
 67
0
100
AcDbLine
 10
9.7239663018
 20
-22.36
 11
11.0257721197
 21
-22.52
  0
LINE
  5
5AF
330
1F
100
AcDbEntity
  8
profile
 67
0
100
AcDbLine
 10
11.0257721197
 20
-22.52
 11
11.9312054117
 21
-22.75
  0
LINE
  5
5B0
330
1F
100
AcDbEntity
  8
profile
 67
0
100
AcDbLine
 10
11.9312054117
 20
-22.75
 11
12.9045121765
 21
-23.54
  0
LINE
  5
5B1
330
1F
100
AcDbEntity
  8
profile
 67
0
100
AcDbLine
 10
12.9045121765
 20
-23.54
 11
13.191715539
 21
-23.87
  0
LINE
  5
5B2
330
1F
100
AcDbEntity
  8
profile
 67
0
100
AcDbLine
 10
13.191715539
 20
-23.87
 11
13.4907787749
 21
-24.17
  0
LINE
  5
5B3
330
1F
100
AcDbEntity
  8
profile
 67
0
100
AcDbLine
 10
13.4907787749
 20
-24.17
 11
14.0268450564
 21
-24.17
  0
LINE
  5
5B4
330
1F
100
AcDbEntity
  8
profile
 67
0
100
AcDbLine
 10
14.0268450564
 20
-24.17
 11
14.5943497239
 21
-23.99
  0
LINE
  5
5B5
330
1F
100
AcDbEntity
  8
profile
 67
0
100
AcDbLine
 10
14.5943497239
 20
-23.99
 11
15.1096515056
 21
-23.11
  0
LINE
  5
5B6
330
1F
100
AcDbEntity
  8
profile
 67
0
100
AcDbLine
 10
15.1096515056
 20
-23.11
 11
15.6846803878
 21
-22.86
  0
LINE
  5
5B7
330
1F
100
AcDbEntity
  8
profile
 67
0
100
AcDbLine
 10
15.6846803878
 20
-22.86
 11
17.2128153651
 21
-22.34
  0
LINE
  5
5B8
330
1F
100
AcDbEntity
  8
profile
 67
0
100
AcDbLine
 10
17.2128153651
 20
-22.34
 11
18.3870206097
 21
-22.11
  0
LINE
  5
5B9
330
1F
100
AcDbEntity
  8
profile
 67
0
100
AcDbLine
 10
18.3870206097
 20
-22.11
 11
19.2847352628
 21
-22.31
  0
LINE
  5
5BA
330
1F
100
AcDbEntity
  8
profile
 67
0
100
AcDbLine
 10
19.2847352628
 20
-22.31
 11
20.3134334695
 21
-22.76
  0
LINE
  5
5BB
330
1F
100
AcDbEntity
  8
profile
 67
0
100
AcDbLine
 10
20.3134334695
 20
-22.76
 11
21.9944636026
 21
-22.84
  0
LINE
  5
5BC
330
1F
100
AcDbEntity
  8
profile
 67
0
100
AcDbLine
 10
21.9944636026
 20
-22.84
 11
33.1390999151
 21
-22.97
  0
LINE
  5
5BD
330
1F
100
AcDbEntity
  8
profile
 67
0
100
AcDbLine
 10
33.1390999151
 20
-22.97
 11
44.1823747255
 21
-23.05
  0
LINE
  5
5BE
330
1F
100
AcDbEntity
  8
frame
 67
0
100
AcDbLine
 10
0.0
 20
-50.0
 11
45.9582864294
 21
-50.0
  0
LINE
  5
5BF
330
1F
100
AcDbEntity
  8
frame
 67
0
100
AcDbLine
 10
45.9582864294
 20
-50.0
 11
45.9582864294
 21
-48.0
  0
LINE
  5
5C0
330
1F
100
AcDbEntity
  8
frame
 67
0
100
AcDbLine
 10
0.0
 20
-50.0
 11
0.0
 21
-48.0
  0
LINE
  5
5C1
330
1F
100
AcDbEntity
  8
frame
 67
0
100
AcDbLine
 10
0.0
 20
-48.0
 11
45.9582864294
 21
-48.0
  0
LINE
  5
5C2
330
1F
100
AcDbEntity
  8
profile
 67
0
100
AcDbLine
 10
0.0
 20
-48.51
 11
4.96951707916
 21
-48.38
  0
LINE
  5
5C3
330
1F
100
AcDbEntity
  8
profile
 67
0
100
AcDbLine
 10
4.96951707916
 20
-48.38
 11
6.5809586176
 21
-48.35
  0
LINE
  5
5C4
330
1F
100
AcDbEntity
  8
profile
 67
0
100
AcDbLine
 10
6.5809586176
 20
-48.35
 11
8.28364605979
 21
-48.23
  0
LINE
  5
5C5
330
1F
100
AcDbEntity
  8
profile
 67
0
100
AcDbLine
 10
8.28364605979
 20
-48.23
 11
9.4574430263
 21
-48.62
  0
LINE
  5
5C6
330
1F
100
AcDbEntity
  8
profile
 67
0
100
AcDbLine
 10
9.4574430263
 20
-48.62
 11
10.0880500057
 21
-49.35
  0
LINE
  5
5C7
330
1F
100
AcDbEntity
  8
profile
 67
0
100
AcDbLine
 10
10.0880500057
 20
-49.35
 11
10.4105032512
 21
-49.58
  0
LINE
  5
5C8
330
1F
100
AcDbEntity
  8
profile
 67
0
100
AcDbLine
 10
10.4105032512
 20
-49.58
 11
10.5739094081
 21
-49.67
  0
LINE
  5
5C9
330
1F
100
AcDbEntity
  8
profile
 67
0
100
AcDbLine
 10
10.5739094081
 20
-49.67
 11
10.9924977825
 21
-49.73
  0
LINE
  5
5CA
330
1F
100
AcDbEntity
  8
profile
 67
0
100
AcDbLine
 10
10.9924977825
 20
-49.73
 11
11.6869739493
 21
-49.52
  0
LINE
  5
5CB
330
1F
100
AcDbEntity
  8
profile
 67
0
100
AcDbLine
 10
11.6869739493
 20
-49.52
 11
11.8295419922
 21
-49.41
  0
LINE
  5
5CC
330
1F
100
AcDbEntity
  8
profile
 67
0
100
AcDbLine
 10
11.8295419922
 20
-49.41
 11
12.308862792
 21
-48.96
  0
LINE
  5
5CD
330
1F
100
AcDbEntity
  8
profile
 67
0
100
AcDbLine
 10
12.308862792
 20
-48.96
 11
13.4916429737
 21
-48.5
  0
LINE
  5
5CE
330
1F
100
AcDbEntity
  8
profile
 67
0
100
AcDbLine
 10
13.4916429737
 20
-48.5
 11
15.9852067902
 21
-48.17
  0
LINE
  5
5CF
330
1F
100
AcDbEntity
  8
profile
 67
0
100
AcDbLine
 10
15.9852067902
 20
-48.17
 11
18.5504007028
 21
-48.23
  0
LINE
  5
5D0
330
1F
100
AcDbEntity
  8
profile
 67
0
100
AcDbLine
 10
18.5504007028
 20
-48.23
 11
23.6235939213
 21
-48.27
  0
LINE
  5
5D1
330
1F
100
AcDbEntity
  8
profile
 67
0
100
AcDbLine
 10
23.6235939213
 20
-48.27
 11
34.7143034723
 21
-48.35
  0
LINE
  5
5D2
330
1F
100
AcDbEntity
  8
profile
 67
0
100
AcDbLine
 10
34.7143034723
 20
-48.35
 11
45.9582864294
 21
-48.45
  0
LINE
  5
5D3
330
1F
100
AcDbEntity
  8
frame
 67
0
100
AcDbLine
 10
0.0
 20
-76.0
 11
27.6854192575
 21
-76.0
  0
LINE
  5
5D4
330
1F
100
AcDbEntity
  8
frame
 67
0
100
AcDbLine
 10
27.6854192575
 20
-76.0
 11
27.6854192575
 21
-73.0
  0
LINE
  5
5D5
330
1F
100
AcDbEntity
  8
frame
 67
0
100
AcDbLine
 10
0.0
 20
-76.0
 11
0.0
 21
-73.0
  0
LINE
  5
5D6
330
1F
100
AcDbEntity
  8
frame
 67
0
100
AcDbLine
 10
0.0
 20
-73.0
 11
27.6854192575
 21
-73.0
  0
LINE
  5
5D7
330
1F
100
AcDbEntity
  8
profile
 67
0
100
AcDbLine
 10
0.0
 20
-73.75
 11
2.98048861896
 21
-73.66
  0
LINE
  5
5D8
330
1F
100
AcDbEntity
  8
profile
 67
0
100
AcDbLine
 10
2.98048861896
 20
-73.66
 11
6.50480591563
 21
-73.46
  0
LINE
  5
5D9
330
1F
100
AcDbEntity
  8
profile
 67
0
100
AcDbLine
 10
6.50480591563
 20
-73.46
 11
7.24685173798
 21
-73.49
  0
LINE
  5
5DA
330
1F
100
AcDbEntity
  8
profile
 67
0
100
AcDbLine
 10
7.24685173798
 20
-73.49
 11
7.97015284071
 21
-73.27
  0
LINE
  5
5DB
330
1F
100
AcDbEntity
  8
profile
 67
0
100
AcDbLine
 10
7.97015284071
 20
-73.27
 11
9.25643485986
 21
-73.53
  0
LINE
  5
5DC
330
1F
100
AcDbEntity
  8
profile
 67
0
100
AcDbLine
 10
9.25643485986
 20
-73.53
 11
10.4566740873
 21
-74.09
  0
LINE
  5
5DD
330
1F
100
AcDbEntity
  8
profile
 67
0
100
AcDbLine
 10
10.4566740873
 20
-74.09
 11
11.1370603487
 21
-74.77
  0
LINE
  5
5DE
330
1F
100
AcDbEntity
  8
profile
 67
0
100
AcDbLine
 10
11.1370603487
 20
-74.77
 11
11.6496587265
 21
-74.89
  0
LINE
  5
5DF
330
1F
100
AcDbEntity
  8
profile
 67
0
100
AcDbLine
 10
11.6496587265
 20
-74.89
 11
11.7855956819
 21
-74.94
  0
LINE
  5
5E0
330
1F
100
AcDbEntity
  8
profile
 67
0
100
AcDbLine
 10
11.7855956819
 20
-74.94
 11
11.821957419
 21
-75.0
  0
LINE
  5
5E1
330
1F
100
AcDbEntity
  8
profile
 67
0
100
AcDbLine
 10
11.821957419
 20
-75.0
 11
12.3099594569
 21
-75.04
  0
LINE
  5
5E2
330
1F
100
AcDbEntity
  8
profile
 67
0
100
AcDbLine
 10
12.3099594569
 20
-75.04
 11
12.7730898891
 21
-75.08
  0
LINE
  5
5E3
330
1F
100
AcDbEntity
  8
profile
 67
0
100
AcDbLine
 10
12.7730898891
 20
-75.08
 11
13.0061335494
 21
-74.29
  0
LINE
  5
5E4
330
1F
100
AcDbEntity
  8
profile
 67
0
100
AcDbLine
 10
13.0061335494
 20
-74.29
 11
13.4834978924
 21
-74.04
  0
LINE
  5
5E5
330
1F
100
AcDbEntity
  8
profile
 67
0
100
AcDbLine
 10
13.4834978924
 20
-74.04
 11
14.5913543329
 21
-73.69
  0
LINE
  5
5E6
330
1F
100
AcDbEntity
  8
profile
 67
0
100
AcDbLine
 10
14.5913543329
 20
-73.69
 11
15.6039332549
 21
-73.59
  0
LINE
  5
5E7
330
1F
100
AcDbEntity
  8
profile
 67
0
100
AcDbLine
 10
15.6039332549
 20
-73.59
 11
17.7666441315
 21
-73.62
  0
LINE
  5
5E8
330
1F
100
AcDbEntity
  8
profile
 67
0
100
AcDbLine
 10
17.7666441315
 20
-73.62
 11
18.2218011385
 21
-73.68
  0
LINE
  5
5E9
330
1F
100
AcDbEntity
  8
profile
 67
0
100
AcDbLine
 10
18.2218011385
 20
-73.68
 11
20.3926135349
 21
-73.74
  0
LINE
  5
5EA
330
1F
100
AcDbEntity
  8
profile
 67
0
100
AcDbLine
 10
20.3926135349
 20
-73.74
 11
24.2803113111
 21
-73.88
  0
LINE
  5
5EB
330
1F
100
AcDbEntity
  8
profile
 67
0
100
AcDbLine
 10
24.2803113111
 20
-73.88
 11
27.6854192575
 21
-73.74
  0
LINE
  5
5EC
330
1F
100
AcDbEntity
  8
frame
 67
0
100
AcDbLine
 10
0.0
 20
-101.0
 11
30.2111206223
 21
-101.0
  0
LINE
  5
5ED
330
1F
100
AcDbEntity
  8
frame
 67
0
100
AcDbLine
 10
30.2111206223
 20
-101.0
 11
30.2111206223
 21
-98.0
  0
LINE
  5
5EE
330
1F
100
AcDbEntity
  8
frame
 67
0
100
AcDbLine
 10
0.0
 20
-101.0
 11
0.0
 21
-98.0
  0
LINE
  5
5EF
330
1F
100
AcDbEntity
  8
frame
 67
0
100
AcDbLine
 10
0.0
 20
-98.0
 11
30.2111206223
 21
-98.0
  0
LINE
  5
5F0
330
1F
100
AcDbEntity
  8
profile
 67
0
100
AcDbLine
 10
0.0
 20
-99.12
 11
7.07997873267
 21
-99.19
  0
LINE
  5
5F1
330
1F
100
AcDbEntity
  8
profile
 67
0
100
AcDbLine
 10
7.07997873267
 20
-99.19
 11
9.05704698011
 21
-98.93
  0
LINE
  5
5F2
330
1F
100
AcDbEntity
  8
profile
 67
0
100
AcDbLine
 10
9.05704698011
 20
-98.93
 11
10.0497434732
 21
-98.99
  0
LINE
  5
5F3
330
1F
100
AcDbEntity
  8
profile
 67
0
100
AcDbLine
 10
10.0497434732
 20
-98.99
 11
11.9651155217
 21
-99.29
  0
LINE
  5
5F4
330
1F
100
AcDbEntity
  8
profile
 67
0
100
AcDbLine
 10
11.9651155217
 20
-99.29
 11
12.7644244226
 21
-99.66
  0
LINE
  5
5F5
330
1F
100
AcDbEntity
  8
profile
 67
0
100
AcDbLine
 10
12.7644244226
 20
-99.66
 11
13.9755325805
 21
-100.71
  0
LINE
  5
5F6
330
1F
100
AcDbEntity
  8
profile
 67
0
100
AcDbLine
 10
13.9755325805
 20
-100.71
 11
14.1472236498
 21
-100.68
  0
LINE
  5
5F7
330
1F
100
AcDbEntity
  8
profile
 67
0
100
AcDbLine
 10
14.1472236498
 20
-100.68
 11
14.2391134834
 21
-100.77
  0
LINE
  5
5F8
330
1F
100
AcDbEntity
  8
profile
 67
0
100
AcDbLine
 10
14.2391134834
 20
-100.77
 11
14.5875394078
 21
-100.81
  0
LINE
  5
5F9
330
1F
100
AcDbEntity
  8
profile
 67
0
100
AcDbLine
 10
14.5875394078
 20
-100.81
 11
14.8745930258
 21
-100.77
  0
LINE
  5
5FA
330
1F
100
AcDbEntity
  8
profile
 67
0
100
AcDbLine
 10
14.8745930258
 20
-100.77
 11
14.9928859167
 21
-100.64
  0
LINE
  5
5FB
330
1F
100
AcDbEntity
  8
profile
 67
0
100
AcDbLine
 10
14.9928859167
 20
-100.64
 11
15.2813484971
 21
-100.54
  0
LINE
  5
5FC
330
1F
100
AcDbEntity
  8
profile
 67
0
100
AcDbLine
 10
15.2813484971
 20
-100.54
 11
16.2575046702
 21
-99.28
  0
LINE
  5
5FD
330
1F
100
AcDbEntity
  8
profile
 67
0
100
AcDbLine
 10
16.2575046702
 20
-99.28
 11
17.1523382281
 21
-98.98
  0
LINE
  5
5FE
330
1F
100
AcDbEntity
  8
profile
 67
0
100
AcDbLine
 10
17.1523382281
 20
-98.98
 11
18.0090173823
 21
-98.88
  0
LINE
  5
5FF
330
1F
100
AcDbEntity
  8
profile
 67
0
100
AcDbLine
 10
18.0090173823
 20
-98.88
 11
18.9808342508
 21
-98.92
  0
LINE
  5
600
330
1F
100
AcDbEntity
  8
profile
 67
0
100
AcDbLine
 10
18.9808342508
 20
-98.92
 11
20.5278000882
 21
-99.18
  0
LINE
  5
601
330
1F
100
AcDbEntity
  8
profile
 67
0
100
AcDbLine
 10
20.5278000882
 20
-99.18
 11
22.4001987817
 21
-99.26
  0
LINE
  5
602
330
1F
100
AcDbEntity
  8
profile
 67
0
100
AcDbLine
 10
22.4001987817
 20
-99.26
 11
27.6594243684
 21
-99.28
  0
LINE
  5
603
330
1F
100
AcDbEntity
  8
profile
 67
0
100
AcDbLine
 10
27.6594243684
 20
-99.28
 11
30.2111206223
 21
-99.25
  0
LINE
  5
604
330
1F
100
AcDbEntity
  8
frame
 67
0
100
AcDbLine
 10
0.0
 20
-127.0
 11
23.9754861995
 21
-127.0
  0
LINE
  5
605
330
1F
100
AcDbEntity
  8
frame
 67
0
100
AcDbLine
 10
23.9754861995
 20
-127.0
 11
23.9754861995
 21
-124.0
  0
LINE
  5
606
330
1F
100
AcDbEntity
  8
frame
 67
0
100
AcDbLine
 10
0.0
 20
-127.0
 11
0.0
 21
-124.0
  0
LINE
  5
607
330
1F
100
AcDbEntity
  8
frame
 67
0
100
AcDbLine
 10
0.0
 20
-124.0
 11
23.9754861995
 21
-124.0
  0
LINE
  5
608
330
1F
100
AcDbEntity
  8
profile
 67
0
100
AcDbLine
 10
0.0
 20
-124.72
 11
6.40269920174
 21
-124.71
  0
LINE
  5
609
330
1F
100
AcDbEntity
  8
profile
 67
0
100
AcDbLine
 10
6.40269920174
 20
-124.71
 11
8.01903984279
 21
-124.61
  0
LINE
  5
60A
330
1F
100
AcDbEntity
  8
profile
 67
0
100
AcDbLine
 10
8.01903984279
 20
-124.61
 11
9.12475380326
 21
-124.59
  0
LINE
  5
60B
330
1F
100
AcDbEntity
  8
profile
 67
0
100
AcDbLine
 10
9.12475380326
 20
-124.59
 11
10.218275565
 21
-124.93
  0
LINE
  5
60C
330
1F
100
AcDbEntity
  8
profile
 67
0
100
AcDbLine
 10
10.218275565
 20
-124.93
 11
10.6890079676
 21
-125.7
  0
LINE
  5
60D
330
1F
100
AcDbEntity
  8
profile
 67
0
100
AcDbLine
 10
10.6890079676
 20
-125.7
 11
11.2220341144
 21
-126.01
  0
LINE
  5
60E
330
1F
100
AcDbEntity
  8
profile
 67
0
100
AcDbLine
 10
11.2220341144
 20
-126.01
 11
11.3546181057
 21
-126.09
  0
LINE
  5
60F
330
1F
100
AcDbEntity
  8
profile
 67
0
100
AcDbLine
 10
11.3546181057
 20
-126.09
 11
11.7015898187
 21
-126.11
  0
LINE
  5
610
330
1F
100
AcDbEntity
  8
profile
 67
0
100
AcDbLine
 10
11.7015898187
 20
-126.11
 11
11.978592132
 21
-126.09
  0
LINE
  5
611
330
1F
100
AcDbEntity
  8
profile
 67
0
100
AcDbLine
 10
11.978592132
 20
-126.09
 11
12.0385905837
 21
-126.04
  0
LINE
  5
612
330
1F
100
AcDbEntity
  8
profile
 67
0
100
AcDbLine
 10
12.0385905837
 20
-126.04
 11
12.7427517633
 21
-125.63
  0
LINE
  5
613
330
1F
100
AcDbEntity
  8
profile
 67
0
100
AcDbLine
 10
12.7427517633
 20
-125.63
 11
13.2092514491
 21
-125.1
  0
LINE
  5
614
330
1F
100
AcDbEntity
  8
profile
 67
0
100
AcDbLine
 10
13.2092514491
 20
-125.1
 11
14.1881196495
 21
-124.64
  0
LINE
  5
615
330
1F
100
AcDbEntity
  8
profile
 67
0
100
AcDbLine
 10
14.1881196495
 20
-124.64
 11
14.8915280718
 21
-124.57
  0
LINE
  5
616
330
1F
100
AcDbEntity
  8
profile
 67
0
100
AcDbLine
 10
14.8915280718
 20
-124.57
 11
16.122582278
 21
-124.46
  0
LINE
  5
617
330
1F
100
AcDbEntity
  8
profile
 67
0
100
AcDbLine
 10
16.122582278
 20
-124.46
 11
19.2760272008
 21
-124.63
  0
LINE
  5
618
330
1F
100
AcDbEntity
  8
profile
 67
0
100
AcDbLine
 10
19.2760272008
 20
-124.63
 11
23.9754861995
 21
-124.75
  0
LINE
  5
619
330
1F
100
AcDbEntity
  8
frame
 67
0
100
AcDbLine
 10
0.0
 20
-152.0
 11
36.5494116127
 21
-152.0
  0
LINE
  5
61A
330
1F
100
AcDbEntity
  8
frame
 67
0
100
AcDbLine
 10
36.5494116127
 20
-152.0
 11
36.5494116127
 21
-149.0
  0
LINE
  5
61B
330
1F
100
AcDbEntity
  8
frame
 67
0
100
AcDbLine
 10
0.0
 20
-152.0
 11
0.0
 21
-149.0
  0
LINE
  5
61C
330
1F
100
AcDbEntity
  8
frame
 67
0
100
AcDbLine
 10
0.0
 20
-149.0
 11
36.5494116127
 21
-149.0
  0
LINE
  5
61D
330
1F
100
AcDbEntity
  8
profile
 67
0
100
AcDbLine
 10
0.0
 20
-149.83
 11
13.1385425371
 21
-149.99
  0
LINE
  5
61E
330
1F
100
AcDbEntity
  8
profile
 67
0
100
AcDbLine
 10
13.1385425371
 20
-149.99
 11
14.8539549571
 21
-150.01
  0
LINE
  5
61F
330
1F
100
AcDbEntity
  8
profile
 67
0
100
AcDbLine
 10
14.8539549571
 20
-150.01
 11
16.6381371957
 21
-150.79
  0
LINE
  5
620
330
1F
100
AcDbEntity
  8
profile
 67
0
100
AcDbLine
 10
16.6381371957
 20
-150.79
 11
17.6330372355
 21
-151.58
  0
LINE
  5
621
330
1F
100
AcDbEntity
  8
profile
 67
0
100
AcDbLine
 10
17.6330372355
 20
-151.58
 11
18.0147084787
 21
-151.69
  0
LINE
  5
622
330
1F
100
AcDbEntity
  8
profile
 67
0
100
AcDbLine
 10
18.0147084787
 20
-151.69
 11
18.4319437091
 21
-151.75
  0
LINE
  5
623
330
1F
100
AcDbEntity
  8
profile
 67
0
100
AcDbLine
 10
18.4319437091
 20
-151.75
 11
19.2336999679
 21
-151.58
  0
LINE
  5
624
330
1F
100
AcDbEntity
  8
profile
 67
0
100
AcDbLine
 10
19.2336999679
 20
-151.58
 11
21.1959937868
 21
-150.44
  0
LINE
  5
625
330
1F
100
AcDbEntity
  8
profile
 67
0
100
AcDbLine
 10
21.1959937868
 20
-150.44
 11
22.9478534607
 21
-149.91
  0
LINE
  5
626
330
1F
100
AcDbEntity
  8
profile
 67
0
100
AcDbLine
 10
22.9478534607
 20
-149.91
 11
25.1394466697
 21
-149.75
  0
LINE
  5
627
330
1F
100
AcDbEntity
  8
profile
 67
0
100
AcDbLine
 10
25.1394466697
 20
-149.75
 11
36.5494116127
 21
-150.07
  0
LINE
  5
628
330
1F
100
AcDbEntity
  8
frame
 67
0
100
AcDbLine
 10
0.0
 20
-179.0
 11
24.9323622611
 21
-179.0
  0
LINE
  5
629
330
1F
100
AcDbEntity
  8
frame
 67
0
100
AcDbLine
 10
24.9323622611
 20
-179.0
 11
24.9323622611
 21
-174.0
  0
LINE
  5
62A
330
1F
100
AcDbEntity
  8
frame
 67
0
100
AcDbLine
 10
0.0
 20
-179.0
 11
0.0
 21
-174.0
  0
LINE
  5
62B
330
1F
100
AcDbEntity
  8
frame
 67
0
100
AcDbLine
 10
0.0
 20
-174.0
 11
24.9323622611
 21
-174.0
  0
LINE
  5
62C
330
1F
100
AcDbEntity
  8
profile
 67
0
100
AcDbLine
 10
0.0
 20
-175.1
 11
1.36894119668
 21
-176.01
  0
LINE
  5
62D
330
1F
100
AcDbEntity
  8
profile
 67
0
100
AcDbLine
 10
1.36894119668
 20
-176.01
 11
3.21469750049
 21
-177.76
  0
LINE
  5
62E
330
1F
100
AcDbEntity
  8
profile
 67
0
100
AcDbLine
 10
3.21469750049
 20
-177.76
 11
5.9659475882
 21
-178.6
  0
LINE
  5
62F
330
1F
100
AcDbEntity
  8
profile
 67
0
100
AcDbLine
 10
5.9659475882
 20
-178.6
 11
6.72112453632
 21
-178.73
  0
LINE
  5
630
330
1F
100
AcDbEntity
  8
profile
 67
0
100
AcDbLine
 10
6.72112453632
 20
-178.73
 11
7.71180172361
 21
-178.46
  0
LINE
  5
631
330
1F
100
AcDbEntity
  8
profile
 67
0
100
AcDbLine
 10
7.71180172361
 20
-178.46
 11
9.0987266067
 21
-177.53
  0
LINE
  5
632
330
1F
100
AcDbEntity
  8
profile
 67
0
100
AcDbLine
 10
9.0987266067
 20
-177.53
 11
10.8602266734
 21
-175.85
  0
LINE
  5
633
330
1F
100
AcDbEntity
  8
profile
 67
0
100
AcDbLine
 10
10.8602266734
 20
-175.85
 11
15.9196506361
 21
-175.26
  0
LINE
  5
634
330
1F
100
AcDbEntity
  8
profile
 67
0
100
AcDbLine
 10
15.9196506361
 20
-175.26
 11
21.5143806975
 21
-174.91
  0
LINE
  5
635
330
1F
100
AcDbEntity
  8
profile
 67
0
100
AcDbLine
 10
21.5143806975
 20
-174.91
 11
24.9323622611
 21
-174.72
  0
ENDSEC
  0
SECTION
  2
OBJECTS
  0
DICTIONARY
  5
C
330
0
100
AcDbDictionary
281
1
  3
ACAD_COLOR
350
73
  3
ACAD_GROUP
350
D
  3
ACAD_LAYOUT
350
1A
  3
ACAD_MATERIAL
350
72
  3
ACAD_MLEADERSTYLE
350
D7
  3
ACAD_MLINESTYLE
350
17
  3
ACAD_PLOTSETTINGS
350
19
  3
ACAD_PLOTSTYLENAME
350
E
  3
ACAD_SCALELIST
350
B6
  3
ACAD_TABLESTYLE
350
86
  3
ACAD_VISUALSTYLE
350
99
  3
ACDB_RECOMPOSE_DATA
350
443
  3
AcDbVariableDictionary
350
66
  0
DICTIONARY
  5
2A2
330
2
100
AcDbDictionary
280
1
281
1
  3
ACAD_LAYERSTATES
360
2A3
  0
DICTIONARY
  5
E6
330
10
100
AcDbDictionary
280
1
281
1
  0
DICTIONARY
  5
15D
330
1F
100
AcDbDictionary
280
1
281
1
  0
DICTIONARY
  5
28C
330
28B
100
AcDbDictionary
280
1
281
1
  3
ASDK_XREC_ANNOTATION_SCALE_INFO
360
28D
  0
DICTIONARY
  5
291
330
290
100
AcDbDictionary
280
1
281
1
  3
ASDK_XREC_ANNOTATION_SCALE_INFO
360
292
  0
DICTIONARY
  5
73
102
{ACAD_REACTORS
330
C
102
}
330
C
100
AcDbDictionary
281
1
  0
DICTIONARY
  5
D
102
{ACAD_REACTORS
330
C
102
}
330
C
100
AcDbDictionary
281
1
  0
DICTIONARY
  5
1A
102
{ACAD_REACTORS
330
C
102
}
330
C
100
AcDbDictionary
281
1
  3
Layout1
350
59
  3
Model
350
22
  0
DICTIONARY
  5
72
102
{ACAD_REACTORS
330
C
102
}
330
C
100
AcDbDictionary
281
1
  3
ByBlock
350
97
  3
ByLayer
350
96
  3
Global
350
98
  0
DICTIONARY
  5
D7
102
{ACAD_REACTORS
330
C
102
}
330
C
100
AcDbDictionary
281
1
  3
Annotative
350
E5
  3
Civil-Metric
350
288
  3
Standard
350
D8
  0
DICTIONARY
  5
17
102
{ACAD_REACTORS
330
C
102
}
330
C
100
AcDbDictionary
281
1
  3
Standard
350
18
  0
DICTIONARY
  5
19
102
{ACAD_REACTORS
330
C
102
}
330
C
100
AcDbDictionary
281
1
  0
ACDBDICTIONARYWDFLT
  5
E
102
{ACAD_REACTORS
330
C
102
}
330
C
100
AcDbDictionary
281
1
  3
Normal
350
F
100
AcDbDictionaryWithDefault
340
F
  0
DICTIONARY
  5
B6
102
{ACAD_REACTORS
330
C
102
}
330
C
100
AcDbDictionary
281
1
  3
A0
350
B7
  3
A1
350
347
  3
A2
350
348
  3
A3
350
349
  3
A4
350
34A
  3
A5
350
34B
  3
A6
350
34C
  3
A7
350
34D
  3
A8
350
34E
  3
A9
350
34F
  3
B0
350
350
  3
B1
350
351
  3
B2
350
352
  3
B3
350
353
  3
B4
350
354
  3
B5
350
355
  3
B6
350
356
  0
DICTIONARY
  5
86
102
{ACAD_REACTORS
330
C
102
}
330
C
100
AcDbDictionary
281
1
  3
Standard
350
87
  0
DICTIONARY
  5
99
102
{ACAD_REACTORS
330
C
102
}
330
C
100
AcDbDictionary
281
1
  3
2dWireframe
350
9F
  3
3D Hidden
350
A1
  3
3dWireframe
350
A0
  3
Basic
350
9E
  3
Brighten
350
A5
  3
ColorChange
350
A9
  3
Conceptual
350
A2
  3
Dim
350
A4
  3
EdgeColorOff
350
3B8
  3
Facepattern
350
A8
  3
Flat
350
9A
  3
FlatWithEdges
350
9B
  3
Gouraud
350
9C
  3
GouraudWithEdges
350
9D
  3
JitterOff
350
3B6
  3
Linepattern
350
A7
  3
OverhangOff
350
3B7
  3
Realistic
350
A3
  3
Thicken
350
A6
  0
XRECORD
  5
443
102
{ACAD_REACTORS
330
C
102
}
330
C
100
AcDbXrecord
280
1
 90
1
330
87
  0
DICTIONARY
  5
66
102
{ACAD_REACTORS
330
C
102
}
330
C
100
AcDbDictionary
281
1
  3
ANNOALLVISIBLE
350
38E
  3
CANNOSCALE
350
F0
  3
CMLEADERSTYLE
350
EF
  3
CTABLESTYLE
350
89
  3
DIMASSOC
350
67
  3
HIDETEXT
350
6B
  3
INDEXCTL
350
3D2
  3
LAYEREVAL
350
14D
  3
LAYERNOTIFY
350
14E
  3
LIGHTINGUNITS
350
38F
  3
MSLTSCALE
350
3D0
  3
SORTENTS
350
3D1
  3
XCLIPFRAME
350
3D3
  0
DICTIONARY
  5
2A3
102
{ACAD_REACTORS
330
2A2
102
}
330
2A2
100
AcDbDictionary
281
1
  0
XRECORD
  5
28D
102
{ACAD_REACTORS
330
28C
102
}
330
28C
100
AcDbXrecord
280
1
 90
1
340
B7
  0
XRECORD
  5
292
102
{ACAD_REACTORS
330
291
102
}
330
291
100
AcDbXrecord
280
1
 90
1
340
B7
  0
LAYOUT
  5
59
102
{ACAD_XDICTIONARY
360
2A7
102
}
102
{ACAD_REACTORS
330
1A
102
}
330
1A
100
AcDbPlotSettings
  1

  2
DWFx ePlot (XPS Compatible).pc3
  4
ANSI_A_(8.50_x_11.00_Inches)
  6

 40
5.79374980927
 41
17.7937507629
 42
5.79374694824
 43
17.793762207
 44
215.899993896
 45
279.399993896
 46
0.0
 47
0.0
 48
0.0
 49
0.0
140
0.0
141
0.0
142
1.0
143
1.0
 70
688
 72
0
 73
1
 74
5
  7
acad.ctb
 75
16
147
1.0
 76
0
 77
2
 78
300
148
0.0
149
0.0
100
AcDbLayout
  1
Layout1
 70
1
 71
1
 10
-0.700541819174
 20
-0.228100386192
 11
10.2994579405
 21
8.27189937351
 12
0.0
 22
0.0
 32
0.0
 14
0.628866766397
 24
0.799999952316
 34
0.0
 15
9.02886638493
 25
7.19999957085
 35
0.0
146
0.0
 13
0.0
 23
0.0
 33
0.0
 16
1.0
 26
0.0
 36
0.0
 17
0.0
 27
1.0
 37
0.0
 76
0
330
58
331
28B
1001
ACAD_PSEXT
1000
DWFx ePlot (XPS Compatible).pc3
1000
DWFx ePlot (XPS Compatible)
1000
File
1000

1070
0
  0
LAYOUT
  5
22
102
{ACAD_REACTORS
330
1A
102
}
330
1A
100
AcDbPlotSettings
  1

  2
DWFx ePlot (XPS Compatible).pc3
  4
ANSI_A_(8.50_x_11.00_Inches)
  6

 40
5.79374980927
 41
17.7937507629
 42
5.79374694824
 43
17.793762207
 44
215.899993896
 45
279.399993896
 46
0.0
 47
0.0
 48
0.0
 49
0.0
140
0.0
141
0.0
142
1.0
143
14.5331733076
 70
11952
 72
0
 73
1
 74
0
  7

 75
0
147
0.0688080970917
 76
0
 77
2
 78
300
148
114.981416068
149
300.29102464
100
AcDbLayout
  1
Model
 70
1
 71
0
 10
0.0
 20
0.0
 11
12.0
 21
9.0
 12
0.0
 22
0.0
 32
0.0
 14
0.0
 24
0.0
 34
0.0
 15
0.0
 25
0.0
 35
0.0
146
0.0
 13
0.0
 23
0.0
 33
0.0
 16
1.0
 26
0.0
 36
0.0
 17
0.0
 27
1.0
 37
0.0
 76
0
330
1F
331
94
1001
ACAD_PSEXT
1000
DWFx ePlot (XPS Compatible).pc3
1000
DWFx ePlot (XPS Compatible)
1000
File
1000

1070
0
  0
MATERIAL
  5
97
102
{ACAD_XDICTIONARY
360
447
102
}
102
{ACAD_REACTORS
330
72
102
}
330
72
100
AcDbMaterial
  1
ByBlock
  0
MATERIAL
  5
96
102
{ACAD_XDICTIONARY
360
445
102
}
102
{ACAD_REACTORS
330
72
102
}
330
72
100
AcDbMaterial
  1
ByLayer
  0
MATERIAL
  5
98
102
{ACAD_XDICTIONARY
360
110
102
}
102
{ACAD_REACTORS
330
72
102
}
330
72
100
AcDbMaterial
  1
Global
 43
0.0208000000566
 43
0.0
 43
0.0
 43
0.0
 43
0.0
 43
0.0208000000566
 43
0.0
 43
0.0
 43
0.0
 43
0.0
 43
1.0
 43
0.0
 43
0.0
 43
0.0
 43
0.0
 43
1.0
 49
0.0208000000566
 49
0.0
 49
0.0
 49
0.0
 49
0.0
 49
0.0208000000566
 49
0.0
 49
0.0
 49
0.0
 49
0.0
 49
1.0
 49
0.0
 49
0.0
 49
0.0
 49
0.0
 49
1.0
142
0.0208000000566
142
0.0
142
0.0
142
0.0
142
0.0
142
0.0208000000566
142
0.0
142
0.0
142
0.0
142
0.0
142
1.0
142
0.0
142
0.0
142
0.0
142
0.0
142
1.0
144
0.0208000000566
144
0.0
144
0.0
144
0.0
144
0.0
144
0.0208000000566
144
0.0
144
0.0
144
0.0
144
0.0
144
1.0
144
0.0
144
0.0
144
0.0
144
0.0
144
1.0
1001
ACAD
1070
-1
1070
3
1070
0
1000

1071
0
1070
0
  0
MLEADERSTYLE
  5
E5
102
{ACAD_REACTORS
330
D7
102
}
330
D7
100
AcDbMLeaderStyle
170
2
171
1
172
0
 90
2
 40
0.0
 41
0.0
173
1
 91
-1056964608
340
14
 92
-2
290
1
 42
2.0
291
1
 43
9.0
  3
Standard
 44
4.0
300

342
11
174
1
178
1
175
1
176
0
 93
-1056964608
 45
4.0
292
0
297
0
 46
0.18
 94
-1056964608
 47
1.0
 49
1.0
140
1.0
293
1
141
0.0
294
1
177
0
142
1.0
295
0
296
1
143
3.0
1001
ACAD_MLEADERVER
1070
2
  0
MLEADERSTYLE
  5
288
102
{ACAD_REACTORS
330
D7
102
}
330
D7
100
AcDbMLeaderStyle
170
2
171
1
172
0
 90
2
 40
0.0
 41
0.0
173
1
 91
-1056964608
340
14
 92
-2
290
1
 42
2.0
291
1
 43
7.0
  3
Standard
 44
3.0
300

342
178
174
1
178
1
175
1
176
0
 93
-1056964608
 45
3.0
292
0
297
1
 46
0.18
 94
-1056964608
 47
1.0
 49
1.0
140
1.0
293
1
141
0.0
294
1
177
0
142
1.0
295
0
296
1
143
3.0
1001
ACAD_MLEADERVER
1070
2
  0
MLEADERSTYLE
  5
D8
102
{ACAD_REACTORS
330
D7
102
}
330
D7
100
AcDbMLeaderStyle
170
2
171
1
172
0
 90
2
 40
0.0
 41
0.0
173
1
 91
-1056964608
340
14
 92
-2
290
1
 42
2.0
291
1
 43
9.0
  3
Standard
 44
4.0
300

342
11
174
1
178
1
175
1
176
0
 93
-1056964608
 45
4.0
292
0
297
0
 46
0.18
 94
-1056964608
 47
1.0
 49
1.0
140
1.0
293
1
141
0.0
294
1
177
0
142
1.0
295
0
296
0
143
3.0
1001
ACAD_MLEADERVER
1070
2
  0
MLINESTYLE
  5
18
102
{ACAD_REACTORS
330
17
102
}
330
17
100
AcDbMlineStyle
  2
STANDARD
 70
0
  3

 62
256
 51
90.0
 52
90.0
 71
2
 49
0.5
 62
256
  6
BYLAYER
 49
-0.5
 62
256
  6
BYLAYER
  0
ACDBPLACEHOLDER
  5
F
102
{ACAD_REACTORS
330
E
102
}
330
E
  0
SCALE
  5
B7
102
{ACAD_REACTORS
330
B6
102
}
330
B6
100
AcDbScale
 70
0
300
1:1
140
1.0
141
1.0
290
1
  0
SCALE
  5
347
102
{ACAD_REACTORS
330
B6
102
}
330
B6
100
AcDbScale
 70
0
300
1:2
140
1.0
141
2.0
290
0
  0
SCALE
  5
348
102
{ACAD_REACTORS
330
B6
102
}
330
B6
100
AcDbScale
 70
0
300
1:4
140
1.0
141
4.0
290
0
  0
SCALE
  5
349
102
{ACAD_REACTORS
330
B6
102
}
330
B6
100
AcDbScale
 70
0
300
1:5
140
1.0
141
5.0
290
0
  0
SCALE
  5
34A
102
{ACAD_REACTORS
330
B6
102
}
330
B6
100
AcDbScale
 70
0
300
1:8
140
1.0
141
8.0
290
0
  0
SCALE
  5
34B
102
{ACAD_REACTORS
330
B6
102
}
330
B6
100
AcDbScale
 70
0
300
1:10
140
1.0
141
10.0
290
0
  0
SCALE
  5
34C
102
{ACAD_REACTORS
330
B6
102
}
330
B6
100
AcDbScale
 70
0
300
1:16
140
1.0
141
16.0
290
0
  0
SCALE
  5
34D
102
{ACAD_REACTORS
330
B6
102
}
330
B6
100
AcDbScale
 70
0
300
1:20
140
1.0
141
20.0
290
0
  0
SCALE
  5
34E
102
{ACAD_REACTORS
330
B6
102
}
330
B6
100
AcDbScale
 70
0
300
1:30
140
1.0
141
30.0
290
0
  0
SCALE
  5
34F
102
{ACAD_REACTORS
330
B6
102
}
330
B6
100
AcDbScale
 70
0
300
1:40
140
1.0
141
40.0
290
0
  0
SCALE
  5
350
102
{ACAD_REACTORS
330
B6
102
}
330
B6
100
AcDbScale
 70
0
300
1:50
140
1.0
141
50.0
290
0
  0
SCALE
  5
351
102
{ACAD_REACTORS
330
B6
102
}
330
B6
100
AcDbScale
 70
0
300
1:100
140
1.0
141
100.0
290
0
  0
SCALE
  5
352
102
{ACAD_REACTORS
330
B6
102
}
330
B6
100
AcDbScale
 70
0
300
2:1
140
2.0
141
1.0
290
0
  0
SCALE
  5
353
102
{ACAD_REACTORS
330
B6
102
}
330
B6
100
AcDbScale
 70
0
300
4:1
140
4.0
141
1.0
290
0
  0
SCALE
  5
354
102
{ACAD_REACTORS
330
B6
102
}
330
B6
100
AcDbScale
 70
0
300
8:1
140
8.0
141
1.0
290
0
  0
SCALE
  5
355
102
{ACAD_REACTORS
330
B6
102
}
330
B6
100
AcDbScale
 70
0
300
10:1
140
10.0
141
1.0
290
0
  0
SCALE
  5
356
102
{ACAD_REACTORS
330
B6
102
}
330
B6
100
AcDbScale
 70
0
300
100:1
140
100.0
141
1.0
290
0
  0
TABLESTYLE
  5
87
102
{ACAD_XDICTIONARY
360
104
102
}
102
{ACAD_REACTORS
330
86
102
}
330
86
100
AcDbTableStyle
  3
Standard
 70
0
 71
0
 40
0.06
 41
0.06
280
0
281
0
  7
Standard
140
0.18
170
2
 62
0
 63
7
283
0
274
-2
284
1
 64
0
275
-2
285
1
 65
0
276
-2
286
1
 66
0
277
-2
287
1
 67
0
278
-2
288
1
 68
0
279
-2
289
1
 69
0
  7
Standard
140
0.25
170
5
 62
0
 63
7
283
0
274
-2
284
1
 64
0
275
-2
285
1
 65
0
276
-2
286
1
 66
0
277
-2
287
1
 67
0
278
-2
288
1
 68
0
279
-2
289
1
 69
0
  7
Standard
140
0.18
170
5
 62
0
 63
7
283
0
274
-2
284
1
 64
0
275
-2
285
1
 65
0
276
-2
286
1
 66
0
277
-2
287
1
 67
0
278
-2
288
1
 68
0
279
-2
289
1
 69
0
  0
VISUALSTYLE
  5
9F
102
{ACAD_XDICTIONARY
360
454
102
}
102
{ACAD_REACTORS
330
99
102
}
330
99
100
AcDbVisualStyle
  2
2dWireframe
 70
4
 71
0
 72
2
 73
1
 90
0
 40
-0.6
 41
-30.0
 62
5
 63
7
421
16777215
 74
1
 91
4
 64
7
 65
257
 75
1
175
1
 42
1.0
 92
0
 66
257
 43
1.0
 76
1
 77
6
 78
2
 67
7
 79
5
170
0
171
0
290
0
174
0
 93
1
 44
0.0
173
0
291
0
 45
0.0
1001
ACAD
1000
AcDbSavedByObjectVersion
1070
0
  0
VISUALSTYLE
  5
A1
102
{ACAD_XDICTIONARY
360
458
102
}
102
{ACAD_REACTORS
330
99
102
}
330
99
100
AcDbVisualStyle
  2
3D Hidden
 70
6
 71
1
 72
2
 73
2
 90
0
 40
-0.6
 41
-30.0
 62
5
 63
7
421
16777215
 74
2
 91
2
 64
7
 65
257
 75
2
175
1
 42
40.0
 92
0
 66
257
 43
1.0
 76
1
 77
6
 78
2
 67
7
 79
3
170
0
171
0
290
0
174
0
 93
1
 44
0.0
173
0
291
0
 45
0.0
1001
ACAD
1000
AcDbSavedByObjectVersion
1070
0
  0
VISUALSTYLE
  5
A0
102
{ACAD_XDICTIONARY
360
456
102
}
102
{ACAD_REACTORS
330
99
102
}
330
99
100
AcDbVisualStyle
  2
3dWireframe
 70
5
 71
0
 72
2
 73
1
 90
0
 40
-0.6
 41
-30.0
 62
5
 63
7
421
16777215
 74
1
 91
4
 64
7
 65
257
 75
1
175
1
 42
1.0
 92
0
 66
257
 43
1.0
 76
1
 77
6
 78
2
 67
7
 79
5
170
0
171
0
290
0
174
0
 93
1
 44
0.0
173
0
291
0
 45
0.0
1001
ACAD
1000
AcDbSavedByObjectVersion
1070
0
  0
VISUALSTYLE
  5
9E
102
{ACAD_XDICTIONARY
360
452
102
}
102
{ACAD_REACTORS
330
99
102
}
330
99
100
AcDbVisualStyle
  2
Basic
 70
7
 71
1
 72
0
 73
1
 90
0
 40
-0.6
 41
-30.0
 62
5
 63
7
421
16777215
 74
0
 91
4
 64
7
 65
257
 75
1
175
1
 42
1.0
 92
8
 66
7
 43
1.0
 76
1
 77
6
 78
2
 67
7
 79
5
170
0
171
0
290
0
174
0
 93
1
 44
0.0
173
0
291
1
 45
0.0
1001
ACAD
1000
AcDbSavedByObjectVersion
1070
0
  0
VISUALSTYLE
  5
A5
102
{ACAD_XDICTIONARY
360
460
102
}
102
{ACAD_REACTORS
330
99
102
}
330
99
100
AcDbVisualStyle
  2
Brighten
 70
12
 71
2
 72
2
 73
1
 90
0
 40
-0.6
 41
-30.0
 62
5
 63
7
421
16777215
 74
1
 91
4
 64
7
 65
257
 75
1
175
1
 42
1.0
 92
8
 66
7
 43
1.0
 76
1
 77
6
 78
2
 67
7
 79
5
170
0
171
0
290
0
174
0
 93
1
 44
50.0
173
0
291
1
 45
0.0
1001
ACAD
1000
AcDbSavedByObjectVersion
1070
0
  0
VISUALSTYLE
  5
A9
102
{ACAD_XDICTIONARY
360
468
102
}
102
{ACAD_REACTORS
330
99
102
}
330
99
100
AcDbVisualStyle
  2
ColorChange
 70
16
 71
2
 72
2
 73
3
 90
0
 40
-0.6
 41
-30.0
 62
5
 63
8
421
8421504
 74
1
 91
4
 64
7
 65
257
 75
1
175
1
 42
1.0
 92
8
 66
8
424
8421504
 43
1.0
 76
1
 77
6
 78
2
 67
7
 79
5
170
0
171
0
290
0
174
0
 93
1
 44
0.0
173
0
291
1
 45
0.0
1001
ACAD
1000
AcDbSavedByObjectVersion
1070
0
  0
VISUALSTYLE
  5
A2
102
{ACAD_XDICTIONARY
360
45A
102
}
102
{ACAD_REACTORS
330
99
102
}
330
99
100
AcDbVisualStyle
  2
Conceptual
 70
9
 71
3
 72
2
 73
1
 90
0
 40
-0.6
 41
-30.0
 62
5
 63
7
421
16777215
 74
2
 91
2
 64
7
 65
257
 75
1
175
1
 42
40.0
 92
8
 66
7
 43
1.0
 76
1
 77
6
 78
2
 67
7
 79
3
170
0
171
0
290
0
174
0
 93
1
 44
0.0
173
0
291
0
 45
0.0
1001
ACAD
1000
AcDbSavedByObjectVersion
1070
0
  0
VISUALSTYLE
  5
A4
102
{ACAD_XDICTIONARY
360
45E
102
}
102
{ACAD_REACTORS
330
99
102
}
330
99
100
AcDbVisualStyle
  2
Dim
 70
11
 71
2
 72
2
 73
1
 90
0
 40
-0.6
 41
-30.0
 62
5
 63
7
421
16777215
 74
1
 91
4
 64
7
 65
257
 75
1
175
1
 42
1.0
 92
8
 66
7
 43
1.0
 76
1
 77
6
 78
2
 67
7
 79
5
170
0
171
0
290
0
174
0
 93
1
 44
-50.0
173
0
291
1
 45
0.0
1001
ACAD
1000
AcDbSavedByObjectVersion
1070
0
  0
VISUALSTYLE
  5
3B8
102
{ACAD_XDICTIONARY
360
46E
102
}
102
{ACAD_REACTORS
330
99
102
}
330
99
100
AcDbVisualStyle
  2
EdgeColorOff
 70
22
 71
2
 72
2
 73
0
 90
0
 40
-0.6
 41
-30.0
 62
5
 63
7
421
16777215
 74
1
 91
4
 64
7
 65
257
 75
1
175
1
 42
1.0
 92
8
 66
7
 43
1.0
 76
1
 77
6
 78
2
 67
7
 79
5
170
0
171
0
290
0
174
0
 93
1
 44
0.0
173
0
291
1
 45
0.0
1001
ACAD
1000
AcDbSavedByObjectVersion
1070
0
  0
VISUALSTYLE
  5
A8
102
{ACAD_XDICTIONARY
360
466
102
}
102
{ACAD_REACTORS
330
99
102
}
330
99
100
AcDbVisualStyle
  2
Facepattern
 70
15
 71
2
 72
2
 73
1
 90
0
 40
-0.6
 41
-30.0
 62
5
 63
7
421
16777215
 74
1
 91
4
 64
7
 65
257
 75
1
175
1
 42
1.0
 92
8
 66
7
 43
1.0
 76
1
 77
6
 78
2
 67
7
 79
5
170
0
171
0
290
0
174
0
 93
1
 44
0.0
173
0
291
1
 45
0.0
1001
ACAD
1000
AcDbSavedByObjectVersion
1070
0
  0
VISUALSTYLE
  5
9A
102
{ACAD_XDICTIONARY
360
44A
102
}
102
{ACAD_REACTORS
330
99
102
}
330
99
100
AcDbVisualStyle
  2
Flat
 70
0
 71
2
 72
1
 73
1
 90
2
 40
-0.6
 41
30.0
 62
5
 63
7
421
16777215
 74
0
 91
4
 64
7
 65
257
 75
1
175
1
 42
1.0
 92
8
 66
7
 43
1.0
 76
1
 77
6
 78
2
 67
7
 79
5
170
0
171
0
290
0
174
0
 93
1
 44
0.0
173
0
291
1
 45
0.0
1001
ACAD
1000
AcDbSavedByObjectVersion
1070
0
  0
VISUALSTYLE
  5
9B
102
{ACAD_XDICTIONARY
360
44C
102
}
102
{ACAD_REACTORS
330
99
102
}
330
99
100
AcDbVisualStyle
  2
FlatWithEdges
 70
1
 71
2
 72
1
 73
1
 90
2
 40
-0.6
 41
30.0
 62
5
 63
7
421
16777215
 74
1
 91
4
 64
7
 65
257
 75
1
175
1
 42
1.0
 92
0
 66
257
 43
1.0
 76
1
 77
6
 78
2
 67
7
 79
5
170
0
171
0
290
0
174
0
 93
1
 44
0.0
173
0
291
1
 45
0.0
1001
ACAD
1000
AcDbSavedByObjectVersion
1070
0
  0
VISUALSTYLE
  5
9C
102
{ACAD_XDICTIONARY
360
44E
102
}
102
{ACAD_REACTORS
330
99
102
}
330
99
100
AcDbVisualStyle
  2
Gouraud
 70
2
 71
2
 72
2
 73
1
 90
2
 40
-0.6
 41
30.0
 62
5
 63
7
421
16777215
 74
0
 91
4
 64
7
 65
257
 75
1
175
1
 42
1.0
 92
0
 66
7
 43
1.0
 76
1
 77
6
 78
2
 67
7
 79
5
170
0
171
0
290
0
174
0
 93
1
 44
0.0
173
0
291
1
 45
0.0
1001
ACAD
1000
AcDbSavedByObjectVersion
1070
0
  0
VISUALSTYLE
  5
9D
102
{ACAD_XDICTIONARY
360
450
102
}
102
{ACAD_REACTORS
330
99
102
}
330
99
100
AcDbVisualStyle
  2
GouraudWithEdges
 70
3
 71
2
 72
2
 73
1
 90
2
 40
-0.6
 41
30.0
 62
5
 63
7
421
16777215
 74
1
 91
4
 64
7
 65
257
 75
1
175
1
 42
1.0
 92
0
 66
257
 43
1.0
 76
1
 77
6
 78
2
 67
7
 79
5
170
0
171
0
290
0
174
0
 93
1
 44
0.0
173
0
291
1
 45
0.0
1001
ACAD
1000
AcDbSavedByObjectVersion
1070
0
  0
VISUALSTYLE
  5
3B6
102
{ACAD_XDICTIONARY
360
46A
102
}
102
{ACAD_REACTORS
330
99
102
}
330
99
100
AcDbVisualStyle
  2
JitterOff
 70
20
 71
2
 72
2
 73
0
 90
0
 40
-0.6
 41
-30.0
 62
5
 63
7
421
16777215
 74
1
 91
4
 64
7
 65
257
 75
1
175
1
 42
1.0
 92
10
 66
7
 43
1.0
 76
1
 77
6
 78
2
 67
7
 79
5
170
0
171
0
290
0
174
0
 93
1
 44
0.0
173
0
291
1
 45
0.0
1001
ACAD
1000
AcDbSavedByObjectVersion
1070
0
  0
VISUALSTYLE
  5
A7
102
{ACAD_XDICTIONARY
360
464
102
}
102
{ACAD_REACTORS
330
99
102
}
330
99
100
AcDbVisualStyle
  2
Linepattern
 70
14
 71
2
 72
2
 73
1
 90
0
 40
-0.6
 41
-30.0
 62
5
 63
7
421
16777215
 74
1
 91
4
 64
7
 65
257
 75
7
175
7
 42
1.0
 92
8
 66
7
 43
1.0
 76
1
 77
6
 78
2
 67
7
 79
5
170
0
171
0
290
0
174
0
 93
1
 44
0.0
173
0
291
1
 45
0.0
1001
ACAD
1000
AcDbSavedByObjectVersion
1070
0
  0
VISUALSTYLE
  5
3B7
102
{ACAD_XDICTIONARY
360
46C
102
}
102
{ACAD_REACTORS
330
99
102
}
330
99
100
AcDbVisualStyle
  2
OverhangOff
 70
21
 71
2
 72
2
 73
0
 90
0
 40
-0.6
 41
-30.0
 62
5
 63
7
421
16777215
 74
1
 91
4
 64
7
 65
257
 75
1
175
1
 42
1.0
 92
9
 66
7
 43
1.0
 76
1
 77
6
 78
2
 67
7
 79
5
170
0
171
0
290
0
174
0
 93
1
 44
0.0
173
0
291
1
 45
0.0
1001
ACAD
1000
AcDbSavedByObjectVersion
1070
0
  0
VISUALSTYLE
  5
A3
102
{ACAD_XDICTIONARY
360
45C
102
}
102
{ACAD_REACTORS
330
99
102
}
330
99
100
AcDbVisualStyle
  2
Realistic
 70
8
 71
2
 72
2
 73
1
 90
0
 40
-0.6
 41
-30.0
 62
5
 63
7
421
16777215
 74
1
 91
0
 64
7
 65
257
 75
1
175
1
 42
1.0
 92
8
 66
8
424
7895160
 43
1.0
 76
1
 77
6
 78
2
 67
7
 79
5
170
0
171
0
290
0
174
0
 93
13
 44
0.0
173
0
291
0
 45
0.0
1001
ACAD
1000
AcDbSavedByObjectVersion
1070
0
  0
VISUALSTYLE
  5
A6
102
{ACAD_XDICTIONARY
360
462
102
}
102
{ACAD_REACTORS
330
99
102
}
330
99
100
AcDbVisualStyle
  2
Thicken
 70
13
 71
2
 72
2
 73
1
 90
0
 40
-0.6
 41
-30.0
 62
5
 63
7
421
16777215
 74
1
 91
4
 64
7
 65
257
 75
1
175
1
 42
1.0
 92
12
 66
7
 43
1.0
 76
1
 77
6
 78
2
 67
7
 79
5
170
0
171
0
290
0
174
0
 93
1
 44
0.0
173
0
291
1
 45
0.0
1001
ACAD
1000
AcDbSavedByObjectVersion
1070
0
  0
DICTIONARYVAR
  5
38E
102
{ACAD_REACTORS
330
66
102
}
330
66
100
DictionaryVariables
280
0
  1
0
  0
DICTIONARYVAR
  5
F0
102
{ACAD_REACTORS
330
66
102
}
330
66
100
DictionaryVariables
280
0
  1
1:1
  0
DICTIONARYVAR
  5
EF
102
{ACAD_REACTORS
330
66
102
}
330
66
100
DictionaryVariables
280
0
  1
Civil-Metric
  0
DICTIONARYVAR
  5
89
102
{ACAD_REACTORS
330
66
102
}
330
66
100
DictionaryVariables
280
0
  1
STANDARD
  0
DICTIONARYVAR
  5
67
102
{ACAD_REACTORS
330
66
102
}
330
66
100
DictionaryVariables
280
0
  1
2
  0
DICTIONARYVAR
  5
6B
102
{ACAD_REACTORS
330
66
102
}
330
66
100
DictionaryVariables
280
0
  1
1
  0
DICTIONARYVAR
  5
3D2
102
{ACAD_REACTORS
330
66
102
}
330
66
100
DictionaryVariables
280
0
  1
0
  0
DICTIONARYVAR
  5
14D
102
{ACAD_REACTORS
330
66
102
}
330
66
100
DictionaryVariables
280
0
  1
0
  0
DICTIONARYVAR
  5
14E
102
{ACAD_REACTORS
330
66
102
}
330
66
100
DictionaryVariables
280
0
  1
0
  0
DICTIONARYVAR
  5
38F
102
{ACAD_REACTORS
330
66
102
}
330
66
100
DictionaryVariables
280
0
  1
1
  0
DICTIONARYVAR
  5
3D0
102
{ACAD_REACTORS
330
66
102
}
330
66
100
DictionaryVariables
280
0
  1
1
  0
DICTIONARYVAR
  5
3D1
102
{ACAD_REACTORS
330
66
102
}
330
66
100
DictionaryVariables
280
0
  1
127
  0
DICTIONARYVAR
  5
3D3
102
{ACAD_REACTORS
330
66
102
}
330
66
100
DictionaryVariables
280
0
  1
0
  0
DICTIONARY
  5
2A7
330
59
100
AcDbDictionary
280
1
281
1
  3
ADSK_XREC_LAYOUTTHUMBNAIL
360
2A8
  0
DICTIONARY
  5
447
330
97
100
AcDbDictionary
280
1
281
1
  3
ACAD_XREC_ROUNDTRIP
360
448
  0
DICTIONARY
  5
445
330
96
100
AcDbDictionary
280
1
281
1
  3
ACAD_XREC_ROUNDTRIP
360
446
  0
DICTIONARY
  5
110
330
98
100
AcDbDictionary
280
1
281
1
  3
ACAD_XREC_ROUNDTRIP
360
449
  3
BUMPTILE
360
112
  3
DIFFUSETILE
360
111
  3
OPACITYTILE
360
113
  3
REFLECTIONTILE
360
114
  0
DICTIONARY
  5
104
330
87
100
AcDbDictionary
280
1
281
1
  3
ACAD_ROUNDTRIP_2008_TABLESTYLE_CELLSTYLEMAP
360
442
  3
ACAD_XREC_ROUNDTRIP
360
444
  0
DICTIONARY
  5
454
330
9F
100
AcDbDictionary
280
1
281
1
  3
ACAD_XREC_ROUNDTRIP
360
455
  0
DICTIONARY
  5
458
330
A1
100
AcDbDictionary
280
1
281
1
  3
ACAD_XREC_ROUNDTRIP
360
459
  0
DICTIONARY
  5
456
330
A0
100
AcDbDictionary
280
1
281
1
  3
ACAD_XREC_ROUNDTRIP
360
457
  0
DICTIONARY
  5
452
330
9E
100
AcDbDictionary
280
1
281
1
  3
ACAD_XREC_ROUNDTRIP
360
453
  0
DICTIONARY
  5
460
330
A5
100
AcDbDictionary
280
1
281
1
  3
ACAD_XREC_ROUNDTRIP
360
461
  0
DICTIONARY
  5
468
330
A9
100
AcDbDictionary
280
1
281
1
  3
ACAD_XREC_ROUNDTRIP
360
469
  0
DICTIONARY
  5
45A
330
A2
100
AcDbDictionary
280
1
281
1
  3
ACAD_XREC_ROUNDTRIP
360
45B
  0
DICTIONARY
  5
45E
330
A4
100
AcDbDictionary
280
1
281
1
  3
ACAD_XREC_ROUNDTRIP
360
45F
  0
DICTIONARY
  5
46E
330
3B8
100
AcDbDictionary
280
1
281
1
  3
ACAD_XREC_ROUNDTRIP
360
46F
  0
DICTIONARY
  5
466
330
A8
100
AcDbDictionary
280
1
281
1
  3
ACAD_XREC_ROUNDTRIP
360
467
  0
DICTIONARY
  5
44A
330
9A
100
AcDbDictionary
280
1
281
1
  3
ACAD_XREC_ROUNDTRIP
360
44B
  0
DICTIONARY
  5
44C
330
9B
100
AcDbDictionary
280
1
281
1
  3
ACAD_XREC_ROUNDTRIP
360
44D
  0
DICTIONARY
  5
44E
330
9C
100
AcDbDictionary
280
1
281
1
  3
ACAD_XREC_ROUNDTRIP
360
44F
  0
DICTIONARY
  5
450
330
9D
100
AcDbDictionary
280
1
281
1
  3
ACAD_XREC_ROUNDTRIP
360
451
  0
DICTIONARY
  5
46A
330
3B6
100
AcDbDictionary
280
1
281
1
  3
ACAD_XREC_ROUNDTRIP
360
46B
  0
DICTIONARY
  5
464
330
A7
100
AcDbDictionary
280
1
281
1
  3
ACAD_XREC_ROUNDTRIP
360
465
  0
DICTIONARY
  5
46C
330
3B7
100
AcDbDictionary
280
1
281
1
  3
ACAD_XREC_ROUNDTRIP
360
46D
  0
DICTIONARY
  5
45C
330
A3
100
AcDbDictionary
280
1
281
1
  3
ACAD_XREC_ROUNDTRIP
360
45D
  0
DICTIONARY
  5
462
330
A6
100
AcDbDictionary
280
1
281
1
  3
ACAD_XREC_ROUNDTRIP
360
463
  0
XRECORD
  5
448
102
{ACAD_REACTORS
330
447
102
}
330
447
100
AcDbXrecord
280
1
102
MATERIAL
148
0.0
149
0.0
149
0.0
 93
0
 94
63
282
0
 72
1
 77
1
171
1
175
1
179
1
273
0
  0
XRECORD
  5
446
102
{ACAD_REACTORS
330
445
102
}
330
445
100
AcDbXrecord
280
1
102
MATERIAL
148
0.0
149
0.0
149
0.0
 93
0
 94
63
282
0
 72
1
 77
1
171
1
175
1
179
1
273
0
  0
XRECORD
  5
449
102
{ACAD_REACTORS
330
110
102
}
330
110
100
AcDbXrecord
280
1
102
MATERIAL
148
0.0
149
0.0
149
0.0
 93
0
 94
63
282
0
 72
1
 77
1
171
1
175
1
179
1
273
0
  0
XRECORD
  5
112
102
{ACAD_REACTORS
330
110
102
}
330
110
100
AcDbXrecord
280
1
270
1
271
1
  0
XRECORD
  5
111
102
{ACAD_REACTORS
330
110
102
}
330
110
100
AcDbXrecord
280
1
270
1
271
1
  0
XRECORD
  5
113
102
{ACAD_REACTORS
330
110
102
}
330
110
100
AcDbXrecord
280
1
270
1
271
1
  0
XRECORD
  5
114
102
{ACAD_REACTORS
330
110
102
}
330
110
100
AcDbXrecord
280
1
270
1
271
1
  0
CELLSTYLEMAP
  5
442
102
{ACAD_REACTORS
330
104
102
}
330
104
100
AcDbCellStyleMap
 90
3
300
CELLSTYLE
  1
TABLEFORMAT_BEGIN
 90
5
170
1
 91
0
 92
32768
 62
257
 93
1
300
CONTENTFORMAT
  1
CONTENTFORMAT_BEGIN
 90
0
 91
0
 92
512
 93
0
300

 40
0.0
140
1.0
 94
5
 62
0
340
11
144
0.25
309
CONTENTFORMAT_END
171
1
301
MARGIN
  1
CELLMARGIN_BEGIN
 40
0.06
 40
0.06
 40
0.06
 40
0.06
 40
0.18
 40
0.18
309
CELLMARGIN_END
 94
6
 95
1
302
GRIDFORMAT
  1
GRIDFORMAT_BEGIN
 90
0
 91
1
 62
0
 92
-2
340
0
 93
0
 40
0.045
309
GRIDFORMAT_END
 95
2
302
GRIDFORMAT
  1
GRIDFORMAT_BEGIN
 90
0
 91
1
 62
0
 92
-2
340
0
 93
0
 40
0.045
309
GRIDFORMAT_END
 95
4
302
GRIDFORMAT
  1
GRIDFORMAT_BEGIN
 90
0
 91
1
 62
0
 92
-2
340
0
 93
0
 40
0.045
309
GRIDFORMAT_END
 95
8
302
GRIDFORMAT
  1
GRIDFORMAT_BEGIN
 90
0
 91
1
 62
0
 92
-2
340
0
 93
0
 40
0.045
309
GRIDFORMAT_END
 95
16
302
GRIDFORMAT
  1
GRIDFORMAT_BEGIN
 90
0
 91
1
 62
0
 92
-2
340
0
 93
0
 40
0.045
309
GRIDFORMAT_END
 95
32
302
GRIDFORMAT
  1
GRIDFORMAT_BEGIN
 90
0
 91
1
 62
0
 92
-2
340
0
 93
0
 40
0.045
309
GRIDFORMAT_END
309
TABLEFORMAT_END
  1
CELLSTYLE_BEGIN
 90
1
 91
1
300
_TITLE
309
CELLSTYLE_END
300
CELLSTYLE
  1
TABLEFORMAT_BEGIN
 90
5
170
1
 91
0
 92
0
 62
257
 93
1
300
CONTENTFORMAT
  1
CONTENTFORMAT_BEGIN
 90
0
 91
0
 92
512
 93
0
300

 40
0.0
140
1.0
 94
5
 62
0
340
11
144
0.18
309
CONTENTFORMAT_END
171
1
301
MARGIN
  1
CELLMARGIN_BEGIN
 40
0.06
 40
0.06
 40
0.06
 40
0.06
 40
0.18
 40
0.18
309
CELLMARGIN_END
 94
6
 95
1
302
GRIDFORMAT
  1
GRIDFORMAT_BEGIN
 90
0
 91
1
 62
0
 92
-2
340
0
 93
0
 40
0.045
309
GRIDFORMAT_END
 95
2
302
GRIDFORMAT
  1
GRIDFORMAT_BEGIN
 90
0
 91
1
 62
0
 92
-2
340
0
 93
0
 40
0.045
309
GRIDFORMAT_END
 95
4
302
GRIDFORMAT
  1
GRIDFORMAT_BEGIN
 90
0
 91
1
 62
0
 92
-2
340
0
 93
0
 40
0.045
309
GRIDFORMAT_END
 95
8
302
GRIDFORMAT
  1
GRIDFORMAT_BEGIN
 90
0
 91
1
 62
0
 92
-2
340
0
 93
0
 40
0.045
309
GRIDFORMAT_END
 95
16
302
GRIDFORMAT
  1
GRIDFORMAT_BEGIN
 90
0
 91
1
 62
0
 92
-2
340
0
 93
0
 40
0.045
309
GRIDFORMAT_END
 95
32
302
GRIDFORMAT
  1
GRIDFORMAT_BEGIN
 90
0
 91
1
 62
0
 92
-2
340
0
 93
0
 40
0.045
309
GRIDFORMAT_END
309
TABLEFORMAT_END
  1
CELLSTYLE_BEGIN
 90
2
 91
1
300
_HEADER
309
CELLSTYLE_END
300
CELLSTYLE
  1
TABLEFORMAT_BEGIN
 90
5
170
1
 91
0
 92
0
 62
257
 93
1
300
CONTENTFORMAT
  1
CONTENTFORMAT_BEGIN
 90
0
 91
0
 92
512
 93
0
300

 40
0.0
140
1.0
 94
2
 62
0
340
11
144
0.18
309
CONTENTFORMAT_END
171
1
301
MARGIN
  1
CELLMARGIN_BEGIN
 40
0.06
 40
0.06
 40
0.06
 40
0.06
 40
0.18
 40
0.18
309
CELLMARGIN_END
 94
6
 95
1
302
GRIDFORMAT
  1
GRIDFORMAT_BEGIN
 90
0
 91
1
 62
0
 92
-2
340
0
 93
0
 40
0.045
309
GRIDFORMAT_END
 95
2
302
GRIDFORMAT
  1
GRIDFORMAT_BEGIN
 90
0
 91
1
 62
0
 92
-2
340
0
 93
0
 40
0.045
309
GRIDFORMAT_END
 95
4
302
GRIDFORMAT
  1
GRIDFORMAT_BEGIN
 90
0
 91
1
 62
0
 92
-2
340
0
 93
0
 40
0.045
309
GRIDFORMAT_END
 95
8
302
GRIDFORMAT
  1
GRIDFORMAT_BEGIN
 90
0
 91
1
 62
0
 92
-2
340
0
 93
0
 40
0.045
309
GRIDFORMAT_END
 95
16
302
GRIDFORMAT
  1
GRIDFORMAT_BEGIN
 90
0
 91
1
 62
0
 92
-2
340
0
 93
0
 40
0.045
309
GRIDFORMAT_END
 95
32
302
GRIDFORMAT
  1
GRIDFORMAT_BEGIN
 90
0
 91
1
 62
0
 92
-2
340
0
 93
0
 40
0.045
309
GRIDFORMAT_END
309
TABLEFORMAT_END
  1
CELLSTYLE_BEGIN
 90
3
 91
2
300
_DATA
309
CELLSTYLE_END
  0
XRECORD
  5
444
102
{ACAD_REACTORS
330
104
102
}
330
104
100
AcDbXrecord
280
1
102
ACAD_ROUNDTRIP_PRE2007_TABLESTYLE
 90
512
 91
0
  1

 92
512
 93
0
  2

 94
512
 95
0
  3

  0
XRECORD
  5
455
102
{ACAD_REACTORS
330
454
102
}
330
454
100
AcDbXrecord
280
1
102
RTVSPropertyOp0
 70
1
102
RTVSPropertyOp1
 70
1
102
RTVSPropertyOp2
 70
1
102
RTVSPropertyOp3
 70
1
102
RTVSPropertyOp4
 70
1
102
RTVSPropertyOp5
 70
1
102
RTVSPropertyOp6
 70
1
102
RTVSPropertyOp7
 70
1
102
RTVSPropertyOp8
 70
1
102
RTVSPropertyOp9
 70
1
102
RTVSPropertyOp10
 70
1
102
RTVSPropertyOp11
 70
1
102
RTVSPropertyOp12
 70
1
102
RTVSPropertyOp13
 70
1
102
RTVSPropertyOp14
 70
1
102
RTVSPropertyOp15
 70
1
102
RTVSPropertyOp16
 70
1
102
RTVSPropertyOp17
 70
1
102
RTVSPropertyOp18
 70
1
102
RTVSPropertyOp19
 70
1
102
RTVSPropertyOp20
 70
1
102
RTVSPropertyOp21
 70
1
102
RTVSPropertyOp22
 70
1
102
RTVSPropertyOp23
 70
1
102
RTVSPropertyOp24
 70
1
102
RTVSPropertyOp25
 70
1
102
RTVSPropertyOp26
 70
1
102
RTVSPropertyOp27
 70
1
  0
XRECORD
  5
459
102
{ACAD_REACTORS
330
458
102
}
330
458
100
AcDbXrecord
280
1
102
RTVSPropertyOp0
 70
1
102
RTVSPropertyOp1
 70
1
102
RTVSPropertyOp2
 70
1
102
RTVSPropertyOp3
 70
1
102
RTVSPropertyOp4
 70
1
102
RTVSPropertyOp5
 70
1
102
RTVSPropertyOp6
 70
1
102
RTVSPropertyOp7
 70
1
102
RTVSPropertyOp8
 70
1
102
RTVSPropertyOp9
 70
1
102
RTVSPropertyOp10
 70
1
102
RTVSPropertyOp11
 70
1
102
RTVSPropertyOp12
 70
1
102
RTVSPropertyOp13
 70
1
102
RTVSPropertyOp14
 70
1
102
RTVSPropertyOp15
 70
1
102
RTVSPropertyOp16
 70
1
102
RTVSPropertyOp17
 70
1
102
RTVSPropertyOp18
 70
1
102
RTVSPropertyOp19
 70
1
102
RTVSPropertyOp20
 70
1
102
RTVSPropertyOp21
 70
1
102
RTVSPropertyOp22
 70
1
102
RTVSPropertyOp23
 70
1
102
RTVSPropertyOp24
 70
1
102
RTVSPropertyOp25
 70
1
102
RTVSPropertyOp26
 70
1
102
RTVSPropertyOp27
 70
1
  0
XRECORD
  5
457
102
{ACAD_REACTORS
330
456
102
}
330
456
100
AcDbXrecord
280
1
102
RTVSPropertyOp0
 70
1
102
RTVSPropertyOp1
 70
1
102
RTVSPropertyOp2
 70
1
102
RTVSPropertyOp3
 70
1
102
RTVSPropertyOp4
 70
1
102
RTVSPropertyOp5
 70
1
102
RTVSPropertyOp6
 70
1
102
RTVSPropertyOp7
 70
1
102
RTVSPropertyOp8
 70
1
102
RTVSPropertyOp9
 70
1
102
RTVSPropertyOp10
 70
1
102
RTVSPropertyOp11
 70
1
102
RTVSPropertyOp12
 70
1
102
RTVSPropertyOp13
 70
1
102
RTVSPropertyOp14
 70
1
102
RTVSPropertyOp15
 70
1
102
RTVSPropertyOp16
 70
1
102
RTVSPropertyOp17
 70
1
102
RTVSPropertyOp18
 70
1
102
RTVSPropertyOp19
 70
1
102
RTVSPropertyOp20
 70
1
102
RTVSPropertyOp21
 70
1
102
RTVSPropertyOp22
 70
1
102
RTVSPropertyOp23
 70
1
102
RTVSPropertyOp24
 70
1
102
RTVSPropertyOp25
 70
1
102
RTVSPropertyOp26
 70
1
102
RTVSPropertyOp27
 70
1
  0
XRECORD
  5
453
102
{ACAD_REACTORS
330
452
102
}
330
452
100
AcDbXrecord
280
1
102
RTVSPropertyOp0
 70
1
102
RTVSPropertyOp1
 70
1
102
RTVSPropertyOp2
 70
1
102
RTVSPropertyOp3
 70
1
102
RTVSPropertyOp4
 70
1
102
RTVSPropertyOp5
 70
1
102
RTVSPropertyOp6
 70
1
102
RTVSPropertyOp7
 70
1
102
RTVSPropertyOp8
 70
1
102
RTVSPropertyOp9
 70
1
102
RTVSPropertyOp10
 70
1
102
RTVSPropertyOp11
 70
1
102
RTVSPropertyOp12
 70
1
102
RTVSPropertyOp13
 70
1
102
RTVSPropertyOp14
 70
1
102
RTVSPropertyOp15
 70
1
102
RTVSPropertyOp16
 70
1
102
RTVSPropertyOp17
 70
1
102
RTVSPropertyOp18
 70
1
102
RTVSPropertyOp19
 70
1
102
RTVSPropertyOp20
 70
1
102
RTVSPropertyOp21
 70
1
102
RTVSPropertyOp22
 70
1
102
RTVSPropertyOp23
 70
1
102
RTVSPropertyOp24
 70
1
102
RTVSPropertyOp25
 70
1
102
RTVSPropertyOp26
 70
1
102
RTVSPropertyOp27
 70
1
  0
XRECORD
  5
461
102
{ACAD_REACTORS
330
460
102
}
330
460
100
AcDbXrecord
280
1
102
RTVSPropertyOp0
 70
1
102
RTVSPropertyOp1
 70
1
102
RTVSPropertyOp2
 70
1
102
RTVSPropertyOp3
 70
1
102
RTVSPropertyOp4
 70
1
102
RTVSPropertyOp5
 70
1
102
RTVSPropertyOp6
 70
1
102
RTVSPropertyOp7
 70
1
102
RTVSPropertyOp8
 70
1
102
RTVSPropertyOp9
 70
1
102
RTVSPropertyOp10
 70
1
102
RTVSPropertyOp11
 70
1
102
RTVSPropertyOp12
 70
1
102
RTVSPropertyOp13
 70
1
102
RTVSPropertyOp14
 70
1
102
RTVSPropertyOp15
 70
1
102
RTVSPropertyOp16
 70
1
102
RTVSPropertyOp17
 70
1
102
RTVSPropertyOp18
 70
1
102
RTVSPropertyOp19
 70
1
102
RTVSPropertyOp20
 70
1
102
RTVSPropertyOp21
 70
1
102
RTVSPropertyOp22
 70
1
102
RTVSPropertyOp23
 70
1
102
RTVSPropertyOp24
 70
1
102
RTVSPropertyOp25
 70
1
102
RTVSPropertyOp26
 70
1
102
RTVSPropertyOp27
 70
1
  0
XRECORD
  5
469
102
{ACAD_REACTORS
330
468
102
}
330
468
100
AcDbXrecord
280
1
102
RTVSPropertyOp0
 70
1
102
RTVSPropertyOp1
 70
1
102
RTVSPropertyOp2
 70
1
102
RTVSPropertyOp3
 70
1
102
RTVSPropertyOp4
 70
1
102
RTVSPropertyOp5
 70
1
102
RTVSPropertyOp6
 70
1
102
RTVSPropertyOp7
 70
1
102
RTVSPropertyOp8
 70
1
102
RTVSPropertyOp9
 70
1
102
RTVSPropertyOp10
 70
1
102
RTVSPropertyOp11
 70
1
102
RTVSPropertyOp12
 70
1
102
RTVSPropertyOp13
 70
1
102
RTVSPropertyOp14
 70
1
102
RTVSPropertyOp15
 70
1
102
RTVSPropertyOp16
 70
1
102
RTVSPropertyOp17
 70
1
102
RTVSPropertyOp18
 70
1
102
RTVSPropertyOp19
 70
1
102
RTVSPropertyOp20
 70
1
102
RTVSPropertyOp21
 70
1
102
RTVSPropertyOp22
 70
1
102
RTVSPropertyOp23
 70
1
102
RTVSPropertyOp24
 70
1
102
RTVSPropertyOp25
 70
1
102
RTVSPropertyOp26
 70
1
102
RTVSPropertyOp27
 70
1
  0
XRECORD
  5
45B
102
{ACAD_REACTORS
330
45A
102
}
330
45A
100
AcDbXrecord
280
1
102
RTVSPropertyOp0
 70
1
102
RTVSPropertyOp1
 70
1
102
RTVSPropertyOp2
 70
1
102
RTVSPropertyOp3
 70
1
102
RTVSPropertyOp4
 70
1
102
RTVSPropertyOp5
 70
1
102
RTVSPropertyOp6
 70
1
102
RTVSPropertyOp7
 70
1
102
RTVSPropertyOp8
 70
1
102
RTVSPropertyOp9
 70
1
102
RTVSPropertyOp10
 70
1
102
RTVSPropertyOp11
 70
1
102
RTVSPropertyOp12
 70
1
102
RTVSPropertyOp13
 70
1
102
RTVSPropertyOp14
 70
1
102
RTVSPropertyOp15
 70
1
102
RTVSPropertyOp16
 70
1
102
RTVSPropertyOp17
 70
1
102
RTVSPropertyOp18
 70
1
102
RTVSPropertyOp19
 70
1
102
RTVSPropertyOp20
 70
1
102
RTVSPropertyOp21
 70
1
102
RTVSPropertyOp22
 70
1
102
RTVSPropertyOp23
 70
1
102
RTVSPropertyOp24
 70
1
102
RTVSPropertyOp25
 70
1
102
RTVSPropertyOp26
 70
1
102
RTVSPropertyOp27
 70
1
  0
XRECORD
  5
45F
102
{ACAD_REACTORS
330
45E
102
}
330
45E
100
AcDbXrecord
280
1
102
RTVSPropertyOp0
 70
1
102
RTVSPropertyOp1
 70
1
102
RTVSPropertyOp2
 70
1
102
RTVSPropertyOp3
 70
1
102
RTVSPropertyOp4
 70
1
102
RTVSPropertyOp5
 70
1
102
RTVSPropertyOp6
 70
1
102
RTVSPropertyOp7
 70
1
102
RTVSPropertyOp8
 70
1
102
RTVSPropertyOp9
 70
1
102
RTVSPropertyOp10
 70
1
102
RTVSPropertyOp11
 70
1
102
RTVSPropertyOp12
 70
1
102
RTVSPropertyOp13
 70
1
102
RTVSPropertyOp14
 70
1
102
RTVSPropertyOp15
 70
1
102
RTVSPropertyOp16
 70
1
102
RTVSPropertyOp17
 70
1
102
RTVSPropertyOp18
 70
1
102
RTVSPropertyOp19
 70
1
102
RTVSPropertyOp20
 70
1
102
RTVSPropertyOp21
 70
1
102
RTVSPropertyOp22
 70
1
102
RTVSPropertyOp23
 70
1
102
RTVSPropertyOp24
 70
1
102
RTVSPropertyOp25
 70
1
102
RTVSPropertyOp26
 70
1
102
RTVSPropertyOp27
 70
1
  0
XRECORD
  5
46F
102
{ACAD_REACTORS
330
46E
102
}
330
46E
100
AcDbXrecord
280
1
102
RTVSPropertyOp0
 70
0
102
RTVSPropertyOp1
 70
0
102
RTVSPropertyOp2
 70
0
102
RTVSPropertyOp3
 70
0
102
RTVSPropertyOp4
 70
0
102
RTVSPropertyOp5
 70
0
102
RTVSPropertyOp6
 70
0
102
RTVSPropertyOp7
 70
0
102
RTVSPropertyOp8
 70
0
102
RTVSPropertyOp9
 70
0
102
RTVSPropertyOp10
 70
0
102
RTVSPropertyOp11
 70
0
102
RTVSPropertyOp12
 70
0
102
RTVSPropertyOp13
 70
0
102
RTVSPropertyOp14
 70
2
102
RTVSPropertyOp15
 70
0
102
RTVSPropertyOp16
 70
0
102
RTVSPropertyOp17
 70
0
102
RTVSPropertyOp18
 70
0
102
RTVSPropertyOp19
 70
0
102
RTVSPropertyOp20
 70
0
102
RTVSPropertyOp21
 70
0
102
RTVSPropertyOp22
 70
0
102
RTVSPropertyOp23
 70
0
102
RTVSPropertyOp24
 70
0
102
RTVSPropertyOp25
 70
0
102
RTVSPropertyOp26
 70
0
102
RTVSPropertyOp27
 70
0
  0
XRECORD
  5
467
102
{ACAD_REACTORS
330
466
102
}
330
466
100
AcDbXrecord
280
1
102
RTVSPropertyOp0
 70
1
102
RTVSPropertyOp1
 70
1
102
RTVSPropertyOp2
 70
1
102
RTVSPropertyOp3
 70
1
102
RTVSPropertyOp4
 70
1
102
RTVSPropertyOp5
 70
1
102
RTVSPropertyOp6
 70
1
102
RTVSPropertyOp7
 70
1
102
RTVSPropertyOp8
 70
1
102
RTVSPropertyOp9
 70
1
102
RTVSPropertyOp10
 70
1
102
RTVSPropertyOp11
 70
1
102
RTVSPropertyOp12
 70
1
102
RTVSPropertyOp13
 70
1
102
RTVSPropertyOp14
 70
1
102
RTVSPropertyOp15
 70
1
102
RTVSPropertyOp16
 70
1
102
RTVSPropertyOp17
 70
1
102
RTVSPropertyOp18
 70
1
102
RTVSPropertyOp19
 70
1
102
RTVSPropertyOp20
 70
1
102
RTVSPropertyOp21
 70
1
102
RTVSPropertyOp22
 70
1
102
RTVSPropertyOp23
 70
1
102
RTVSPropertyOp24
 70
1
102
RTVSPropertyOp25
 70
1
102
RTVSPropertyOp26
 70
1
102
RTVSPropertyOp27
 70
1
  0
XRECORD
  5
44B
102
{ACAD_REACTORS
330
44A
102
}
330
44A
100
AcDbXrecord
280
1
102
RTVSPropertyOp0
 70
1
102
RTVSPropertyOp1
 70
1
102
RTVSPropertyOp2
 70
1
102
RTVSPropertyOp3
 70
1
102
RTVSPropertyOp4
 70
1
102
RTVSPropertyOp5
 70
1
102
RTVSPropertyOp6
 70
1
102
RTVSPropertyOp7
 70
1
102
RTVSPropertyOp8
 70
1
102
RTVSPropertyOp9
 70
1
102
RTVSPropertyOp10
 70
1
102
RTVSPropertyOp11
 70
1
102
RTVSPropertyOp12
 70
1
102
RTVSPropertyOp13
 70
1
102
RTVSPropertyOp14
 70
1
102
RTVSPropertyOp15
 70
1
102
RTVSPropertyOp16
 70
1
102
RTVSPropertyOp17
 70
1
102
RTVSPropertyOp18
 70
1
102
RTVSPropertyOp19
 70
1
102
RTVSPropertyOp20
 70
1
102
RTVSPropertyOp21
 70
1
102
RTVSPropertyOp22
 70
1
102
RTVSPropertyOp23
 70
1
102
RTVSPropertyOp24
 70
1
102
RTVSPropertyOp25
 70
1
102
RTVSPropertyOp26
 70
1
102
RTVSPropertyOp27
 70
1
  0
XRECORD
  5
44D
102
{ACAD_REACTORS
330
44C
102
}
330
44C
100
AcDbXrecord
280
1
102
RTVSPropertyOp0
 70
1
102
RTVSPropertyOp1
 70
1
102
RTVSPropertyOp2
 70
1
102
RTVSPropertyOp3
 70
1
102
RTVSPropertyOp4
 70
1
102
RTVSPropertyOp5
 70
1
102
RTVSPropertyOp6
 70
1
102
RTVSPropertyOp7
 70
1
102
RTVSPropertyOp8
 70
1
102
RTVSPropertyOp9
 70
1
102
RTVSPropertyOp10
 70
1
102
RTVSPropertyOp11
 70
1
102
RTVSPropertyOp12
 70
1
102
RTVSPropertyOp13
 70
1
102
RTVSPropertyOp14
 70
1
102
RTVSPropertyOp15
 70
1
102
RTVSPropertyOp16
 70
1
102
RTVSPropertyOp17
 70
1
102
RTVSPropertyOp18
 70
1
102
RTVSPropertyOp19
 70
1
102
RTVSPropertyOp20
 70
1
102
RTVSPropertyOp21
 70
1
102
RTVSPropertyOp22
 70
1
102
RTVSPropertyOp23
 70
1
102
RTVSPropertyOp24
 70
1
102
RTVSPropertyOp25
 70
1
102
RTVSPropertyOp26
 70
1
102
RTVSPropertyOp27
 70
1
  0
XRECORD
  5
44F
102
{ACAD_REACTORS
330
44E
102
}
330
44E
100
AcDbXrecord
280
1
102
RTVSPropertyOp0
 70
1
102
RTVSPropertyOp1
 70
1
102
RTVSPropertyOp2
 70
1
102
RTVSPropertyOp3
 70
1
102
RTVSPropertyOp4
 70
1
102
RTVSPropertyOp5
 70
1
102
RTVSPropertyOp6
 70
1
102
RTVSPropertyOp7
 70
1
102
RTVSPropertyOp8
 70
1
102
RTVSPropertyOp9
 70
1
102
RTVSPropertyOp10
 70
1
102
RTVSPropertyOp11
 70
1
102
RTVSPropertyOp12
 70
1
102
RTVSPropertyOp13
 70
1
102
RTVSPropertyOp14
 70
1
102
RTVSPropertyOp15
 70
1
102
RTVSPropertyOp16
 70
1
102
RTVSPropertyOp17
 70
1
102
RTVSPropertyOp18
 70
1
102
RTVSPropertyOp19
 70
1
102
RTVSPropertyOp20
 70
1
102
RTVSPropertyOp21
 70
1
102
RTVSPropertyOp22
 70
1
102
RTVSPropertyOp23
 70
1
102
RTVSPropertyOp24
 70
1
102
RTVSPropertyOp25
 70
1
102
RTVSPropertyOp26
 70
1
102
RTVSPropertyOp27
 70
1
  0
XRECORD
  5
451
102
{ACAD_REACTORS
330
450
102
}
330
450
100
AcDbXrecord
280
1
102
RTVSPropertyOp0
 70
1
102
RTVSPropertyOp1
 70
1
102
RTVSPropertyOp2
 70
1
102
RTVSPropertyOp3
 70
1
102
RTVSPropertyOp4
 70
1
102
RTVSPropertyOp5
 70
1
102
RTVSPropertyOp6
 70
1
102
RTVSPropertyOp7
 70
1
102
RTVSPropertyOp8
 70
1
102
RTVSPropertyOp9
 70
1
102
RTVSPropertyOp10
 70
1
102
RTVSPropertyOp11
 70
1
102
RTVSPropertyOp12
 70
1
102
RTVSPropertyOp13
 70
1
102
RTVSPropertyOp14
 70
1
102
RTVSPropertyOp15
 70
1
102
RTVSPropertyOp16
 70
1
102
RTVSPropertyOp17
 70
1
102
RTVSPropertyOp18
 70
1
102
RTVSPropertyOp19
 70
1
102
RTVSPropertyOp20
 70
1
102
RTVSPropertyOp21
 70
1
102
RTVSPropertyOp22
 70
1
102
RTVSPropertyOp23
 70
1
102
RTVSPropertyOp24
 70
1
102
RTVSPropertyOp25
 70
1
102
RTVSPropertyOp26
 70
1
102
RTVSPropertyOp27
 70
1
  0
XRECORD
  5
46B
102
{ACAD_REACTORS
330
46A
102
}
330
46A
100
AcDbXrecord
280
1
102
RTVSPropertyOp0
 70
0
102
RTVSPropertyOp1
 70
0
102
RTVSPropertyOp2
 70
0
102
RTVSPropertyOp3
 70
0
102
RTVSPropertyOp4
 70
0
102
RTVSPropertyOp5
 70
0
102
RTVSPropertyOp6
 70
0
102
RTVSPropertyOp7
 70
0
102
RTVSPropertyOp8
 70
0
102
RTVSPropertyOp9
 70
0
102
RTVSPropertyOp10
 70
0
102
RTVSPropertyOp11
 70
0
102
RTVSPropertyOp12
 70
0
102
RTVSPropertyOp13
 70
0
102
RTVSPropertyOp14
 70
2
102
RTVSPropertyOp15
 70
0
102
RTVSPropertyOp16
 70
0
102
RTVSPropertyOp17
 70
0
102
RTVSPropertyOp18
 70
0
102
RTVSPropertyOp19
 70
0
102
RTVSPropertyOp20
 70
0
102
RTVSPropertyOp21
 70
0
102
RTVSPropertyOp22
 70
0
102
RTVSPropertyOp23
 70
0
102
RTVSPropertyOp24
 70
0
102
RTVSPropertyOp25
 70
0
102
RTVSPropertyOp26
 70
0
102
RTVSPropertyOp27
 70
0
  0
XRECORD
  5
465
102
{ACAD_REACTORS
330
464
102
}
330
464
100
AcDbXrecord
280
1
102
RTVSPropertyOp0
 70
1
102
RTVSPropertyOp1
 70
1
102
RTVSPropertyOp2
 70
1
102
RTVSPropertyOp3
 70
1
102
RTVSPropertyOp4
 70
1
102
RTVSPropertyOp5
 70
1
102
RTVSPropertyOp6
 70
1
102
RTVSPropertyOp7
 70
1
102
RTVSPropertyOp8
 70
1
102
RTVSPropertyOp9
 70
1
102
RTVSPropertyOp10
 70
1
102
RTVSPropertyOp11
 70
1
102
RTVSPropertyOp12
 70
1
102
RTVSPropertyOp13
 70
1
102
RTVSPropertyOp14
 70
1
102
RTVSPropertyOp15
 70
1
102
RTVSPropertyOp16
 70
1
102
RTVSPropertyOp17
 70
1
102
RTVSPropertyOp18
 70
1
102
RTVSPropertyOp19
 70
1
102
RTVSPropertyOp20
 70
1
102
RTVSPropertyOp21
 70
1
102
RTVSPropertyOp22
 70
1
102
RTVSPropertyOp23
 70
1
102
RTVSPropertyOp24
 70
1
102
RTVSPropertyOp25
 70
1
102
RTVSPropertyOp26
 70
1
102
RTVSPropertyOp27
 70
1
  0
XRECORD
  5
46D
102
{ACAD_REACTORS
330
46C
102
}
330
46C
100
AcDbXrecord
280
1
102
RTVSPropertyOp0
 70
0
102
RTVSPropertyOp1
 70
0
102
RTVSPropertyOp2
 70
0
102
RTVSPropertyOp3
 70
0
102
RTVSPropertyOp4
 70
0
102
RTVSPropertyOp5
 70
0
102
RTVSPropertyOp6
 70
0
102
RTVSPropertyOp7
 70
0
102
RTVSPropertyOp8
 70
0
102
RTVSPropertyOp9
 70
0
102
RTVSPropertyOp10
 70
0
102
RTVSPropertyOp11
 70
0
102
RTVSPropertyOp12
 70
0
102
RTVSPropertyOp13
 70
0
102
RTVSPropertyOp14
 70
2
102
RTVSPropertyOp15
 70
0
102
RTVSPropertyOp16
 70
0
102
RTVSPropertyOp17
 70
0
102
RTVSPropertyOp18
 70
0
102
RTVSPropertyOp19
 70
0
102
RTVSPropertyOp20
 70
0
102
RTVSPropertyOp21
 70
0
102
RTVSPropertyOp22
 70
0
102
RTVSPropertyOp23
 70
0
102
RTVSPropertyOp24
 70
0
102
RTVSPropertyOp25
 70
0
102
RTVSPropertyOp26
 70
0
102
RTVSPropertyOp27
 70
0
  0
XRECORD
  5
45D
102
{ACAD_REACTORS
330
45C
102
}
330
45C
100
AcDbXrecord
280
1
102
RTVSPropertyOp0
 70
1
102
RTVSPropertyOp1
 70
1
102
RTVSPropertyOp2
 70
1
102
RTVSPropertyOp3
 70
1
102
RTVSPropertyOp4
 70
1
102
RTVSPropertyOp5
 70
1
102
RTVSPropertyOp6
 70
1
102
RTVSPropertyOp7
 70
1
102
RTVSPropertyOp8
 70
1
102
RTVSPropertyOp9
 70
1
102
RTVSPropertyOp10
 70
1
102
RTVSPropertyOp11
 70
1
102
RTVSPropertyOp12
 70
1
102
RTVSPropertyOp13
 70
1
102
RTVSPropertyOp14
 70
1
102
RTVSPropertyOp15
 70
1
102
RTVSPropertyOp16
 70
1
102
RTVSPropertyOp17
 70
1
102
RTVSPropertyOp18
 70
1
102
RTVSPropertyOp19
 70
1
102
RTVSPropertyOp20
 70
1
102
RTVSPropertyOp21
 70
1
102
RTVSPropertyOp22
 70
1
102
RTVSPropertyOp23
 70
1
102
RTVSPropertyOp24
 70
1
102
RTVSPropertyOp25
 70
1
102
RTVSPropertyOp26
 70
1
102
RTVSPropertyOp27
 70
1
  0
XRECORD
  5
463
102
{ACAD_REACTORS
330
462
102
}
330
462
100
AcDbXrecord
280
1
102
RTVSPropertyOp0
 70
1
102
RTVSPropertyOp1
 70
1
102
RTVSPropertyOp2
 70
1
102
RTVSPropertyOp3
 70
1
102
RTVSPropertyOp4
 70
1
102
RTVSPropertyOp5
 70
1
102
RTVSPropertyOp6
 70
1
102
RTVSPropertyOp7
 70
1
102
RTVSPropertyOp8
 70
1
102
RTVSPropertyOp9
 70
1
102
RTVSPropertyOp10
 70
1
102
RTVSPropertyOp11
 70
1
102
RTVSPropertyOp12
 70
1
102
RTVSPropertyOp13
 70
1
102
RTVSPropertyOp14
 70
1
102
RTVSPropertyOp15
 70
1
102
RTVSPropertyOp16
 70
1
102
RTVSPropertyOp17
 70
1
102
RTVSPropertyOp18
 70
1
102
RTVSPropertyOp19
 70
1
102
RTVSPropertyOp20
 70
1
102
RTVSPropertyOp21
 70
1
102
RTVSPropertyOp22
 70
1
102
RTVSPropertyOp23
 70
1
102
RTVSPropertyOp24
 70
1
102
RTVSPropertyOp25
 70
1
102
RTVSPropertyOp26
 70
1
102
RTVSPropertyOp27
 70
1
  0
ENDSEC
  0
EOF
